{"glyphs":{"0":{"ha":742,"x_min":69,"x_max":668,"o":"m 668 400 q 660 318 667 360 q 638 238 653 276 q 601 165 624 199 q 546 103 578 131 q 478 62 514 75 q 404 49 442 49 q 279 89 336 49 q 193 168 231 121 q 130 271 156 215 q 90 387 104 326 q 74 504 76 447 q 150 783 69 675 q 240 864 190 836 q 342 892 289 892 q 426 874 383 892 q 507 818 468 856 q 581 729 550 778 q 631 626 611 681 q 659 515 650 572 q 668 400 668 457 m 603 399 q 510 710 611 576 q 434 788 468 764 q 372 811 400 811 q 303 760 329 811 q 267 634 276 710 q 263 470 257 558 q 290 306 269 382 q 345 180 310 231 q 428 129 381 129 q 500 158 461 129 l 506 164 q 579 270 558 208 q 603 399 600 332 z "},"1":{"ha":357,"x_min":17,"x_max":269,"o":"m 269 18 l 269 -12 q 263 -32 269 -21 q 249 -40 254 -42 l 135 24 l 135 63 l 131 886 l 131 921 q 120 894 129 919 q 101 837 111 868 q 81 778 90 806 q 71 746 72 750 q 39 661 53 688 q 19 647 25 636 q 19 658 17 647 q 27 722 19 683 q 45 801 35 760 q 67 880 56 842 q 86 943 78 918 q 94 969 92 958 q 100 983 97 979 q 122 1003 107 999 q 154 1007 136 1007 q 191 1004 174 1007 q 219 1000 208 1001 q 238 965 233 992 l 269 18 z "},"2":{"ha":561,"x_min":51,"x_max":525,"o":"m 224 231 q 227 238 225 233 q 233 251 229 243 q 273 376 256 308 q 300 510 290 443 q 313 641 310 578 q 310 752 315 704 q 290 829 304 800 q 250 858 275 858 q 217 847 233 858 q 184 818 200 835 q 154 783 168 801 q 132 750 140 764 q 119 731 125 740 q 113 716 117 725 q 107 700 108 707 q 88 693 99 676 q 86 756 71 714 q 112 808 93 779 q 156 861 131 836 q 208 903 181 886 q 263 919 236 919 q 317 903 290 919 q 424 689 407 847 q 424 582 428 643 q 397 384 418 485 q 338 192 376 283 q 332 176 332 181 l 332 171 q 336 164 332 168 q 357 147 339 163 q 400 113 378 131 q 423 94 407 107 q 456 69 439 82 q 490 47 474 57 q 515 33 507 36 q 524 15 525 32 q 508 -11 522 0 q 493 -15 499 -15 q 449 3 475 -12 q 407 31 422 19 q 392 42 400 36 q 375 56 385 49 q 356 69 364 63 q 339 83 347 76 q 324 94 331 90 q 315 100 318 97 l 300 111 l 265 65 q 238 33 250 46 q 217 14 225 21 q 174 -6 200 1 q 104 11 138 -11 q 61 75 71 36 q 68 156 51 113 q 106 209 82 188 q 165 233 129 231 q 188 235 172 235 q 206 231 197 235 q 224 231 219 226 m 154 124 q 164 141 160 133 q 172 156 168 149 q 179 165 178 164 q 181 169 179 168 q 167 171 181 174 q 146 167 153 171 q 121 142 131 160 q 111 108 111 124 q 114 91 111 103 q 125 79 117 79 q 131 85 126 79 q 140 100 135 92 q 149 115 144 108 q 154 124 153 122 z "},"3":{"ha":526,"x_min":36,"x_max":488,"o":"m 119 492 q 90 486 103 488 q 68 485 78 485 q 50 488 54 485 q 57 529 36 496 q 73 549 64 540 q 93 567 82 558 q 132 598 111 579 q 173 638 153 617 q 210 683 193 660 q 238 725 228 706 q 247 743 242 732 q 253 761 253 754 q 239 785 253 775 q 214 799 225 796 q 143 801 193 806 l 107 801 q 88 804 96 801 q 76 818 81 807 q 74 828 75 822 q 71 843 74 835 q 68 897 67 875 q 76 938 71 924 q 174 982 100 982 q 235 976 208 982 q 286 942 263 969 q 315 894 310 914 q 321 839 321 874 q 300 731 321 779 q 243 638 279 683 l 207 589 q 360 554 300 589 q 451 465 419 519 q 485 344 482 411 q 466 214 488 278 q 400 97 444 150 q 290 14 356 43 q 185 -10 242 -10 q 147 -6 168 -10 q 106 6 125 -3 q 71 26 86 14 q 51 56 56 39 l 51 74 q 57 103 54 85 q 65 133 60 122 q 69 88 63 101 q 92 75 76 75 q 156 107 117 75 q 236 187 196 139 q 310 291 276 235 q 353 396 343 347 q 345 477 364 444 q 263 511 326 510 q 119 492 214 513 z "},"4":{"ha":554,"x_min":26,"x_max":513,"o":"m 160 238 q 71 218 93 217 q 35 247 44 221 q 29 285 26 263 q 33 312 31 296 q 43 351 36 328 q 56 406 50 378 q 69 467 63 435 q 82 533 76 499 q 94 603 88 567 q 123 755 110 690 q 147 864 136 819 q 185 968 168 954 q 210 972 200 983 q 221 932 221 961 q 220 922 221 926 q 219 913 219 918 q 219 902 219 908 q 217 889 218 896 q 208 847 213 875 q 201 816 206 833 q 193 776 197 799 q 185 739 189 763 q 180 716 182 728 q 175 690 178 704 q 170 663 172 676 q 165 636 168 650 q 161 610 163 622 q 157 585 160 597 q 141 506 149 544 q 126 432 133 468 q 113 372 119 397 q 103 328 107 346 q 99 314 99 322 l 99 307 q 110 304 99 303 q 128 309 115 306 q 160 319 140 313 q 182 326 171 322 q 206 333 193 331 q 228 339 218 336 q 244 343 238 342 q 258 346 251 344 q 269 349 264 347 q 282 353 281 353 q 283 363 282 354 q 283 386 283 371 q 283 422 283 403 q 282 464 282 442 l 282 533 q 282 558 282 547 q 283 575 282 568 q 288 600 283 592 q 294 617 289 606 q 317 633 303 629 q 367 642 329 640 q 388 643 379 643 q 403 644 397 643 q 417 651 414 647 q 447 650 429 665 q 460 619 458 639 q 460 589 460 608 q 457 542 460 569 q 453 489 454 514 q 450 440 451 464 q 449 397 449 418 q 449 357 449 376 q 453 283 449 319 q 461 213 456 249 q 468 173 464 192 q 476 136 472 154 q 486 103 481 119 q 499 69 492 86 q 505 51 503 58 q 510 38 507 43 q 510 21 513 28 q 501 1 507 10 q 489 -7 496 -7 q 474 -17 482 -7 q 396 -25 436 -51 q 311 117 336 11 q 308 131 308 124 q 304 149 307 139 q 301 169 301 160 q 297 190 300 179 q 294 210 294 201 q 292 229 293 219 q 290 245 290 239 q 290 256 290 251 q 288 269 290 267 q 246 263 282 272 q 205 251 226 257 q 160 238 183 244 z "},"5":{"ha":557,"x_min":50,"x_max":529,"o":"m 71 447 q 58 463 64 454 q 53 479 56 467 q 50 507 50 493 l 50 554 q 52 636 50 597 q 57 711 54 675 q 74 821 63 783 q 92 856 81 843 q 117 876 103 872 q 135 879 125 879 q 146 881 140 881 q 157 881 151 881 q 174 879 163 879 q 206 879 186 879 q 243 881 224 881 q 282 882 263 881 q 385 882 357 885 q 421 869 413 879 q 414 840 435 856 q 371 828 404 835 q 335 822 356 825 q 290 817 314 819 q 272 815 281 815 q 254 813 263 814 q 238 811 244 811 q 229 811 232 811 l 213 808 l 213 718 q 213 679 213 699 q 211 638 213 660 q 210 601 210 617 q 208 574 210 585 q 207 552 207 563 q 206 532 207 542 q 204 517 204 522 q 204 510 204 513 q 210 500 204 501 q 222 497 213 499 q 247 493 232 496 q 382 456 332 479 q 467 389 431 433 q 503 331 492 358 q 513 301 508 317 q 521 265 518 285 q 507 153 529 208 q 449 60 486 97 q 360 8 407 22 q 297 0 333 0 q 231 8 260 0 q 167 32 190 18 q 136 64 144 43 l 129 79 l 142 88 q 171 99 156 99 q 228 89 190 99 l 269 81 q 283 83 275 81 q 304 111 293 89 q 314 134 310 122 q 324 160 318 146 q 326 170 325 165 q 329 179 328 175 q 331 188 331 183 q 332 196 331 192 q 333 214 333 201 l 333 243 q 333 270 333 258 q 332 290 333 282 q 329 310 331 300 q 325 332 328 321 q 311 386 317 375 q 296 403 306 400 q 243 414 276 410 q 164 422 206 421 q 141 424 151 424 q 124 425 131 424 q 99 429 110 428 q 83 436 92 431 q 71 447 79 439 z "},"6":{"ha":663,"x_min":74,"x_max":631,"o":"m 319 199 l 335 178 q 404 121 363 140 q 453 104 435 107 q 483 114 467 103 q 532 183 508 138 q 561 272 553 226 q 565 339 568 304 q 557 392 563 374 q 453 414 528 461 q 419 385 436 406 q 401 361 410 374 q 383 335 393 349 q 367 306 375 321 q 350 275 358 290 q 336 244 343 260 q 325 213 329 228 l 319 199 m 201 72 q 83 310 119 144 q 76 357 78 332 q 75 385 75 371 q 74 415 75 400 l 74 474 q 75 500 75 488 q 78 524 75 513 q 122 689 88 606 q 158 767 139 731 q 200 833 176 803 q 300 925 253 904 q 374 915 346 947 q 382 901 381 907 l 382 886 l 382 869 l 361 868 q 321 853 343 867 q 294 826 300 839 q 282 788 290 814 q 274 758 278 774 q 265 724 269 742 q 257 688 261 706 q 250 651 253 671 q 244 618 246 633 q 239 590 242 603 q 237 573 238 582 q 236 553 236 564 q 235 531 235 542 q 235 510 235 521 q 235 488 235 499 q 236 468 235 478 q 237 450 236 458 q 239 435 238 442 q 247 394 242 417 q 253 370 250 382 q 261 347 257 358 q 274 308 268 321 q 282 290 278 293 q 290 303 285 290 q 322 365 300 326 q 365 428 344 403 q 396 464 386 456 q 424 485 406 474 q 492 511 458 507 q 550 501 524 514 q 597 461 575 490 q 625 389 617 431 q 629 358 628 375 q 629 322 631 342 q 627 284 629 303 q 622 249 625 265 q 582 133 608 185 q 519 49 556 82 q 438 3 481 17 q 343 0 392 -10 q 321 4 333 3 q 308 8 314 7 q 297 13 303 10 q 285 17 290 15 q 275 21 281 18 q 266 24 269 24 q 260 26 263 25 q 254 28 257 28 q 247 32 251 29 q 241 38 244 35 q 235 43 238 40 q 226 49 231 46 q 218 57 222 53 q 208 65 213 61 q 201 72 204 69 z "},"7":{"ha":524,"x_min":1,"x_max":454,"o":"m 28 858 q 6 886 8 872 q 13 914 1 903 q 38 926 19 925 q 64 930 46 929 q 110 932 82 931 q 182 938 147 935 q 249 946 217 940 q 371 981 314 958 q 419 993 407 996 q 444 976 432 993 q 450 968 447 974 l 454 960 l 454 949 l 454 931 q 452 915 453 924 q 449 893 451 906 q 444 867 446 881 q 439 840 442 854 q 426 781 432 813 q 415 717 421 750 q 406 650 410 683 q 397 581 401 617 q 390 510 393 544 q 383 440 386 476 q 379 373 381 406 q 376 308 378 340 q 376 196 375 246 q 378 149 376 171 q 383 111 381 128 q 381 40 392 58 q 378 33 371 33 q 375 24 381 33 l 363 7 q 335 0 353 1 q 306 1 313 -3 q 268 32 283 10 q 243 79 249 56 q 235 126 239 97 q 231 161 232 143 q 229 199 231 179 q 225 281 225 239 q 225 356 224 322 q 231 456 226 401 q 244 578 236 511 q 263 715 253 644 q 289 861 274 786 q 283 871 289 871 q 246 865 274 871 q 182 857 214 861 q 147 853 164 854 q 115 851 131 853 q 85 851 99 851 q 58 853 71 851 q 28 858 33 856 z "},"8":{"ha":592,"x_min":71,"x_max":528,"o":"m 394 542 q 404 572 404 561 q 403 578 404 574 q 401 589 403 582 q 393 621 397 600 q 388 640 390 631 q 382 660 385 649 q 376 678 379 669 q 371 694 374 686 q 355 734 364 715 q 336 772 346 753 q 299 819 317 807 q 278 828 290 824 q 267 829 268 831 q 258 825 263 829 q 236 775 244 807 q 229 722 228 740 q 242 683 231 704 q 251 664 246 674 q 264 644 257 654 q 273 634 267 640 q 289 617 279 628 q 308 595 299 606 q 328 574 317 585 q 348 553 339 563 q 365 535 357 544 q 383 518 382 518 q 394 542 385 518 m 214 -7 q 129 57 164 8 q 78 176 92 107 q 76 187 76 182 q 75 196 76 192 q 74 206 74 201 q 72 218 74 211 q 71 232 71 225 q 71 249 71 239 l 71 296 q 71 328 71 313 q 72 357 71 343 q 73 384 72 371 q 75 410 74 397 q 77 436 76 424 q 81 461 78 449 q 89 518 82 486 q 95 549 92 535 q 103 579 99 564 q 111 604 107 593 q 121 625 115 615 q 142 650 133 644 q 161 653 150 657 q 171 639 169 649 q 167 603 174 628 q 158 554 163 585 q 154 526 156 539 q 151 500 153 514 q 147 476 149 488 q 144 456 146 465 q 142 439 143 444 q 142 431 142 433 q 151 378 142 408 q 163 344 157 361 q 176 310 169 326 q 191 276 183 292 q 208 244 199 260 q 239 200 226 211 q 379 158 296 142 q 407 169 400 163 q 424 207 414 178 q 431 264 431 232 q 424 324 431 296 q 417 344 421 335 q 408 364 413 353 q 397 383 403 374 q 385 403 392 393 q 349 447 371 424 q 324 474 338 460 q 296 503 311 488 q 264 536 278 521 q 239 565 250 551 q 218 590 228 578 q 201 613 208 601 q 181 656 186 636 q 168 703 172 679 q 172 781 161 740 q 201 860 181 822 q 253 926 224 899 q 318 974 281 956 q 346 982 339 981 q 374 983 351 983 q 421 971 403 981 q 461 932 438 960 q 515 800 503 878 q 508 639 528 725 q 497 607 507 631 q 489 584 493 596 q 479 560 485 572 l 458 514 q 440 483 449 494 q 436 476 438 479 q 433 471 435 474 q 431 465 431 468 l 429 464 q 435 454 429 461 q 440 445 438 450 q 446 435 443 440 q 483 351 469 396 q 496 267 496 306 q 472 150 496 210 q 407 53 447 90 q 385 35 397 43 q 358 17 374 26 q 331 3 343 8 q 307 -6 318 -3 q 285 -11 296 -10 q 260 -12 274 -12 q 214 -7 231 -12 z "},"9":{"ha":663,"x_min":65,"x_max":643,"o":"m 496 82 q 472 51 486 68 q 439 18 457 33 q 401 -8 421 3 q 363 -19 382 -19 q 322 0 339 -19 q 314 14 315 8 l 314 29 l 314 46 q 390 91 360 49 q 436 195 419 133 q 458 329 453 257 q 458 465 463 401 q 442 573 454 528 q 414 625 431 618 q 406 613 413 625 q 372 545 393 582 q 322 477 350 508 q 260 425 294 446 q 189 404 226 404 q 143 415 163 404 q 109 442 124 425 q 85 482 94 460 q 71 526 76 504 q 67 557 68 540 q 67 593 65 574 q 87 740 68 679 q 136 841 106 801 q 207 899 167 881 q 290 917 247 917 q 410 886 350 917 q 521 800 471 856 q 604 668 571 744 q 640 499 638 592 q 610 300 643 406 q 496 82 578 194 m 376 717 l 361 738 q 308 785 342 764 q 243 811 275 807 q 213 801 229 813 q 163 728 183 774 q 135 643 142 683 q 131 578 128 611 q 139 524 133 543 q 190 482 156 482 q 243 501 213 482 q 281 535 261 511 q 318 590 300 560 q 350 650 336 619 q 371 703 364 681 l 376 717 z "},"\u0000":{"ha":0,"x_min":0,"x_max":0,"o":""},"\r":{"ha":347,"x_min":0,"x_max":0,"o":""}," ":{"ha":347,"x_min":0,"x_max":0,"o":""},"!":{"ha":239,"x_min":57,"x_max":196,"o":"m 185 51 q 188 -1 196 25 q 156 -39 179 -26 q 128 -44 142 -44 q 101 -37 113 -44 q 67 1 76 -24 q 67 53 57 28 q 119 94 79 90 q 157 83 138 96 q 185 51 178 69 m 81 204 l 81 250 q 81 291 81 269 q 79 340 81 313 q 79 397 79 368 q 78 457 79 425 q 78 520 78 489 q 76 583 78 551 l 76 701 l 76 792 q 76 824 76 811 q 75 847 76 838 l 75 878 q 76 890 76 885 q 79 893 78 893 q 90 892 85 893 q 101 888 94 890 q 119 881 108 885 q 132 876 126 878 q 143 871 138 874 q 156 865 154 867 q 160 857 158 865 q 160 849 160 854 q 160 839 160 844 q 161 825 161 833 q 163 790 163 810 q 163 744 163 769 q 164 692 164 719 q 165 632 164 664 q 167 569 167 600 q 168 506 167 538 q 169 442 169 474 q 169 378 169 410 q 171 319 171 346 q 171 267 171 292 q 172 224 172 243 q 172 189 172 204 l 172 158 q 135 160 169 156 q 121 162 128 161 q 108 163 114 163 l 96 163 q 82 171 85 160 q 81 183 81 172 l 81 204 z "},"#":{"ha":847,"x_min":61,"x_max":807,"o":"m 492 358 l 486 358 q 481 358 485 358 q 469 360 476 358 q 455 360 463 360 q 438 363 447 361 q 422 364 432 364 l 408 364 q 396 365 404 365 q 394 363 396 364 q 393 351 394 357 q 392 336 392 344 q 390 319 392 328 q 389 302 389 310 q 388 288 389 294 q 387 282 388 285 q 386 276 386 279 q 386 272 386 274 q 400 269 386 272 q 414 267 407 268 q 428 264 421 265 q 444 262 436 263 q 460 260 453 261 q 474 258 468 258 q 482 257 479 257 l 489 257 l 490 279 q 492 304 492 286 l 492 331 l 492 358 m 797 443 q 804 421 803 438 q 806 401 806 411 q 806 378 807 390 q 804 351 806 356 q 800 342 803 347 l 794 338 l 717 342 q 687 344 701 343 q 660 347 672 346 q 640 349 647 349 q 632 349 633 349 l 624 350 l 622 324 q 622 311 622 318 q 621 297 622 304 q 621 282 621 289 q 619 269 621 275 l 618 242 l 657 240 l 693 240 q 712 239 703 239 q 728 238 721 239 q 743 236 736 236 q 756 235 750 236 q 768 232 768 232 q 771 225 771 229 q 768 211 771 225 q 765 198 767 204 q 761 185 764 192 q 753 160 757 171 q 749 147 751 150 q 740 144 746 144 q 730 145 738 144 q 711 147 722 146 q 696 149 704 149 q 678 150 688 149 q 661 151 668 151 q 647 153 654 151 l 617 154 l 615 149 q 615 140 615 147 q 614 122 615 133 q 614 97 614 111 q 613 67 614 82 q 611 40 611 51 q 610 19 611 28 q 608 -6 610 -1 q 604 -15 607 -12 q 597 -17 603 -17 q 591 -16 596 -17 q 578 -14 586 -15 q 542 -10 565 -12 q 521 -7 531 -8 q 504 -4 511 -6 q 488 0 490 -3 q 485 17 488 0 l 485 51 l 485 94 q 485 116 485 106 q 486 136 485 126 l 488 161 l 461 165 q 433 169 451 167 q 419 171 426 171 q 406 171 413 171 l 375 172 l 374 157 q 372 134 372 146 q 369 108 371 122 q 367 83 368 94 q 364 60 365 71 q 361 39 363 49 q 358 22 360 29 q 357 11 357 15 q 357 6 357 7 q 351 0 356 0 l 335 0 q 319 0 328 0 q 301 1 311 0 q 283 1 292 1 q 267 3 275 1 q 255 4 260 4 q 249 4 250 4 q 240 10 240 10 q 244 92 238 14 q 247 122 246 107 q 249 147 247 136 q 250 169 250 169 q 236 172 250 171 q 222 174 229 174 q 203 175 214 174 q 182 175 193 175 q 158 176 171 175 q 133 178 146 178 q 110 178 121 178 q 92 178 100 178 q 78 179 85 178 q 64 181 65 179 q 61 203 61 183 q 65 236 64 222 q 67 251 67 240 q 68 265 68 256 q 74 283 71 281 l 79 289 l 169 288 l 261 286 l 263 294 l 263 311 l 267 340 q 268 360 268 351 q 268 371 268 368 q 267 379 268 378 q 251 382 267 381 q 237 383 244 383 q 218 385 229 383 q 172 389 200 388 q 147 390 160 390 q 122 392 135 390 q 104 393 113 393 q 89 394 96 393 l 72 394 q 64 404 67 396 q 65 415 64 407 q 67 435 65 424 q 68 447 68 440 q 69 463 68 454 q 71 478 71 471 q 71 490 71 485 l 74 517 l 85 518 q 96 517 88 518 q 119 515 104 517 q 151 510 135 513 q 188 506 168 508 q 206 503 197 504 q 222 501 215 503 q 238 499 231 500 q 251 496 244 497 q 265 494 258 494 q 278 493 271 494 q 281 519 279 493 q 283 549 282 533 q 286 582 285 564 q 290 639 289 619 q 294 668 293 658 q 300 678 296 674 q 308 679 301 679 q 315 679 310 679 q 326 678 319 679 q 342 676 333 676 q 361 674 351 675 q 378 672 371 672 q 393 669 386 671 q 411 669 408 667 q 419 668 414 671 q 425 661 425 664 q 424 648 424 654 q 422 635 424 642 q 421 621 421 628 q 419 606 421 614 q 417 588 418 597 q 415 569 417 579 q 413 536 414 551 q 410 507 411 521 q 408 479 407 479 l 411 479 q 419 478 417 479 q 431 476 425 476 q 444 475 438 476 q 458 474 451 474 q 471 474 464 474 q 483 472 478 472 q 490 472 488 472 l 500 472 l 506 556 q 510 619 507 596 q 511 639 511 631 q 513 653 511 647 q 515 665 515 665 q 522 669 517 667 q 531 675 531 675 q 542 674 538 675 q 556 672 549 672 q 571 668 564 671 q 601 657 585 664 q 617 650 614 653 q 622 643 619 649 l 622 613 q 624 583 624 599 q 624 549 624 567 l 624 461 l 635 460 q 664 457 636 460 q 690 454 676 456 q 719 451 704 453 q 776 447 760 449 q 797 443 796 446 z "},"$":{"ha":585,"x_min":96,"x_max":554,"o":"m 354 90 q 394 172 394 118 q 357 290 394 226 q 347 304 351 297 q 339 318 343 311 q 332 326 332 329 q 332 321 332 325 q 331 308 332 317 q 331 288 331 299 q 329 265 331 278 q 329 240 329 253 q 328 211 329 226 q 326 183 326 196 q 325 157 326 169 q 325 133 325 143 q 324 113 325 122 l 324 92 l 324 75 l 333 79 q 354 90 343 81 m 254 728 q 254 779 257 772 q 242 778 253 785 q 224 747 225 768 q 232 697 222 725 q 238 685 235 690 q 243 676 240 681 q 251 671 249 668 q 253 689 253 672 q 254 707 254 697 q 254 728 254 717 m 550 231 q 553 179 554 206 q 549 133 553 150 q 479 39 532 75 q 347 0 425 1 l 318 -1 l 318 -14 q 311 -28 317 -26 q 279 -25 308 -29 q 262 -23 268 -24 q 253 -22 256 -22 q 244 -25 247 -22 q 238 -28 236 -28 q 232 -26 236 -29 q 228 -21 229 -24 l 228 -1 l 228 18 q 225 21 228 24 l 218 21 q 210 22 213 21 q 144 61 172 31 q 103 136 118 90 l 99 149 q 97 155 97 151 q 96 161 97 158 l 96 176 l 96 200 l 96 239 q 99 250 97 244 q 103 263 100 256 q 147 343 118 311 q 214 376 179 375 l 228 378 l 231 368 q 232 358 233 360 q 224 347 232 358 q 181 257 194 308 q 172 207 174 231 q 174 163 171 183 q 190 118 181 136 q 219 88 203 99 q 229 85 229 83 q 229 89 229 86 q 230 94 229 92 q 231 100 231 97 q 232 117 232 107 q 232 139 232 126 q 233 166 233 151 q 235 197 233 181 q 236 231 236 214 q 238 268 236 249 l 244 450 l 221 474 q 149 568 176 518 q 125 620 135 594 q 110 674 115 646 q 106 717 106 690 q 106 740 106 729 q 108 757 107 750 q 157 828 118 807 q 246 833 193 849 l 257 831 l 258 839 l 258 849 q 260 858 260 851 q 264 889 260 885 q 274 892 267 892 q 288 891 279 892 q 307 889 296 890 q 328 887 319 888 q 339 886 336 886 q 350 882 349 883 q 353 872 353 879 q 353 863 353 869 q 351 849 353 857 q 350 831 351 835 q 351 821 350 822 q 360 817 354 819 q 375 813 368 814 q 435 767 418 803 q 442 728 444 750 q 426 696 439 706 q 406 685 418 688 q 394 690 394 682 q 400 704 394 694 l 404 714 l 399 725 q 383 747 394 736 q 361 761 372 760 q 349 764 350 765 q 349 749 349 757 q 347 735 349 742 q 347 720 347 728 q 346 704 347 713 q 346 685 346 694 q 344 665 346 676 l 342 565 l 369 538 q 438 460 407 499 q 492 381 468 421 q 550 231 540 301 z "},"%":{"ha":747,"x_min":79,"x_max":719,"o":"m 122 760 q 128 813 118 785 q 168 863 140 844 q 231 882 196 882 q 322 842 282 882 q 361 751 361 799 q 330 674 361 704 q 253 643 299 643 q 206 652 228 643 q 166 677 183 661 q 137 715 149 693 q 122 760 125 736 m 629 628 q 616 608 622 617 q 604 589 610 599 q 542 499 572 544 q 485 407 513 453 q 466 378 474 390 q 453 357 458 365 q 440 338 446 347 q 428 317 435 328 q 416 298 421 306 q 408 285 411 290 q 360 207 382 247 q 319 126 339 167 q 291 74 311 110 q 248 0 271 39 q 202 -72 225 -39 q 167 -112 179 -104 q 128 -115 150 -124 q 79 -60 82 -99 q 82 -54 81 -57 q 85 -49 83 -51 q 89 -40 86 -46 q 101 -19 94 -32 q 118 8 108 -7 q 138 42 128 24 q 161 82 149 61 q 186 124 174 103 q 214 169 199 146 q 243 219 228 193 q 276 275 258 244 q 313 335 294 304 q 350 397 331 365 q 388 460 369 429 q 425 522 406 490 q 460 581 444 553 q 492 633 476 608 q 506 656 494 638 q 533 701 517 675 q 567 758 549 728 q 602 815 586 789 q 631 858 618 840 q 647 878 643 876 q 656 878 651 881 q 661 869 658 876 q 678 856 661 863 q 703 836 689 849 q 719 810 717 824 q 719 799 719 804 q 718 786 719 793 q 704 751 714 769 q 692 729 699 742 q 676 701 685 717 q 656 668 667 686 q 629 628 644 650 m 232 765 q 229 750 229 761 q 233 735 229 742 q 261 721 242 708 q 274 750 274 733 q 265 767 274 758 q 251 772 258 775 q 246 771 247 771 l 240 771 q 232 765 232 771 m 482 226 q 517 262 494 250 q 567 274 540 274 q 614 263 592 274 q 653 233 636 251 q 678 190 669 214 q 688 143 688 167 q 592 38 682 47 q 508 71 542 38 q 468 151 475 104 q 482 226 461 194 m 604 114 q 617 147 617 125 q 601 183 617 172 q 572 181 585 196 q 564 131 551 156 q 582 110 569 117 q 604 114 592 106 z "},"&":{"ha":689,"x_min":60,"x_max":640,"o":"m 413 144 l 390 185 q 380 203 385 193 q 368 226 375 214 q 356 250 361 239 q 344 271 350 261 q 336 290 339 285 q 328 304 331 296 q 324 312 325 308 q 321 318 322 315 l 319 317 q 317 314 318 315 q 314 310 317 313 q 306 301 310 306 q 296 289 301 296 q 285 276 290 282 q 275 263 281 269 q 265 250 269 256 q 258 240 261 244 q 215 165 233 206 q 190 100 197 128 q 249 43 176 25 q 394 129 308 57 l 413 144 m 393 707 q 382 660 383 682 q 378 601 378 635 q 378 588 378 594 q 379 571 378 581 q 379 553 379 561 q 381 535 379 544 q 383 517 382 525 q 385 503 383 510 q 386 492 386 496 q 388 485 386 488 q 399 492 390 483 q 433 531 407 500 q 482 594 464 565 q 511 653 499 622 q 506 774 539 732 q 468 792 488 793 q 393 707 422 785 m 454 69 q 449 71 451 74 q 426 57 443 68 q 276 -25 347 1 q 150 -46 203 -53 q 128 -42 133 -43 q 119 -39 124 -40 q 110 -35 115 -37 q 71 8 82 -21 q 67 74 60 36 q 96 157 74 111 q 158 251 119 203 q 171 266 164 258 q 186 283 178 274 q 203 301 194 293 q 222 319 213 310 q 241 338 232 329 q 260 356 250 346 q 278 371 269 364 q 296 385 288 378 l 293 392 q 292 400 292 393 l 288 408 q 271 465 278 438 q 261 517 264 492 q 256 571 257 542 q 256 633 254 600 q 256 659 256 649 q 257 676 256 669 q 259 689 258 682 q 263 703 260 696 q 268 724 265 714 q 274 740 271 733 q 278 754 276 747 q 283 768 281 761 q 290 780 286 775 q 296 790 293 785 q 303 800 299 796 q 313 810 307 804 q 471 882 376 878 l 496 882 q 514 878 500 881 q 554 857 538 871 q 586 814 571 843 q 610 757 601 782 q 614 696 617 729 q 597 622 611 653 q 578 587 590 606 q 549 547 567 568 q 534 529 542 538 q 518 511 526 521 q 500 492 508 501 q 483 476 492 483 l 454 447 q 432 429 442 436 l 428 426 l 433 411 q 442 393 436 401 q 446 381 444 386 q 450 369 447 375 q 454 359 451 365 q 460 343 457 353 q 475 304 465 325 q 482 285 478 294 q 489 268 486 276 q 494 253 492 258 q 499 244 497 247 q 504 238 503 238 l 506 240 q 508 242 507 242 q 511 246 510 243 q 517 255 514 250 q 525 267 521 260 q 532 278 528 272 q 539 289 536 283 q 544 298 542 294 q 547 304 546 301 q 561 317 554 317 q 582 300 568 315 l 610 272 l 619 263 q 621 254 621 260 q 617 239 621 247 q 608 227 614 235 q 592 208 601 219 q 585 198 589 203 q 576 188 581 193 q 567 176 571 181 q 561 168 564 171 q 546 149 550 150 q 553 132 544 147 q 563 109 556 124 q 581 74 569 94 q 610 13 599 39 q 628 -29 621 -12 q 636 -82 640 -62 q 619 -106 633 -93 q 594 -118 606 -118 q 576 -114 590 -115 q 565 -107 571 -112 q 553 -90 561 -103 q 535 -64 543 -78 q 517 -35 526 -50 q 498 -5 507 -19 q 479 25 489 10 q 463 54 469 40 q 454 69 456 68 z "},"(":{"ha":339,"x_min":44,"x_max":313,"o":"m 213 161 q 292 -19 243 35 q 300 -49 311 -40 q 290 -51 297 -54 q 267 -37 279 -49 q 245 -20 257 -31 q 219 4 233 -10 q 194 31 206 18 q 176 54 183 43 q 78 254 111 143 q 44 500 44 367 q 82 760 44 639 q 189 978 117 881 q 200 992 194 985 q 213 1006 206 999 q 227 1022 219 1014 q 242 1036 235 1029 q 256 1049 249 1043 q 269 1061 263 1056 q 289 1076 283 1072 q 301 1076 296 1081 q 311 1065 313 1069 q 297 1049 308 1060 q 254 985 272 1022 q 235 941 244 965 q 218 888 226 917 q 185 715 196 808 q 174 514 174 622 q 213 161 174 313 z "},")":{"ha":339,"x_min":43,"x_max":311,"o":"m 143 161 q 182 514 182 313 q 171 715 182 622 q 138 888 160 808 q 120 941 129 917 q 101 985 111 965 q 58 1049 83 1022 q 44 1065 47 1060 q 54 1076 43 1069 q 67 1076 61 1081 q 75 1070 69 1074 q 88 1061 81 1067 q 101 1049 94 1056 q 115 1036 108 1043 q 129 1022 122 1029 q 143 1006 136 1014 q 156 992 150 999 q 167 978 161 985 q 275 760 238 882 q 311 500 311 636 q 278 254 311 367 q 179 54 244 143 q 161 31 172 43 q 136 4 150 18 q 110 -20 122 -10 q 89 -37 99 -31 q 67 -51 76 -49 q 56 -49 58 -54 q 64 -19 46 -40 q 143 161 113 35 z "},"*":{"ha":457,"x_min":58,"x_max":396,"o":"m 365 582 q 353 572 360 576 q 338 560 346 567 q 322 547 328 553 q 308 538 315 542 l 282 515 l 292 504 q 383 400 383 408 q 372 382 383 393 q 353 371 358 371 q 349 372 350 371 q 345 375 347 374 q 340 379 343 376 q 321 394 335 383 q 306 408 314 400 q 288 426 299 415 l 272 442 q 265 446 265 449 q 264 443 265 444 q 263 432 264 438 q 260 417 261 425 q 257 399 260 408 q 251 365 254 376 q 247 350 250 353 q 238 347 247 350 q 219 346 233 346 q 208 344 213 344 q 200 344 203 344 q 192 347 197 344 q 188 361 190 349 q 183 410 188 371 q 183 431 183 421 q 182 451 182 442 q 179 469 179 469 q 167 460 178 468 q 152 447 160 454 q 136 433 144 440 q 93 400 101 404 q 79 401 83 394 q 76 408 79 403 q 73 413 74 411 q 69 415 72 414 q 63 440 58 429 q 68 444 64 442 q 79 454 72 447 q 94 467 86 460 q 113 481 103 474 q 131 494 124 488 q 146 507 139 501 q 161 518 161 518 l 160 521 q 153 529 158 524 q 144 541 149 535 q 133 554 139 547 l 108 583 q 97 596 101 590 q 88 606 92 601 q 79 619 79 617 q 96 640 79 624 q 106 649 103 646 q 111 654 108 653 q 122 657 117 657 q 135 654 129 657 q 156 638 142 650 l 179 617 l 181 649 l 182 681 l 192 682 q 204 681 197 682 q 224 676 210 679 q 234 674 229 675 q 244 671 239 672 q 255 668 251 669 q 261 665 258 667 l 267 664 l 265 622 q 265 608 265 615 q 264 594 264 601 q 265 585 264 588 q 265 582 265 583 l 279 592 q 287 597 283 594 q 296 601 290 599 q 314 613 306 607 q 349 635 336 626 q 367 643 365 643 q 374 639 369 643 q 378 634 376 636 q 383 629 381 632 q 393 618 390 622 q 396 610 396 610 q 390 601 396 607 q 365 582 388 597 z "},"+":{"ha":504,"x_min":14,"x_max":481,"o":"m 307 447 l 307 411 q 306 393 306 401 q 306 376 306 385 l 306 344 q 301 240 301 282 l 301 199 l 300 197 q 297 196 297 196 l 296 194 q 288 192 292 192 q 275 188 286 192 q 262 184 268 186 q 249 179 256 182 q 210 167 218 168 q 196 172 200 165 q 196 214 194 172 q 200 343 196 254 q 201 356 200 350 q 201 368 201 361 q 201 382 201 375 q 203 397 201 389 l 204 447 l 211 619 l 218 625 q 228 628 224 628 q 239 628 231 629 q 260 628 247 628 q 273 626 267 626 q 286 626 279 626 q 300 628 297 626 q 308 625 300 628 q 309 622 308 624 q 310 617 310 619 l 310 592 q 309 569 310 582 q 308 539 308 556 q 308 498 308 521 q 307 447 307 475 m 478 358 q 476 350 481 354 q 468 347 476 350 q 459 347 465 347 q 444 346 453 347 q 424 346 436 346 q 394 344 411 346 l 306 344 l 306 376 q 306 393 306 385 q 307 411 306 401 l 307 447 l 468 446 l 472 440 q 476 429 474 438 q 477 419 476 426 q 478 399 478 411 q 476 384 476 390 q 476 372 476 378 q 477 363 476 365 q 478 358 478 360 m 203 397 q 201 382 201 389 q 201 368 201 375 q 201 356 201 361 q 200 343 200 350 l 50 343 q 44 349 49 343 q 42 356 42 351 q 38 368 42 358 q 28 394 35 378 q 15 432 15 419 q 19 446 14 442 q 65 449 22 449 q 121 448 86 449 q 204 447 156 447 l 203 397 z "},",":{"ha":203,"x_min":7,"x_max":140,"o":"m 126 36 q 136 0 140 24 q 108 -47 132 -24 q 47 -90 83 -72 q 26 -100 28 -100 q 18 -96 22 -100 q 24 -75 7 -87 q 49 -33 39 -65 q 57 25 60 -4 q 58 43 53 38 q 78 43 63 44 q 92 42 81 42 l 106 42 q 126 36 115 42 z "},"-":{"ha":651,"x_min":74,"x_max":540,"o":"m 538 315 q 536 307 540 311 q 528 304 536 307 q 516 304 524 304 q 497 303 508 304 q 470 303 486 303 q 433 301 454 303 l 322 301 q 280 301 300 301 q 240 300 260 301 q 204 300 221 300 q 172 299 188 300 l 126 299 l 110 299 q 108 300 108 299 l 104 304 q 103 308 103 307 q 101 311 103 310 q 101 313 101 311 q 98 325 101 315 q 88 351 94 335 q 75 389 75 376 q 79 403 74 399 q 133 406 82 406 q 202 405 160 406 q 306 404 244 404 l 528 403 l 532 397 q 536 386 533 394 q 537 376 536 383 q 538 356 538 368 q 536 341 536 347 q 536 329 536 335 q 537 319 536 322 q 538 315 538 317 z "},".":{"ha":279,"x_min":60,"x_max":197,"o":"m 188 90 q 192 38 197 64 q 160 0 183 11 q 133 -7 149 -7 q 94 7 110 -6 q 71 40 79 19 q 69 92 60 68 q 124 132 85 131 q 161 122 143 135 q 188 90 178 111 z "},"/":{"ha":503,"x_min":13,"x_max":489,"o":"m 401 1044 q 408 1051 404 1051 q 421 1049 414 1051 q 433 1045 426 1047 q 447 1040 440 1043 q 478 1028 468 1033 q 488 1021 486 1022 q 489 1014 489 1019 q 486 1006 488 1011 q 482 994 485 1001 q 475 977 479 988 q 465 951 471 967 q 436 872 456 922 q 414 814 426 846 q 386 742 401 782 q 355 659 371 701 q 321 572 339 617 q 288 483 304 528 q 253 392 271 438 q 219 303 235 346 q 189 222 204 261 q 163 151 175 183 q 140 93 151 119 q 124 50 129 65 q 115 28 118 35 q 109 10 113 18 q 103 -4 106 3 q 99 -15 100 -11 q 96 -19 97 -18 q 88 -25 94 -25 q 81 -18 82 -25 q 76 -14 79 -17 q 68 -7 74 -11 q 58 3 63 -1 q 46 14 53 7 q 13 46 13 42 q 17 57 14 50 q 22 72 19 64 q 28 90 25 79 q 47 140 36 111 q 71 203 57 168 q 100 278 85 239 q 132 363 115 318 q 167 452 150 407 q 203 544 185 497 q 238 636 221 590 q 274 726 256 682 q 308 810 292 771 q 338 885 324 850 q 363 949 351 921 q 382 999 374 976 q 401 1044 401 1044 z "},":":{"ha":267,"x_min":89,"x_max":210,"o":"m 107 244 q 132 261 118 257 q 158 261 146 265 q 182 246 169 258 q 197 217 193 232 q 197 179 204 199 q 181 149 193 161 q 125 138 156 124 q 103 157 110 146 q 92 186 93 171 q 93 217 89 203 q 107 244 97 232 m 126 374 q 90 426 93 388 q 113 483 89 460 q 167 500 138 508 q 192 485 183 496 q 206 460 201 475 q 207 428 210 447 q 193 397 206 414 q 161 375 182 385 q 126 374 143 369 z "},";":{"ha":251,"x_min":76,"x_max":192,"o":"m 175 267 q 188 238 183 257 q 189 197 192 218 q 128 122 181 147 q 86 111 94 106 q 96 143 76 117 l 108 160 l 101 168 q 92 186 94 174 q 88 217 88 197 q 89 250 85 242 q 101 267 92 258 q 140 279 117 279 q 175 267 163 279 m 118 329 q 92 353 100 336 q 81 389 83 367 q 88 424 81 410 q 111 449 93 440 q 151 447 132 457 q 181 414 168 439 q 186 386 186 400 q 181 358 186 372 q 153 331 172 339 q 118 329 135 322 z "},"<":{"ha":506,"x_min":39,"x_max":486,"o":"m 485 174 q 483 163 486 172 q 478 150 481 158 q 468 131 475 142 q 462 116 465 122 q 456 103 458 110 q 450 89 450 89 q 446 82 450 86 q 436 78 442 78 q 426 85 431 78 q 329 150 424 90 q 308 164 319 157 q 285 178 297 171 q 260 194 272 186 q 235 210 247 203 q 210 226 222 218 q 186 242 197 233 q 163 256 174 249 q 142 269 153 263 q 115 287 126 279 q 94 300 104 294 q 78 311 85 307 q 65 319 71 315 q 51 329 54 328 q 47 335 47 333 q 43 343 47 342 q 47 354 39 346 q 60 368 50 360 q 85 392 69 376 q 95 401 89 396 q 108 413 101 406 q 125 427 117 419 q 143 443 133 435 q 162 460 153 451 q 182 478 171 468 q 201 495 192 486 q 219 513 211 504 q 255 544 239 529 q 286 572 271 558 q 318 601 317 599 q 331 610 326 610 q 336 608 333 610 q 346 604 339 607 q 360 598 353 601 q 374 592 367 594 q 401 578 392 583 q 413 569 410 572 q 401 549 417 563 q 389 537 399 546 q 364 513 379 528 q 289 446 331 483 q 269 428 278 436 q 250 411 260 419 q 233 396 242 403 q 218 382 225 389 q 202 369 210 375 q 188 356 194 363 q 196 347 188 354 q 215 331 201 340 q 229 320 222 325 q 243 308 236 315 q 256 297 250 303 q 269 288 263 292 q 330 244 301 264 q 386 210 358 225 q 468 179 443 179 q 474 178 472 179 l 476 178 l 481 178 q 485 174 485 178 z "},"=":{"ha":681,"x_min":65,"x_max":571,"o":"m 88 390 q 85 399 85 399 q 83 411 85 404 q 81 424 82 418 q 79 438 81 431 q 76 451 78 444 q 74 464 75 457 q 69 481 72 476 q 81 494 65 492 l 118 494 l 200 494 l 307 494 q 362 493 335 493 q 413 493 389 493 l 496 493 q 522 492 513 492 q 532 492 531 492 q 549 483 547 492 q 553 444 551 476 q 553 403 556 411 q 539 396 550 396 l 519 396 q 498 394 510 394 q 471 394 486 394 q 439 393 456 393 q 403 393 422 393 q 363 392 383 392 q 321 390 343 392 l 239 390 q 203 389 219 389 q 171 389 186 389 q 144 388 156 388 q 122 388 132 388 q 108 386 113 386 q 103 386 104 386 q 88 390 92 386 m 569 236 q 569 196 571 204 q 556 188 568 190 l 536 188 q 515 186 526 186 q 488 186 503 186 q 456 185 472 185 q 419 185 439 185 q 380 183 400 183 q 338 183 360 183 q 295 183 315 183 q 256 182 275 182 q 219 181 236 181 q 188 181 203 181 q 161 179 172 179 q 140 179 150 179 q 126 178 131 178 q 119 178 121 178 q 106 183 111 178 q 103 192 101 188 q 101 204 103 197 q 99 217 100 211 q 97 231 99 224 q 93 244 94 238 q 90 257 92 250 q 86 272 88 271 q 97 286 81 286 l 135 286 l 217 286 l 324 286 l 429 286 q 474 285 453 285 q 513 285 494 285 l 549 285 q 565 276 563 285 q 569 236 568 268 z "},">":{"ha":506,"x_min":42,"x_max":489,"o":"m 42 158 l 46 163 l 50 163 q 113 181 78 164 q 185 221 149 197 q 254 270 221 244 q 311 315 288 296 q 326 327 315 318 q 339 339 338 336 q 324 353 332 346 q 308 367 317 360 q 294 381 301 374 q 276 396 286 388 q 258 413 268 404 q 238 431 249 421 q 199 466 217 450 q 164 497 181 482 q 138 522 147 513 q 125 533 128 531 q 114 554 110 549 q 153 576 119 560 q 167 583 161 579 q 181 589 174 586 q 191 593 188 592 q 196 594 194 594 q 208 586 203 594 q 218 576 211 583 q 240 557 225 569 q 313 492 276 525 q 385 428 349 460 q 403 412 394 419 q 418 397 411 404 q 451 369 433 385 q 481 339 469 354 q 483 328 489 331 q 479 319 482 326 q 475 314 479 317 q 469 310 472 313 q 461 304 467 307 q 450 296 457 300 q 433 285 443 292 q 412 272 424 279 q 385 254 400 264 q 365 240 375 247 q 342 226 354 233 q 317 210 329 218 q 292 194 304 203 q 267 179 279 188 q 242 163 254 171 q 219 149 229 156 q 197 135 208 142 q 126 88 150 104 q 100 69 103 72 q 92 63 97 63 q 78 72 81 63 q 75 78 76 75 q 71 88 74 82 q 44 147 60 119 q 42 158 42 153 z "},"?":{"ha":614,"x_min":38,"x_max":596,"o":"m 575 851 q 542 649 596 765 q 500 569 525 614 q 473 527 486 547 q 446 488 460 507 q 416 446 431 467 q 390 404 401 425 q 371 367 379 383 q 358 339 363 351 q 351 304 353 324 q 347 269 347 283 q 343 254 347 258 q 328 247 344 254 l 299 235 q 285 229 292 232 q 271 224 278 226 q 260 219 264 221 q 254 218 256 218 q 243 224 251 218 q 236 239 239 231 q 232 265 233 247 q 256 394 229 329 q 269 429 263 414 q 283 458 276 444 q 325 519 299 488 q 335 532 331 526 q 343 544 339 538 q 350 556 347 551 q 356 564 353 561 l 376 606 l 401 660 q 422 714 413 689 q 431 738 428 728 q 436 756 433 749 q 443 858 451 819 q 428 893 436 883 q 397 915 417 907 q 379 924 385 924 l 351 924 q 331 924 340 924 q 315 921 322 924 q 281 907 301 918 q 208 849 235 885 q 160 751 178 811 q 153 727 156 739 q 147 704 150 715 q 139 657 142 683 q 137 631 138 644 q 138 601 136 617 q 143 560 140 568 q 143 546 146 550 q 133 543 140 543 q 120 542 129 543 q 96 542 111 542 q 50 544 53 542 q 46 561 49 549 q 43 580 44 568 q 40 608 42 592 q 39 622 39 615 q 39 636 39 628 q 38 653 38 644 q 38 669 38 661 q 38 686 38 678 q 39 703 38 694 q 39 718 39 711 q 40 731 39 725 q 143 950 54 865 q 201 989 167 974 q 272 1011 233 1004 q 349 1015 310 1019 q 422 1000 385 1014 q 479 975 456 989 q 522 939 504 960 q 557 896 543 919 q 575 851 571 875 m 324 136 q 333 126 331 132 q 338 101 336 122 q 342 75 340 86 q 346 57 344 64 q 345 46 346 50 q 343 38 344 42 q 335 26 340 31 q 324 22 332 24 q 304 15 315 19 q 272 8 279 8 q 257 15 264 8 q 236 90 244 28 l 231 124 l 236 129 q 247 135 242 135 q 258 135 250 135 q 281 138 267 136 q 303 140 294 140 q 315 140 313 140 q 324 136 322 140 z "},"@":{"ha":725,"x_min":88,"x_max":736,"o":"m 504 408 q 508 428 510 422 q 499 438 507 432 q 442 417 474 453 q 433 405 438 411 q 424 392 429 399 q 414 375 418 383 q 406 358 410 367 q 397 340 401 349 q 390 322 393 332 q 385 303 388 313 q 381 286 383 294 q 378 275 379 281 q 376 263 378 269 q 375 248 375 256 q 374 233 375 240 q 372 221 372 226 q 371 210 372 215 l 371 197 q 381 197 372 196 q 397 204 392 200 q 411 217 403 208 q 418 223 414 219 q 425 232 422 226 q 432 244 428 238 q 440 257 436 250 q 460 296 449 272 q 468 313 464 304 q 475 328 472 321 q 486 350 483 343 q 489 356 488 353 q 492 364 490 360 q 494 371 493 367 q 496 378 494 375 q 497 385 497 381 q 499 393 497 389 q 501 401 500 397 q 504 408 503 406 m 708 554 q 732 457 726 508 q 735 406 735 431 q 733 358 736 382 q 708 264 726 306 q 661 197 690 225 q 604 167 635 172 q 544 181 575 161 q 514 215 528 190 q 503 241 508 226 q 496 271 499 256 l 493 293 l 474 246 q 465 227 469 236 q 457 210 461 218 q 450 194 453 200 q 446 185 447 188 q 415 154 435 165 q 375 142 397 142 q 358 143 363 142 q 353 145 356 144 q 347 149 350 146 q 314 192 326 164 q 299 258 300 222 q 303 338 297 296 q 326 413 308 375 q 393 496 351 465 q 472 519 433 526 q 540 439 529 508 q 542 421 542 432 q 541 410 542 417 q 539 397 540 404 q 535 336 535 371 q 537 305 536 318 q 540 282 538 292 q 550 247 544 256 q 568 228 556 235 q 575 224 572 225 q 581 221 578 222 q 594 221 585 219 q 649 257 624 222 q 686 340 676 289 q 690 365 689 356 q 690 404 693 376 q 690 428 690 418 q 689 444 690 438 q 685 474 689 457 q 482 657 644 665 q 378 614 425 654 q 299 512 332 574 q 247 375 265 450 q 225 227 228 300 q 237 92 222 154 q 286 -7 251 29 q 376 -45 321 -43 q 510 0 432 -47 q 531 16 521 7 q 550 35 540 25 q 572 56 561 44 q 593 83 582 68 q 631 126 619 117 q 650 122 642 133 q 649 81 661 107 q 636 61 646 74 q 626 47 631 54 q 615 33 621 40 q 592 6 606 19 q 569 -17 579 -8 q 379 -110 460 -97 q 242 -92 299 -124 q 151 5 185 -61 q 103 147 118 71 q 89 300 88 224 q 104 431 90 376 q 167 560 124 501 q 268 658 211 618 q 390 717 325 699 q 515 725 454 735 q 628 674 576 715 q 708 554 679 633 z "},"A":{"ha":869,"x_min":43,"x_max":781,"o":"m 781 283 q 780 187 781 217 q 778 147 779 157 q 735 85 769 85 q 697 105 718 85 q 636 178 675 125 q 582 248 608 214 q 535 306 556 282 q 509 335 522 319 q 485 363 496 350 q 466 383 474 375 q 458 392 458 392 q 457 383 457 388 q 455 374 456 379 q 453 361 454 368 q 414 200 438 272 q 358 79 390 128 q 317 31 339 49 q 257 13 294 13 q 186 41 215 13 q 138 110 157 69 q 109 194 119 150 q 96 269 99 239 q 99 313 93 300 q 129 329 106 325 q 160 331 140 332 q 189 328 181 331 q 224 310 207 324 q 249 279 240 297 q 256 265 253 272 q 260 247 258 257 q 265 223 263 238 q 271 186 268 208 q 296 103 282 107 q 309 113 301 103 q 328 146 317 122 q 367 242 349 189 q 397 351 386 294 q 403 378 400 364 q 408 407 406 393 q 411 431 410 421 q 413 443 413 442 q 404 453 413 444 q 385 472 396 461 q 362 493 374 482 q 340 513 350 504 q 312 533 331 519 q 271 558 293 546 q 228 581 249 571 q 194 590 207 590 q 180 581 188 588 q 168 567 172 575 q 163 546 164 557 q 164 501 161 535 q 165 478 165 482 q 161 467 164 474 q 133 451 153 451 q 82 472 110 451 q 46 537 49 500 q 75 603 43 574 q 153 628 101 628 q 215 617 181 628 q 285 592 250 607 q 351 558 319 576 q 406 524 383 539 q 422 515 421 514 q 424 521 424 518 q 426 533 426 526 q 431 558 428 542 q 439 592 435 574 q 447 630 443 611 q 456 663 451 649 q 474 722 464 692 q 499 775 483 751 q 540 813 515 799 q 600 828 564 828 q 667 812 632 828 q 721 767 703 796 q 744 706 735 743 q 760 625 754 669 q 771 533 767 581 q 777 439 775 485 q 780 353 779 393 q 781 283 781 313 m 615 356 q 609 462 615 408 q 588 599 603 515 q 580 640 583 615 q 574 683 576 665 q 556 753 564 751 q 538 738 549 753 q 522 707 528 724 q 501 624 513 681 q 478 504 489 568 l 472 472 l 496 451 q 521 426 506 442 q 549 396 536 410 q 590 355 568 375 q 614 335 611 335 q 615 341 615 335 q 615 356 615 347 z "},"B":{"ha":754,"x_min":83,"x_max":678,"o":"m 664 265 q 654 136 678 197 q 565 42 629 75 q 404 7 501 10 q 372 7 385 7 q 350 10 360 7 q 210 76 263 22 q 128 203 157 129 q 92 359 100 276 q 83 513 83 442 q 83 558 83 538 q 85 595 83 578 q 88 631 86 613 q 92 674 89 650 q 99 735 96 714 q 103 766 101 756 q 108 780 106 776 q 115 788 111 783 q 147 803 131 803 q 174 796 160 803 q 200 778 188 789 q 223 756 213 768 q 239 733 233 743 q 258 689 250 715 q 272 633 267 663 q 274 619 274 625 q 276 602 275 613 q 276 573 276 592 q 276 522 276 554 q 276 441 276 482 q 274 376 275 400 q 272 310 271 333 q 276 261 272 286 q 288 217 281 240 q 297 190 294 193 q 304 204 300 190 q 311 231 308 218 q 313 260 311 236 q 318 313 315 285 q 332 466 325 410 q 347 563 339 522 q 352 591 350 576 q 356 613 354 606 q 370 682 361 644 q 397 752 379 719 q 440 806 414 785 q 507 828 467 828 q 615 785 575 828 q 654 676 654 743 q 618 529 654 596 q 522 411 582 463 q 518 407 518 410 q 537 394 524 401 q 565 378 550 386 q 630 333 606 356 q 664 265 654 311 m 383 419 q 379 401 379 406 q 395 417 382 401 q 417 444 408 433 q 472 550 450 493 q 493 665 493 607 q 488 706 493 689 q 475 722 482 722 q 457 707 468 722 q 436 668 446 692 q 428 647 432 658 q 420 617 424 635 q 413 574 417 600 q 401 511 408 549 q 391 453 396 479 q 383 419 386 426 m 531 192 q 525 244 539 217 q 482 301 510 276 q 418 333 454 325 q 391 338 407 336 q 372 339 375 340 q 369 321 369 339 q 367 301 368 314 q 364 278 367 289 q 354 189 357 218 q 351 142 351 160 q 353 123 353 131 q 354 113 353 115 q 369 105 357 107 q 389 103 382 103 q 417 103 401 103 q 439 107 432 104 q 469 122 451 113 q 496 139 488 132 q 517 165 506 149 q 531 192 528 181 z "},"C":{"ha":658,"x_min":76,"x_max":583,"o":"m 579 289 q 583 283 582 286 q 582 261 583 279 q 580 238 582 251 q 576 209 578 224 q 571 181 574 194 q 565 161 568 168 q 539 106 557 133 q 501 63 521 78 q 428 31 474 42 q 340 24 383 19 q 257 47 297 28 q 188 99 217 67 q 147 156 168 119 q 111 226 125 192 q 92 288 100 254 q 79 356 83 322 q 77 385 78 368 q 76 421 76 403 q 78 456 76 439 q 81 486 79 474 q 97 562 86 524 q 122 633 108 600 q 152 694 136 667 q 183 735 168 721 q 223 760 199 749 q 272 775 247 771 q 294 778 281 776 q 320 780 307 779 q 344 781 333 781 q 361 779 356 781 q 409 766 382 776 q 457 742 436 756 q 488 715 469 733 q 517 682 506 697 q 560 581 550 636 q 565 542 563 565 q 567 494 567 518 q 567 453 568 471 q 563 431 565 435 q 556 427 561 429 q 544 424 550 425 q 533 422 538 422 q 526 422 528 421 q 514 474 522 425 q 497 542 507 511 q 471 606 488 572 q 427 674 449 649 q 390 699 406 699 q 336 625 369 699 q 319 584 326 604 q 307 541 313 564 q 297 491 301 518 q 286 428 292 464 q 279 338 279 375 q 286 263 279 301 q 367 128 300 171 q 433 108 406 103 q 506 165 474 119 q 527 208 521 189 q 538 260 533 226 q 540 280 539 271 q 542 290 542 289 q 560 296 547 296 q 579 289 574 296 z "},"D":{"ha":831,"x_min":79,"x_max":796,"o":"m 749 746 q 792 571 796 682 q 773 442 790 515 q 728 296 756 369 q 665 157 700 222 q 592 54 629 92 q 555 25 572 35 q 514 10 538 15 q 474 6 500 7 q 429 7 449 4 q 387 13 406 10 q 357 19 368 15 q 342 24 346 24 q 333 22 339 25 q 297 17 318 17 q 201 44 240 17 q 135 115 161 72 q 97 210 110 158 q 81 308 85 261 q 80 337 81 319 q 79 372 79 354 q 80 407 79 390 q 81 433 81 424 q 105 572 88 508 q 157 715 122 636 q 169 744 164 732 q 174 757 175 756 q 182 768 178 758 q 200 790 189 779 q 221 807 211 801 q 247 813 232 813 q 295 799 271 813 q 331 764 319 786 q 337 722 338 747 q 325 653 336 696 q 278 417 297 536 q 258 178 258 299 q 262 131 258 154 q 271 94 265 107 q 281 81 275 88 q 292 75 288 75 q 296 76 294 75 q 297 86 297 78 q 308 239 297 149 q 338 424 318 329 q 387 604 358 518 q 451 746 415 690 q 513 806 476 785 q 597 828 550 828 q 679 805 638 828 q 749 746 721 782 m 569 596 q 576 663 575 638 q 572 696 576 689 q 549 692 567 706 q 527 667 540 685 q 503 631 514 649 q 461 549 482 597 q 423 445 440 501 q 391 328 406 389 q 368 211 376 268 q 364 183 367 203 q 358 142 361 163 q 353 105 356 121 q 351 88 351 89 q 374 81 351 86 q 397 74 394 76 q 418 76 401 72 q 485 138 461 88 q 510 207 499 163 q 529 301 521 251 q 544 399 538 351 q 554 481 550 447 q 562 543 557 510 q 569 596 567 576 z "},"E":{"ha":644,"x_min":69,"x_max":557,"o":"m 538 299 q 552 283 547 301 q 557 232 557 264 q 512 97 557 153 q 389 24 467 42 q 338 17 368 18 q 288 21 308 17 l 288 21 q 203 51 242 29 q 137 103 165 72 q 92 172 108 133 q 72 253 75 210 q 114 385 69 329 q 145 417 126 401 q 179 440 164 433 q 188 444 186 443 q 185 449 189 444 q 174 460 181 453 q 106 601 110 521 q 135 714 103 661 q 225 794 167 767 q 319 819 269 817 q 417 806 368 822 q 493 760 460 792 q 517 726 506 746 q 529 697 529 707 q 517 678 529 683 q 489 679 504 672 q 474 688 486 681 q 447 706 461 696 q 403 733 418 725 q 378 742 389 740 q 361 739 368 742 q 346 728 354 736 q 317 672 326 706 q 308 610 308 638 q 328 530 308 565 q 385 471 349 494 q 402 460 392 467 q 423 449 413 454 q 443 438 433 443 q 457 432 453 433 q 472 417 472 426 q 467 408 472 413 q 458 401 463 403 q 440 404 454 401 q 301 365 358 426 q 261 286 269 332 q 259 246 258 271 q 264 206 260 221 q 324 126 281 151 q 417 115 368 100 q 479 160 453 128 q 514 238 506 193 q 516 251 515 242 q 515 268 517 260 q 517 289 515 285 q 528 296 519 293 q 538 299 532 296 z "},"F":{"ha":694,"x_min":36,"x_max":665,"o":"m 629 461 q 650 456 636 461 q 665 444 664 451 q 631 419 657 443 q 567 351 604 394 q 544 326 556 339 q 528 308 533 314 q 513 290 522 301 q 493 268 503 279 q 465 238 476 249 q 438 219 453 228 q 431 215 433 217 q 428 208 429 214 q 428 188 428 201 q 429 144 428 174 q 431 92 431 113 q 428 57 431 71 q 422 35 426 43 q 411 19 418 26 q 343 4 385 -4 q 301 25 315 11 q 283 62 290 36 q 272 140 276 88 q 272 152 272 147 q 271 161 271 157 l 269 169 q 246 174 268 171 q 176 191 206 176 q 119 233 147 206 q 60 325 83 271 q 36 425 36 379 q 37 445 36 440 q 40 457 38 450 q 49 468 44 465 q 71 474 54 471 q 106 476 89 476 q 133 474 124 476 q 165 444 154 467 q 173 427 169 438 q 185 388 176 417 q 192 363 188 378 q 203 331 197 347 q 213 303 208 315 q 221 285 218 290 q 253 249 235 258 q 267 243 267 243 q 267 257 267 244 q 265 288 267 269 q 265 328 265 301 q 264 390 264 356 q 264 460 264 424 q 265 527 264 496 q 266 582 265 558 q 267 613 267 606 q 272 650 269 633 q 279 678 275 667 q 291 705 283 692 q 304 721 299 718 q 333 722 307 721 q 397 724 360 724 q 477 726 435 725 q 553 726 519 726 l 625 726 l 628 722 q 631 694 635 717 q 623 681 628 683 q 590 681 618 679 q 552 679 578 681 q 501 676 526 678 q 456 673 475 675 q 438 671 438 671 q 436 644 438 658 q 436 615 436 632 q 435 579 436 599 q 434 541 435 561 q 433 502 433 521 q 431 468 432 483 q 431 443 431 453 q 428 395 429 422 q 427 344 428 368 q 426 305 426 321 q 426 289 426 289 q 444 301 429 289 q 468 325 458 314 q 485 343 475 331 q 506 367 496 356 q 529 395 515 379 q 559 426 543 411 q 593 451 575 440 q 629 461 611 461 z "},"G":{"ha":761,"x_min":56,"x_max":676,"o":"m 669 626 q 674 561 672 603 q 675 453 676 519 q 674 376 675 408 q 669 315 672 343 q 660 262 665 288 q 647 206 656 236 q 592 85 628 129 q 478 24 557 42 q 431 17 460 18 q 383 19 401 17 q 332 34 358 24 q 289 56 306 44 q 247 97 265 71 q 226 151 228 122 l 226 168 l 236 176 q 250 189 243 185 q 275 197 256 192 q 300 201 294 201 q 321 181 311 201 q 348 136 332 160 q 378 100 364 113 q 416 81 397 81 q 450 99 435 81 q 476 153 465 119 q 492 240 486 188 q 495 271 493 251 q 499 310 497 290 q 501 347 500 331 q 503 368 503 364 l 503 376 l 492 369 q 437 344 469 354 q 369 328 404 333 q 322 325 353 325 q 272 328 292 325 q 188 352 228 335 q 119 397 149 369 q 73 463 90 425 q 56 549 56 501 q 70 628 56 590 q 111 695 85 665 q 173 745 138 725 q 250 771 208 765 q 322 776 286 776 q 375 769 357 775 q 474 668 431 753 q 488 634 485 647 q 492 604 492 621 q 491 586 492 592 q 486 569 490 581 q 478 553 479 556 q 472 550 476 550 q 467 553 469 550 q 461 571 465 557 q 450 604 457 589 q 429 643 443 619 q 397 692 410 679 q 368 714 385 706 q 295 694 329 733 q 239 567 261 654 q 230 525 232 540 q 228 486 228 510 q 234 435 228 454 q 256 400 240 415 q 290 379 271 385 q 340 375 308 374 q 382 379 364 376 q 417 387 400 382 q 451 401 433 392 q 490 424 468 410 l 508 435 l 510 444 q 513 466 511 447 q 517 508 514 485 q 528 599 522 561 q 536 649 533 638 q 535 657 531 650 q 547 669 540 664 q 611 688 569 688 q 669 626 658 688 z "},"H":{"ha":1099,"x_min":56,"x_max":1046,"o":"m 1044 424 q 1031 378 1046 393 q 1013 366 1024 371 q 990 358 1001 361 q 947 367 969 356 q 914 397 924 378 q 911 460 904 419 q 913 492 915 483 q 901 500 911 500 q 883 494 894 500 q 863 479 872 488 q 853 469 854 472 q 850 457 851 465 q 842 376 846 413 q 832 292 839 340 q 825 229 828 254 q 820 183 822 204 q 817 143 818 163 q 815 97 817 124 q 810 31 813 47 q 800 7 807 15 q 792 2 794 3 q 783 1 790 1 q 747 9 769 1 q 714 24 725 17 q 681 72 689 38 q 678 126 678 83 q 682 256 679 169 q 686 353 685 326 q 685 381 688 381 q 679 378 682 379 q 668 371 676 376 q 593 338 633 351 q 513 319 553 325 q 507 283 511 314 q 498 215 503 253 q 489 143 493 178 q 482 97 485 108 q 469 67 478 76 q 446 51 461 57 q 406 43 425 44 q 378 46 388 42 q 351 73 363 53 q 333 122 340 93 q 328 169 328 142 q 332 253 328 197 q 334 278 333 267 q 335 300 335 290 q 336 319 336 310 q 324 321 336 321 q 291 323 310 319 q 242 338 272 326 q 198 354 214 347 q 163 374 182 361 q 108 421 129 396 q 75 475 86 446 q 60 537 64 504 q 56 607 56 569 q 56 648 56 636 q 60 675 57 660 q 67 712 63 694 q 76 738 72 729 q 81 745 79 744 q 90 746 83 746 q 126 737 104 746 q 157 719 147 728 q 174 691 168 708 q 186 631 179 674 q 193 590 189 611 q 201 548 197 568 q 209 513 206 528 q 214 492 213 499 q 326 365 244 394 l 339 360 l 339 372 q 344 442 340 382 q 351 582 347 501 q 354 637 353 614 q 358 676 356 660 q 363 705 360 693 q 368 728 365 717 q 375 738 369 732 q 388 749 381 744 q 464 736 413 760 q 542 649 525 708 q 545 630 544 639 q 546 594 546 621 q 543 535 546 563 q 533 469 540 507 q 526 421 529 442 q 519 386 522 400 q 515 360 517 371 q 528 362 517 358 q 556 370 540 365 q 588 381 572 375 q 610 390 603 386 q 634 406 618 394 q 669 433 650 418 l 690 451 l 692 469 q 707 599 696 532 q 732 710 718 665 q 737 724 735 719 q 746 732 739 728 q 781 740 758 744 q 826 715 807 735 q 850 671 844 696 q 855 629 853 658 q 856 571 857 600 l 854 539 l 869 547 q 933 567 904 565 q 950 566 946 567 q 964 561 954 565 q 1022 503 1003 542 q 1044 424 1042 465 z "},"I":{"ha":606,"x_min":40,"x_max":572,"o":"m 214 6 q 119 31 160 13 q 54 101 79 49 q 44 130 47 118 q 42 154 40 142 q 67 203 44 186 q 119 224 89 219 q 174 217 143 226 q 224 190 206 207 l 233 182 l 233 194 q 232 225 233 200 q 228 281 231 250 q 220 387 224 340 q 215 473 217 433 q 213 550 214 513 q 213 629 213 588 q 218 764 213 749 q 229 778 221 768 q 243 790 238 788 q 289 798 260 799 q 338 788 318 797 q 376 749 365 774 q 390 696 388 724 q 391 643 390 688 q 393 534 392 599 q 395 395 394 469 q 396 253 396 321 q 396 199 396 219 q 394 166 396 179 q 391 144 393 153 q 385 122 389 135 q 379 106 379 111 q 403 97 379 104 q 465 93 442 85 q 494 116 485 99 q 506 172 503 133 q 510 206 508 192 q 515 222 513 219 q 522 225 518 225 q 533 224 526 225 q 547 220 540 222 q 560 216 554 218 q 567 213 565 214 q 572 194 572 208 q 563 128 571 181 q 551 90 558 104 q 525 61 544 76 q 499 44 513 51 q 475 35 486 38 q 450 33 467 33 q 415 34 433 33 q 380 37 397 35 q 354 42 363 39 q 339 46 343 44 q 326 39 336 46 q 294 18 310 25 q 256 7 279 11 q 233 3 243 4 q 214 6 224 3 m 147 147 q 147 124 142 140 q 168 83 153 107 q 199 57 188 57 q 222 76 214 57 q 231 108 231 96 q 222 114 226 111 q 215 120 219 117 q 203 128 210 124 q 165 151 176 147 q 147 147 154 154 z "},"J":{"ha":469,"x_min":50,"x_max":418,"o":"m 410 525 q 416 449 414 482 q 417 385 418 417 q 412 321 415 354 q 401 244 408 288 q 389 183 397 217 q 368 117 381 149 q 337 57 356 85 q 290 14 318 29 q 248 -1 271 3 q 206 -1 225 -6 l 206 -1 q 186 4 193 1 q 176 7 183 4 q 158 13 168 10 q 106 30 125 21 q 76 51 88 39 q 53 100 57 74 q 64 150 50 126 q 86 168 74 168 q 94 167 92 168 q 101 160 97 165 q 108 142 104 154 q 118 108 111 131 q 133 78 122 93 q 156 60 144 64 q 172 57 163 57 q 186 60 181 57 q 201 72 193 63 q 214 92 208 81 q 229 346 242 156 q 226 415 228 369 q 224 506 225 461 q 223 578 224 547 q 221 611 222 610 q 206 603 218 622 q 169 553 188 581 q 128 488 151 525 q 115 465 121 475 q 106 451 108 454 q 85 443 101 447 q 72 440 78 442 q 63 436 65 439 q 53 438 53 432 q 60 458 53 442 q 78 498 67 475 q 103 549 89 521 q 133 603 118 576 q 157 647 144 624 q 176 681 169 669 q 187 700 182 692 q 194 711 192 708 q 231 724 201 718 q 283 728 260 729 q 382 660 356 724 q 399 607 393 635 q 410 525 404 579 z "},"K":{"ha":696,"x_min":83,"x_max":631,"o":"m 618 282 q 628 243 625 274 q 628 186 631 213 q 574 90 622 114 q 545 85 563 86 q 514 88 528 85 q 465 111 492 93 q 412 152 438 129 q 363 199 386 175 q 324 243 340 224 q 310 256 310 260 q 310 245 310 254 q 313 225 311 236 q 317 195 315 214 q 321 161 318 176 q 324 127 322 146 q 328 97 326 108 q 330 59 332 69 q 317 42 328 49 q 253 36 294 25 q 203 60 221 44 q 169 108 185 76 q 144 176 156 136 q 117 288 132 217 q 95 404 103 350 q 85 507 88 458 q 87 601 83 556 q 99 690 90 646 q 114 747 107 728 q 129 772 121 765 q 181 775 140 781 q 240 757 219 769 q 274 717 260 744 q 282 695 279 706 q 286 668 285 685 q 288 625 288 651 q 289 554 289 599 q 290 483 289 518 q 290 433 290 447 q 297 384 293 408 q 303 353 300 360 q 308 350 304 346 q 328 374 314 353 q 353 418 342 396 q 386 490 369 447 q 417 580 403 533 q 443 672 432 626 q 458 750 454 717 q 464 765 458 760 q 469 769 467 768 q 481 768 472 769 q 499 767 486 768 q 526 765 513 767 q 562 761 553 763 q 579 754 571 760 q 597 719 593 744 q 594 658 601 694 q 584 620 592 644 q 566 568 576 596 q 544 513 556 540 q 521 465 532 486 q 492 413 507 438 q 465 372 476 388 q 451 357 460 367 q 434 338 443 347 q 417 322 425 329 q 404 313 408 315 q 396 304 396 304 q 399 296 396 303 q 407 281 403 289 q 416 263 411 272 q 425 249 421 254 q 449 219 435 233 q 474 194 463 204 q 500 178 483 188 q 528 169 517 169 q 547 180 540 169 q 558 205 554 190 q 562 234 561 219 q 563 257 563 249 q 564 287 563 281 q 572 297 565 293 q 578 299 575 300 q 589 296 581 299 q 618 282 613 290 z "},"L":{"ha":575,"x_min":49,"x_max":525,"o":"m 525 224 q 513 183 525 208 q 490 146 501 157 q 463 125 479 136 q 435 110 446 114 q 394 100 413 101 q 340 101 376 99 q 323 103 331 103 q 314 103 315 104 q 301 86 311 103 q 253 37 283 61 q 190 13 222 13 q 137 27 164 13 q 93 61 110 42 q 68 149 58 107 q 104 190 78 178 q 117 194 111 193 q 135 193 122 194 q 165 190 150 193 q 194 181 181 188 q 194 186 194 183 q 193 200 194 196 q 185 301 186 240 q 183 335 183 317 q 181 367 182 354 q 178 413 179 382 q 178 476 178 443 q 178 536 178 508 q 179 571 179 564 l 181 585 l 164 582 q 121 565 142 576 q 89 533 100 553 q 76 515 81 519 q 65 510 71 510 q 51 521 54 510 q 56 547 49 532 l 57 550 q 114 601 71 581 q 174 617 149 618 l 188 615 l 190 625 q 197 637 193 628 q 206 656 200 646 q 215 677 210 665 q 224 696 221 689 q 247 745 235 722 q 286 782 260 768 q 335 799 306 793 q 393 804 364 804 q 477 781 444 804 q 510 699 510 757 q 481 618 508 649 q 408 571 454 588 l 385 563 l 382 533 q 380 509 381 521 q 378 490 379 497 q 372 430 375 476 q 365 326 368 383 q 363 282 364 299 q 360 255 361 265 q 359 238 360 244 q 357 226 358 232 q 351 192 356 214 q 340 160 346 171 q 338 148 338 150 q 342 144 338 146 q 372 140 357 140 q 412 145 392 140 q 443 158 432 150 q 458 174 453 165 q 476 208 464 183 q 487 232 482 222 q 494 243 492 242 q 517 239 504 251 q 525 224 524 232 m 383 625 q 385 607 383 615 q 389 599 386 599 q 405 603 393 599 q 417 610 417 607 q 421 624 417 615 q 429 653 426 635 q 431 692 432 672 q 430 710 431 706 q 426 718 429 715 q 413 715 419 726 q 394 676 403 704 q 383 625 386 649 m 206 86 q 233 101 217 92 q 249 114 249 111 q 238 119 249 114 q 219 126 232 121 q 194 139 207 132 q 158 154 164 154 q 134 145 147 154 q 118 125 121 136 q 134 99 118 110 q 161 83 150 88 q 181 79 172 79 q 206 86 188 79 z "},"M":{"ha":983,"x_min":86,"x_max":1006,"o":"m 1006 219 q 1005 200 1006 214 q 1003 171 1004 186 q 1001 140 1003 156 q 997 117 999 125 q 952 41 985 64 q 867 18 919 18 q 779 65 818 18 q 724 184 735 118 q 711 315 713 250 l 711 372 l 694 360 q 669 343 676 346 q 642 340 661 340 q 555 374 592 340 q 506 456 518 408 q 501 478 503 468 q 498 500 499 488 q 498 530 497 513 q 499 574 499 547 q 499 631 499 615 q 496 661 499 647 q 492 691 493 682 q 486 711 490 700 l 482 721 l 472 711 q 458 691 464 703 q 447 667 451 679 q 435 599 442 646 q 426 503 429 551 q 425 469 426 488 q 424 439 424 451 q 422 376 422 426 q 421 267 421 325 q 420 179 421 213 q 419 126 419 146 q 417 94 418 106 q 413 75 415 83 q 404 51 410 64 q 394 32 399 38 q 364 10 383 19 q 329 4 344 1 q 251 39 286 13 q 190 103 217 65 q 144 188 164 142 q 113 282 125 235 q 94 374 100 329 q 86 456 88 419 q 89 524 86 482 q 101 610 92 567 q 126 689 110 653 q 171 738 143 725 q 192 745 186 744 q 214 746 199 746 q 286 722 257 746 q 325 656 315 697 q 330 616 329 636 q 326 568 331 596 q 324 548 325 558 q 324 532 324 538 q 323 515 324 528 q 321 492 322 503 q 319 463 319 479 q 317 436 318 447 q 315 410 315 425 q 313 386 314 396 q 310 325 311 357 q 308 264 308 293 q 310 210 308 235 q 313 168 311 185 q 317 148 314 160 q 326 124 321 136 q 340 105 332 113 q 360 97 349 97 l 361 99 q 363 113 363 99 q 365 149 364 128 q 365 197 365 171 q 365 247 365 222 q 366 380 364 313 q 372 507 368 447 q 383 614 376 567 q 396 683 389 661 q 490 790 419 758 q 526 801 511 801 q 535 801 531 801 q 547 799 540 800 q 588 780 575 793 q 615 731 600 767 q 639 608 631 693 q 643 578 640 599 q 650 535 646 557 q 657 497 654 514 q 661 479 660 481 q 668 485 663 479 q 689 511 674 490 q 710 536 697 522 q 737 563 722 550 q 767 583 751 575 q 799 592 783 592 q 831 585 814 592 q 851 571 839 582 q 871 549 864 560 q 887 508 881 533 q 894 456 893 483 q 894 438 894 446 q 894 416 894 429 q 891 382 893 403 q 885 328 889 361 q 876 208 876 261 q 882 128 875 156 q 889 105 885 114 q 896 96 893 96 q 915 110 903 96 q 932 135 928 124 q 936 149 935 139 q 940 167 938 158 q 943 190 943 181 q 943 215 943 199 q 942 238 942 232 q 944 249 942 244 q 972 268 953 268 q 997 251 992 268 q 1006 219 1003 233 m 283 85 q 286 86 289 81 q 283 85 283 86 z "},"N":{"ha":768,"x_min":81,"x_max":754,"o":"m 718 179 q 743 172 732 182 q 751 149 754 163 q 746 131 750 143 q 735 105 742 118 q 722 78 729 92 q 710 58 715 65 q 690 38 704 51 q 669 19 676 24 q 638 5 657 11 q 611 1 618 -1 q 587 11 600 4 q 564 28 574 18 q 556 38 561 31 q 544 52 550 44 q 534 67 539 60 q 526 79 529 75 q 513 115 521 89 q 501 158 504 140 q 497 187 499 174 q 494 223 494 200 q 494 283 493 246 q 494 381 494 319 l 494 561 q 492 585 493 581 q 489 592 492 589 l 486 596 l 482 590 q 460 511 471 572 q 452 474 457 496 q 444 436 447 451 q 437 397 442 421 q 428 353 432 372 q 421 313 425 333 q 414 281 417 292 q 400 208 406 239 q 392 160 394 178 q 383 103 388 124 q 368 64 378 82 q 340 37 360 47 q 300 26 321 26 q 234 47 271 26 q 163 104 197 68 q 132 143 143 125 q 110 193 121 161 q 95 233 100 218 q 88 265 90 249 q 83 300 85 281 q 82 353 82 319 q 81 398 81 381 q 81 428 81 415 q 83 453 82 442 q 88 479 85 465 q 90 499 89 489 q 93 517 92 510 q 97 538 93 524 q 103 568 100 553 q 108 594 106 582 q 111 608 111 606 q 117 628 113 615 q 126 653 121 640 q 138 676 131 665 q 153 688 144 686 q 165 688 157 688 q 182 687 172 688 q 200 685 192 686 q 214 682 208 683 q 289 613 275 661 q 293 563 293 599 q 290 494 293 526 q 284 390 283 443 q 292 294 285 336 q 294 274 293 285 q 296 257 296 264 q 300 230 297 246 q 311 175 303 214 q 322 140 315 157 q 331 122 328 122 q 333 132 332 122 q 339 175 335 142 q 342 197 340 185 q 346 219 343 210 q 351 242 349 229 q 354 264 353 254 q 358 285 357 272 q 363 307 360 297 q 369 333 365 315 q 375 365 372 350 q 383 403 378 381 q 390 443 388 426 q 398 482 393 460 q 406 519 403 504 q 417 573 411 549 q 431 610 424 597 q 456 645 439 629 q 493 668 474 661 q 529 675 508 675 q 565 671 550 675 q 607 649 590 664 q 633 615 624 635 q 648 573 643 596 q 656 526 653 550 q 659 506 657 518 q 663 482 661 493 q 667 451 665 465 q 671 415 669 436 q 672 358 672 393 q 672 265 672 324 q 673 158 672 199 q 675 115 674 118 l 676 110 l 683 122 q 689 135 686 128 q 694 150 692 143 q 718 179 706 175 z "},"O":{"ha":628,"x_min":72,"x_max":553,"o":"m 553 386 q 548 302 553 344 q 531 219 543 260 q 499 141 519 178 q 447 75 479 104 q 380 35 417 47 q 307 28 343 22 q 210 79 251 39 q 140 172 168 119 q 97 284 113 225 q 78 392 82 343 q 77 499 72 446 q 95 599 82 551 q 129 687 108 647 q 176 753 150 726 q 261 804 214 790 q 276 806 268 806 q 296 807 285 807 q 392 778 350 807 q 464 705 433 749 q 514 609 494 661 q 542 513 533 557 q 548 481 546 494 q 551 455 550 468 q 552 426 551 442 q 553 386 553 410 m 496 325 q 498 358 497 338 q 498 399 499 378 q 497 440 497 419 q 493 472 496 460 q 425 667 476 588 q 415 679 419 674 q 408 688 411 685 q 403 690 406 690 q 394 683 401 689 q 326 592 354 657 q 288 439 297 526 q 285 406 286 425 q 285 367 285 388 q 285 326 285 346 q 288 293 286 307 q 310 182 294 235 q 347 92 325 129 q 352 84 350 85 q 357 85 354 83 q 374 90 363 85 q 453 174 421 111 q 496 325 486 236 z "},"P":{"ha":746,"x_min":85,"x_max":697,"o":"m 681 675 q 687 647 683 665 q 692 607 690 628 q 696 568 694 586 q 697 540 697 550 q 690 497 694 522 q 681 456 686 472 q 651 390 669 422 q 607 331 632 357 q 551 286 582 304 q 483 263 519 268 q 444 260 469 261 q 411 261 419 260 l 403 263 l 403 236 q 402 208 403 225 q 400 181 401 192 q 397 153 397 167 q 397 128 397 140 q 397 92 399 106 q 389 63 396 78 q 379 42 383 49 q 368 29 375 35 q 342 19 358 19 q 331 20 336 19 q 319 22 326 21 q 230 60 268 31 q 164 131 192 90 q 119 221 136 172 q 94 315 103 269 q 90 347 92 333 q 87 374 88 360 q 85 403 86 388 q 85 444 85 419 q 85 489 85 469 q 88 526 86 508 q 92 563 89 544 q 99 601 94 581 q 108 647 103 622 q 121 695 114 671 q 135 740 128 719 q 146 769 142 760 q 189 794 160 794 q 222 791 204 794 q 258 781 240 788 q 291 763 276 774 q 311 739 306 753 q 317 713 318 728 q 311 671 317 697 q 306 642 308 657 q 301 603 304 626 q 299 576 300 588 q 296 555 297 565 q 293 533 294 544 q 289 507 292 522 q 283 445 283 482 q 286 381 283 408 q 290 355 289 368 q 292 336 290 342 q 306 248 294 292 q 333 164 317 204 l 342 147 l 343 160 q 344 174 343 165 q 346 189 344 182 q 347 222 347 196 q 347 282 347 249 q 353 446 347 361 q 382 606 358 531 q 394 639 386 621 q 410 675 401 657 q 426 708 418 693 q 440 729 435 722 q 488 765 460 753 q 549 778 517 778 q 631 749 594 778 q 681 675 667 719 m 507 488 q 510 515 508 497 q 511 553 511 533 q 511 590 511 572 q 510 619 511 608 q 502 672 507 646 q 493 704 497 699 q 482 693 489 704 q 466 665 475 682 q 449 626 457 647 q 433 586 440 606 q 427 562 431 578 q 420 528 424 546 q 414 493 417 510 q 411 467 411 476 q 410 442 411 460 q 407 406 408 425 q 403 368 404 388 q 403 340 403 349 l 403 319 l 410 318 q 426 314 419 315 q 435 314 433 313 q 447 326 438 314 q 485 396 471 357 q 507 488 499 435 z "},"Q":{"ha":732,"x_min":74,"x_max":647,"o":"m 646 576 q 646 522 647 549 q 639 456 644 496 q 630 369 635 414 q 616 279 625 324 q 591 194 607 235 q 550 117 575 153 q 546 108 546 111 q 554 103 546 108 q 588 67 572 94 q 598 44 597 51 q 593 32 599 38 q 583 28 589 28 q 561 50 574 28 q 548 70 554 64 q 535 79 542 76 l 526 82 l 515 71 q 445 28 482 38 q 364 18 408 18 q 285 28 321 18 q 215 64 250 38 q 176 96 199 76 q 147 124 154 115 q 105 192 125 149 q 78 268 85 235 q 75 290 76 276 q 74 320 74 304 q 74 351 74 336 q 75 376 74 367 q 88 442 78 400 q 112 528 97 483 q 144 610 126 572 q 178 665 161 649 q 200 683 188 675 q 226 690 213 690 q 288 669 263 690 q 322 615 313 649 q 326 598 325 606 q 326 568 326 590 q 326 546 326 554 q 324 528 326 538 q 319 504 322 518 q 307 464 315 490 q 285 369 292 415 q 278 272 278 324 q 289 179 278 225 q 336 99 300 133 l 344 90 l 371 90 q 425 99 394 90 q 475 124 456 108 l 481 129 l 474 140 q 464 151 467 149 q 450 160 461 154 q 390 236 410 179 q 385 256 386 250 q 385 283 383 261 q 390 346 385 315 q 401 407 394 376 q 404 422 404 418 q 401 436 404 426 q 394 456 399 443 q 378 489 389 469 q 362 524 367 513 q 354 549 357 535 q 348 612 344 585 q 369 671 351 639 q 421 720 388 701 q 490 739 454 739 q 548 723 514 739 q 600 692 582 707 q 623 667 615 679 q 639 631 631 654 q 643 621 642 625 q 645 611 644 617 q 646 598 646 606 q 646 576 646 590 m 578 392 q 584 422 582 411 q 587 442 586 433 q 588 459 588 450 q 588 482 588 468 q 585 516 588 494 q 580 560 583 538 q 571 603 576 583 q 557 632 565 624 q 540 636 553 636 q 514 625 517 636 q 510 599 513 619 q 506 563 507 578 q 507 512 503 539 q 526 433 511 485 q 535 403 532 414 q 540 386 539 393 q 542 374 542 379 q 542 361 542 369 q 541 342 542 350 q 538 324 540 333 q 531 301 536 314 q 522 274 526 288 q 512 249 517 261 q 504 231 507 238 q 496 181 492 204 q 499 164 497 171 q 504 157 501 157 q 509 163 506 157 q 518 175 513 168 q 542 226 533 199 q 557 282 551 253 q 569 347 564 322 q 578 392 574 371 z "},"R":{"ha":690,"x_min":79,"x_max":690,"o":"m 689 171 q 690 167 690 169 q 690 156 690 164 q 688 133 690 149 q 683 88 686 117 q 676 49 682 69 q 661 9 671 28 q 638 -24 651 -10 q 603 -42 624 -37 q 587 -44 594 -44 q 568 -40 579 -43 q 515 -15 542 -33 q 475 28 489 4 q 451 72 464 44 q 428 131 439 100 q 408 191 417 161 q 397 242 400 221 q 394 253 394 253 q 389 255 394 254 q 377 256 383 256 q 366 256 371 256 q 361 254 361 256 q 359 238 361 253 q 354 204 357 224 q 349 160 351 185 q 344 119 346 135 q 337 64 340 86 q 329 28 333 42 q 319 10 325 15 q 303 1 313 4 q 283 1 294 -1 q 261 6 272 3 q 175 68 210 25 q 119 165 140 111 q 88 278 97 219 q 79 386 79 336 l 79 406 q 83 461 81 439 q 90 513 85 483 q 102 566 94 539 q 118 617 110 593 q 135 659 126 642 q 151 685 144 676 q 203 697 171 704 q 216 694 207 697 q 235 685 225 690 q 253 676 244 681 q 265 669 261 672 q 281 644 275 661 q 290 608 288 628 q 290 575 292 597 q 283 533 288 553 q 278 493 281 519 q 269 410 275 467 q 262 335 264 372 q 260 260 260 297 q 260 200 260 224 q 264 158 261 176 q 271 124 267 140 q 283 85 275 107 q 297 49 294 57 q 301 42 300 42 q 306 65 303 43 q 311 117 308 88 q 315 156 314 135 q 319 193 317 178 q 325 233 322 207 q 331 281 328 258 q 346 381 336 324 q 372 494 356 438 q 411 603 388 551 q 465 685 435 654 q 504 717 485 704 q 553 729 524 729 q 624 701 597 729 q 658 633 650 674 q 659 617 658 629 q 660 590 660 604 q 626 445 660 517 q 533 329 593 374 q 483 291 496 301 q 469 279 469 281 q 474 276 472 276 q 487 267 476 275 q 504 253 497 260 q 533 199 515 242 q 571 93 550 157 q 578 74 572 89 q 590 43 583 60 q 604 14 597 26 q 615 1 611 1 q 624 10 618 1 q 633 28 629 18 q 650 90 646 53 q 657 154 654 126 q 658 168 657 165 q 663 174 660 171 q 689 171 678 186 m 411 322 q 422 332 415 325 q 437 348 429 339 q 451 365 444 357 q 461 378 458 374 q 485 428 472 397 q 504 479 499 460 q 509 511 507 492 q 512 551 511 531 q 513 588 513 571 q 510 615 513 606 q 493 656 503 647 l 488 661 l 481 654 q 448 605 463 635 q 422 542 433 575 q 401 476 410 508 q 386 418 393 443 q 380 385 383 404 q 373 349 376 365 q 368 320 369 332 q 368 308 367 308 q 390 314 372 308 q 411 322 407 319 z "},"S":{"ha":554,"x_min":51,"x_max":475,"o":"m 444 243 q 451 223 449 232 q 455 203 454 214 q 456 180 456 193 q 457 147 457 167 l 458 101 l 451 82 q 410 14 432 29 q 382 2 400 8 q 350 -6 364 -4 q 331 -8 338 -8 q 315 -6 325 -8 l 315 -6 q 275 7 300 -3 q 231 29 250 17 q 176 81 200 47 q 143 147 153 114 q 137 181 139 163 q 138 210 135 199 q 158 250 143 235 q 193 268 172 265 q 218 256 211 269 q 222 242 221 250 q 224 211 222 235 q 232 145 225 174 q 263 86 239 117 q 290 69 274 71 q 314 81 307 68 q 321 119 319 92 q 319 169 322 147 q 315 192 318 178 q 306 221 311 206 q 297 250 301 236 q 289 269 292 264 q 277 292 283 282 q 259 315 271 303 q 229 344 247 328 q 182 385 211 360 q 162 403 174 392 q 139 427 150 415 q 117 449 128 439 q 103 465 107 460 q 76 515 86 488 q 60 581 67 542 q 60 674 51 636 q 75 714 63 690 q 97 747 88 738 q 183 795 128 778 q 297 810 239 813 q 350 802 331 808 q 392 779 369 796 q 464 671 449 739 q 473 629 471 647 q 475 592 475 611 q 467 528 475 551 q 443 511 458 506 q 435 521 436 514 q 433 547 433 528 q 426 599 433 578 q 400 653 419 619 q 379 683 389 672 q 350 706 369 693 q 326 720 332 718 q 313 719 319 722 q 299 707 306 717 q 281 674 293 697 q 267 642 272 656 q 258 617 261 629 q 255 592 256 606 q 254 560 254 579 q 255 527 254 540 q 260 503 256 514 q 274 480 265 492 q 300 449 283 468 q 315 433 307 442 q 328 419 322 425 q 363 379 344 403 q 397 331 381 356 q 426 283 413 307 q 444 243 439 260 z "},"T":{"ha":789,"x_min":29,"x_max":761,"o":"m 751 688 q 758 653 754 678 q 761 618 761 629 q 747 594 761 603 q 719 589 740 592 q 699 586 710 588 q 682 583 689 585 q 661 581 667 581 q 650 585 656 582 q 641 596 643 590 q 639 621 639 601 q 636 651 639 643 q 635 663 636 656 q 633 676 635 669 q 617 710 629 704 q 589 711 610 713 q 553 706 568 710 q 535 699 535 700 q 531 684 532 697 q 526 651 529 671 q 525 633 526 644 q 521 613 524 622 q 509 536 514 572 q 499 449 504 500 q 484 314 490 368 q 475 240 478 260 q 470 192 471 217 q 472 151 469 168 q 480 123 475 138 q 492 100 485 108 q 510 84 499 90 q 533 78 522 78 q 542 78 540 78 q 549 85 544 79 q 572 119 560 97 q 590 161 583 142 q 594 174 593 168 q 597 183 596 181 q 618 196 604 196 q 633 192 625 196 q 643 183 640 188 q 626 110 649 174 q 594 58 615 82 q 546 22 572 33 q 514 10 526 14 q 486 7 501 7 q 468 6 478 6 q 453 7 458 7 l 453 7 q 428 13 439 10 q 399 26 417 17 q 371 45 381 38 q 351 64 361 53 q 310 132 324 96 q 288 226 296 168 q 288 328 281 268 q 290 353 289 339 q 292 378 290 368 q 294 408 292 390 q 298 447 296 426 q 302 488 300 468 q 307 525 304 508 q 313 558 310 539 q 318 594 315 576 q 323 626 321 611 q 326 644 325 640 l 328 650 l 288 650 q 225 651 251 649 q 171 661 199 654 q 138 672 150 667 q 110 683 125 676 q 35 753 54 710 q 30 765 31 761 q 29 785 29 769 q 30 804 29 800 q 36 819 31 808 q 53 844 43 833 q 69 856 64 856 q 88 851 72 856 q 120 842 103 847 q 153 831 138 836 q 172 822 168 825 q 199 799 192 811 q 213 763 207 788 q 219 738 217 740 q 250 731 225 732 q 303 733 275 729 q 323 735 311 735 q 343 736 335 736 q 389 740 368 739 q 442 747 410 742 q 473 752 457 750 q 494 756 489 754 q 516 758 501 756 q 545 761 531 760 q 572 765 560 763 q 585 767 583 767 q 602 769 589 768 q 631 773 615 771 q 660 776 646 775 q 679 778 674 778 q 713 765 706 778 q 718 758 715 763 q 724 750 721 753 q 738 722 729 742 q 751 688 747 703 z "},"U":{"ha":710,"x_min":71,"x_max":692,"o":"m 678 257 q 690 243 689 253 q 685 208 692 233 q 668 157 679 188 q 640 98 657 126 q 602 49 624 69 q 553 28 581 29 q 540 28 546 28 q 531 31 533 28 l 531 31 q 460 114 486 44 l 451 135 l 443 128 q 386 94 413 106 q 329 78 360 82 q 294 76 310 75 q 250 85 278 78 q 131 166 171 107 q 76 303 90 225 q 74 330 75 314 q 72 364 72 346 q 71 399 71 382 q 72 426 71 415 q 153 664 85 553 q 169 689 164 683 q 186 697 175 694 q 197 700 190 699 q 208 703 203 701 q 229 704 218 706 q 273 685 253 700 q 304 649 293 671 q 308 636 307 642 q 310 615 310 631 q 309 587 310 601 q 306 553 308 572 q 297 508 303 533 q 283 446 292 482 q 270 381 276 414 q 257 317 264 349 q 248 266 250 286 q 246 228 246 246 q 257 167 246 189 q 307 135 268 144 q 341 131 326 129 q 375 140 356 132 q 399 155 389 146 q 424 182 410 164 q 434 197 432 193 q 435 204 436 200 q 428 251 431 224 q 426 308 426 278 q 426 367 425 338 q 428 419 426 396 q 451 563 435 497 q 490 675 467 628 q 503 695 497 690 q 519 704 508 700 q 615 679 558 721 q 631 667 626 671 q 638 656 635 663 l 643 644 l 643 608 q 642 583 643 593 q 640 558 642 572 q 633 524 638 544 q 622 467 629 503 q 601 328 608 394 q 594 181 594 263 q 594 144 593 153 q 597 125 594 135 q 599 120 599 122 q 600 115 599 118 q 601 111 600 113 q 605 117 603 113 q 610 128 607 121 q 616 142 613 135 q 622 157 619 150 q 629 174 625 164 q 636 190 633 183 q 649 229 643 213 q 658 250 656 246 q 678 257 663 264 z "},"V":{"ha":572,"x_min":83,"x_max":646,"o":"m 631 658 q 646 643 646 658 q 622 621 646 629 q 526 601 597 613 q 493 596 507 599 q 478 592 479 593 q 475 586 475 592 q 479 536 478 571 q 481 469 481 501 q 463 305 479 383 q 419 165 446 226 q 356 65 392 104 q 281 14 321 25 q 256 11 269 11 q 231 14 242 11 l 231 14 q 178 48 200 24 q 140 100 156 72 q 103 206 117 144 q 86 336 89 267 q 92 478 83 406 q 119 617 100 550 q 131 640 125 636 q 138 645 135 644 q 156 644 142 646 q 203 634 178 642 q 232 619 228 626 q 243 606 232 617 q 253 588 250 596 q 264 553 257 579 q 270 525 268 536 q 273 501 272 514 q 274 469 274 488 q 272 421 274 450 q 275 165 269 244 q 299 75 281 86 q 303 73 301 72 q 313 79 306 74 q 347 129 331 96 q 378 206 364 163 q 403 298 392 249 q 420 397 414 347 q 427 491 426 446 q 421 571 428 536 q 424 610 414 599 q 482 625 433 617 q 613 653 581 642 q 631 658 626 658 z "},"W":{"ha":856,"x_min":92,"x_max":942,"o":"m 933 665 q 938 647 942 657 q 933 641 936 643 q 923 638 931 639 q 900 635 915 636 q 857 631 885 633 q 805 626 828 628 q 778 624 782 624 l 768 622 l 767 606 q 764 579 767 590 q 763 562 764 574 q 760 539 761 550 q 744 432 756 482 q 741 409 743 422 q 736 386 739 396 q 717 294 731 343 q 705 240 713 275 q 693 183 697 206 q 661 71 681 107 q 593 18 642 29 q 580 15 589 17 q 561 13 571 14 q 544 10 551 11 q 535 8 536 8 q 514 13 529 8 q 448 37 475 19 q 403 90 421 54 l 392 111 l 381 96 q 296 28 343 46 q 263 24 283 24 q 229 28 243 24 q 171 69 194 40 q 132 135 147 99 q 108 211 117 172 q 94 281 99 250 q 92 313 93 292 q 92 356 92 333 q 92 399 92 378 q 94 433 93 421 q 110 540 100 492 q 138 636 119 588 q 152 667 147 661 q 172 679 157 674 q 276 657 225 694 q 308 617 299 640 q 311 571 313 606 q 303 493 310 536 q 294 421 299 461 q 288 340 290 381 q 284 260 285 299 q 283 194 283 222 q 285 157 285 168 q 289 131 286 146 q 301 90 294 107 q 310 72 307 72 q 315 76 311 72 q 324 83 318 79 q 369 138 347 103 l 381 154 l 379 188 q 379 213 379 203 q 381 234 379 224 q 386 258 383 244 q 394 290 389 271 q 409 338 403 322 q 419 358 415 353 q 425 362 422 361 q 439 361 428 363 q 483 358 467 360 q 508 353 499 356 q 521 349 517 351 q 529 342 525 346 q 545 309 540 331 q 553 247 550 288 q 559 159 556 186 q 568 115 563 132 q 579 96 574 104 q 588 88 585 88 q 592 90 589 88 q 597 94 594 92 q 609 123 603 101 q 621 170 615 144 q 630 219 626 196 q 635 251 633 242 q 640 280 638 264 q 644 307 642 296 q 653 362 649 329 q 663 432 658 394 q 670 510 667 469 q 675 590 674 551 q 677 624 676 610 q 679 640 678 638 q 685 646 682 646 q 719 651 686 647 q 793 658 753 654 q 870 665 833 663 q 917 668 907 668 q 927 669 924 669 q 933 665 931 668 z "},"X":{"ha":585,"x_min":35,"x_max":581,"o":"m 581 211 q 581 184 581 194 q 580 166 581 174 q 578 153 579 158 q 575 139 578 147 q 563 94 571 115 q 546 63 554 72 q 491 22 524 33 q 422 19 458 10 l 422 19 q 397 30 408 24 q 368 47 385 36 q 353 58 361 53 q 340 67 344 64 q 303 104 319 81 q 275 155 288 128 q 255 210 263 182 q 244 260 247 238 q 240 289 240 283 q 215 259 239 290 q 156 183 190 228 q 96 107 121 139 q 68 74 71 75 q 47 76 56 67 q 44 82 46 79 q 40 86 42 85 q 35 96 39 88 q 38 107 35 101 q 56 131 40 110 q 92 178 71 151 q 115 207 103 190 q 141 240 128 224 q 167 272 154 257 q 189 300 179 288 l 235 360 l 235 389 q 235 417 235 401 q 236 444 236 433 q 238 477 238 458 q 239 516 239 496 q 238 553 239 536 q 238 581 238 571 q 233 613 235 603 q 226 632 231 624 q 219 642 222 640 q 208 642 217 644 q 178 617 196 639 q 144 563 160 594 q 113 503 114 503 q 94 504 103 499 q 89 507 89 507 q 81 513 85 508 q 78 522 78 518 q 81 536 78 525 q 87 560 83 547 q 94 585 90 574 q 100 600 99 596 q 126 640 110 619 q 157 668 143 660 q 203 692 178 683 q 246 701 229 701 q 310 676 278 701 q 363 610 343 650 q 369 594 365 604 q 376 574 374 583 l 385 550 l 425 601 q 455 639 442 624 q 471 656 468 654 q 492 647 479 660 q 499 624 504 633 q 482 603 497 622 q 447 557 467 583 q 428 531 436 543 q 413 511 419 519 q 397 492 404 500 q 398 482 397 490 q 400 463 399 474 q 403 424 401 450 q 406 375 404 399 q 408 328 407 351 q 410 297 408 306 q 417 228 414 257 q 422 188 419 199 q 443 127 429 157 q 469 88 457 97 q 485 83 476 82 q 497 88 493 85 q 506 106 500 92 q 514 130 510 114 q 522 165 518 146 q 528 203 525 183 q 533 238 532 222 q 546 265 535 264 q 551 267 549 267 q 556 268 553 267 q 576 265 568 274 q 580 256 579 263 q 581 211 581 249 z "},"Y":{"ha":660,"x_min":57,"x_max":675,"o":"m 651 206 q 667 206 660 211 q 675 192 675 201 q 665 164 675 181 q 642 135 656 147 q 576 97 611 110 q 501 82 540 85 l 488 81 l 472 64 q 392 13 433 22 q 299 4 351 4 q 286 8 294 6 q 269 13 278 10 q 252 19 260 17 q 242 22 244 21 q 231 29 238 24 q 215 41 224 35 q 199 53 207 47 q 188 63 192 58 q 176 81 181 69 q 169 103 171 93 q 170 123 168 111 q 176 144 172 135 q 196 165 183 156 q 221 176 208 174 q 242 175 228 178 q 271 168 257 172 q 285 163 276 165 q 300 160 293 161 q 319 153 307 157 q 342 144 331 149 q 352 142 347 143 q 360 139 357 140 q 368 136 364 138 q 374 159 371 139 q 379 205 376 179 q 384 255 382 231 q 386 288 386 279 q 388 319 388 303 q 390 343 389 336 q 392 356 392 349 q 392 361 392 358 q 388 360 390 361 q 378 356 385 360 q 247 326 310 326 q 197 332 218 326 q 88 423 118 351 q 82 594 57 494 q 106 661 90 626 q 140 728 121 696 q 148 742 144 735 q 153 751 151 749 q 163 764 160 763 q 183 769 169 767 q 199 772 194 772 q 215 769 203 772 q 269 735 258 758 q 286 672 281 713 q 285 644 288 658 q 275 606 282 629 q 261 532 265 574 q 258 467 257 490 q 265 428 261 442 q 281 400 269 415 q 310 388 293 383 q 333 397 319 389 q 359 417 346 406 q 383 440 372 428 q 400 458 394 451 q 406 478 403 463 q 411 513 408 494 q 416 549 414 532 q 419 574 418 567 q 422 592 419 581 q 426 614 424 603 q 431 641 429 625 q 435 669 433 657 q 444 735 439 714 q 458 763 449 756 q 474 767 465 767 q 507 760 489 767 q 540 740 525 753 q 554 731 546 736 q 569 722 563 725 q 591 709 586 714 q 596 694 596 704 q 595 685 596 690 q 594 676 594 679 q 592 659 593 674 q 590 629 592 644 q 588 591 589 610 q 583 554 586 572 q 576 506 578 524 q 572 464 575 489 q 569 435 571 454 q 564 399 567 415 q 560 361 561 382 q 557 326 558 340 q 553 278 556 304 q 546 224 550 251 q 535 172 542 197 q 518 128 528 147 q 514 117 513 117 q 550 123 531 117 q 588 139 569 129 q 620 163 606 149 q 642 190 635 176 q 651 206 647 206 m 397 403 q 392 401 397 407 q 393 400 389 397 q 397 403 394 400 m 297 63 q 311 67 301 63 q 331 79 321 72 q 348 93 340 86 q 356 103 356 100 q 342 110 356 104 q 313 121 329 115 q 281 131 296 126 q 261 135 265 135 q 249 128 254 135 q 244 111 244 121 q 251 96 244 104 q 265 80 257 88 q 283 67 274 72 q 297 63 292 63 z "},"Z":{"ha":749,"x_min":40,"x_max":710,"o":"m 699 171 q 708 144 707 149 q 707 133 710 139 q 704 128 706 131 q 700 124 703 125 q 672 114 694 119 q 625 103 650 108 q 599 96 613 100 q 549 81 585 92 q 520 72 529 74 q 488 67 511 69 q 455 64 474 65 q 422 61 436 63 q 394 59 410 60 q 371 57 379 58 q 331 53 351 54 q 296 54 310 53 l 296 54 q 242 70 265 57 q 213 101 219 83 q 221 203 199 138 q 237 248 228 226 q 263 300 246 269 q 285 342 271 315 q 313 394 300 369 q 335 436 325 418 q 352 469 344 454 q 367 497 360 483 q 383 524 375 510 q 405 565 396 544 q 413 592 414 586 q 410 595 413 594 q 396 599 407 596 q 377 601 389 600 q 354 603 365 603 q 326 606 343 604 q 299 610 310 607 q 193 611 249 619 q 143 590 158 606 q 122 540 128 575 q 117 508 119 519 q 113 490 115 496 q 109 481 111 483 q 103 476 107 479 q 94 473 99 474 q 75 474 89 472 q 60 474 67 474 q 51 475 53 474 q 46 485 47 479 q 42 497 43 490 q 40 529 42 503 q 40 563 40 554 q 43 583 40 572 q 72 633 51 617 q 129 656 92 650 q 160 658 147 658 q 200 656 172 658 q 233 653 213 654 q 274 650 254 651 q 310 646 292 647 q 338 643 329 644 q 368 640 346 642 q 413 639 390 639 q 458 637 436 638 q 488 636 479 636 q 522 636 507 633 q 537 638 529 638 q 551 640 544 639 q 565 640 563 640 q 572 636 568 639 q 576 627 576 632 q 574 603 576 622 q 548 510 569 567 q 485 368 526 453 q 458 314 472 342 q 438 272 444 286 q 403 202 418 236 q 386 153 389 168 q 386 144 386 149 q 388 133 386 139 q 397 111 390 114 q 436 108 403 108 q 456 109 449 108 q 470 110 464 110 q 484 113 476 111 q 503 117 492 114 q 583 142 542 126 l 599 147 l 600 189 q 601 227 600 218 q 604 244 601 236 q 616 265 608 256 q 633 276 624 274 q 653 281 642 279 q 671 279 665 282 q 678 271 676 276 q 681 247 679 265 q 685 213 682 226 q 699 171 688 199 z "},"[":{"ha":372,"x_min":88,"x_max":365,"o":"m 351 64 q 365 26 365 35 q 356 19 365 21 q 318 14 353 18 q 283 9 301 11 q 244 4 264 7 q 205 -1 224 1 q 168 -6 186 -3 q 128 -10 133 -10 q 117 -4 118 -10 q 117 8 117 -3 q 115 42 117 19 q 111 158 114 86 q 108 235 110 194 q 106 321 107 275 q 103 413 104 367 q 100 508 101 460 q 96 696 99 604 q 92 860 94 785 q 90 924 90 896 q 89 975 89 953 q 88 1008 88 997 q 88 1021 88 1019 q 90 1024 89 1022 q 93 1026 90 1025 q 106 1029 93 1026 q 118 1031 111 1031 q 135 1032 125 1031 q 157 1032 144 1032 q 186 1033 169 1032 q 220 1035 204 1035 q 250 1036 236 1035 q 281 1035 279 1036 q 292 1026 289 1033 q 292 988 293 1018 q 288 947 289 951 q 271 944 288 947 q 255 942 264 943 q 235 939 246 940 q 225 938 229 938 q 217 936 221 938 q 207 935 211 935 q 200 933 203 935 q 186 932 190 933 q 186 924 186 929 q 187 913 186 919 q 188 897 188 907 q 192 803 189 863 q 194 740 193 774 q 197 671 194 707 q 200 597 199 635 q 204 521 201 560 q 207 444 206 482 q 211 369 208 406 q 214 299 213 332 q 217 236 215 265 q 219 184 218 207 q 222 143 221 161 q 224 116 224 125 q 224 106 224 107 q 275 108 224 103 q 302 112 292 111 q 318 114 313 113 q 331 113 328 115 q 336 103 336 107 q 340 89 336 100 q 346 77 343 83 q 351 64 349 71 z "},"\\":{"ha":503,"x_min":13,"x_max":489,"o":"m 100 1044 q 118 999 100 1046 q 138 949 128 976 q 164 885 149 921 q 193 810 178 850 q 226 726 208 771 q 262 636 244 682 q 299 544 279 590 q 334 452 317 497 q 368 363 351 407 q 401 278 386 318 q 429 203 415 239 q 454 140 443 168 q 472 90 465 111 q 485 57 481 69 q 489 46 488 50 q 456 14 489 42 q 443 3 449 7 q 432 -7 438 -1 q 421 -18 421 -15 q 413 -25 418 -25 q 406 -19 407 -25 q 399 -4 403 -17 q 392 10 396 3 q 386 28 389 18 q 378 50 383 35 q 361 93 372 65 q 311 222 340 146 q 281 303 297 261 q 249 392 265 346 q 214 483 231 438 q 179 572 197 528 q 147 659 163 617 q 115 742 131 701 q 88 814 100 782 q 65 872 75 846 q 47 917 54 897 q 35 951 40 936 q 26 977 29 967 q 19 994 22 988 q 15 1006 17 1001 q 13 1014 14 1011 q 14 1021 13 1019 q 24 1028 15 1022 q 54 1040 33 1033 q 67 1045 61 1043 q 81 1049 74 1047 q 93 1051 88 1051 q 100 1044 96 1051 z "},"]":{"ha":372,"x_min":88,"x_max":365,"o":"m 101 64 q 110 83 104 69 q 117 103 117 97 q 122 113 117 107 q 135 114 125 115 q 151 112 140 113 q 178 108 161 111 q 229 106 229 103 q 230 116 229 107 q 232 143 231 125 q 236 236 235 179 q 242 378 239 307 q 250 521 246 449 q 253 597 251 560 q 257 671 254 635 q 260 740 258 707 q 263 803 261 774 q 264 856 264 832 q 265 897 264 879 q 267 913 267 907 q 267 924 267 919 q 267 932 267 929 q 253 933 263 933 q 246 935 250 935 q 238 936 242 935 q 228 938 232 938 q 218 939 224 938 q 208 940 217 939 q 191 943 200 942 q 174 946 182 944 q 165 947 165 947 q 161 988 164 951 q 161 1026 160 1018 q 172 1035 164 1033 q 203 1036 174 1036 q 319 1032 261 1032 q 335 1031 329 1031 q 347 1029 342 1031 q 356 1028 353 1028 q 361 1026 358 1028 q 363 1024 363 1025 q 365 1021 364 1022 q 365 940 365 981 q 363 860 364 900 q 358 696 360 785 q 353 508 356 601 q 347 321 350 415 q 343 158 346 229 q 339 42 342 86 q 337 8 338 19 q 336 -4 336 -3 q 325 -10 335 -10 q 285 -6 321 -10 q 248 -1 267 -3 q 210 4 229 1 q 170 9 189 7 q 135 14 151 11 q 97 19 100 18 q 88 26 88 21 q 101 64 88 35 z "},"^":{"ha":433,"x_min":31,"x_max":360,"o":"m 311 857 q 329 797 321 825 q 344 746 338 769 q 357 696 360 699 q 353 692 356 694 q 346 688 351 690 q 322 679 336 682 q 297 675 313 678 q 281 676 283 674 l 279 681 q 275 694 279 686 q 269 716 272 704 q 261 743 265 728 q 253 776 257 758 q 243 815 249 794 q 232 856 238 835 q 219 901 226 878 q 215 910 218 913 q 208 893 215 910 q 192 856 203 879 q 181 833 186 844 q 171 807 176 821 q 160 781 165 793 q 150 758 156 769 q 141 738 144 747 q 135 721 138 728 q 128 703 128 703 q 122 694 128 696 q 108 699 119 694 q 85 707 97 701 q 72 713 78 710 q 61 718 67 715 q 47 724 47 724 q 40 726 39 726 q 31 738 31 726 q 47 776 31 739 q 66 816 56 794 q 88 863 76 838 q 114 918 103 894 q 132 958 125 942 q 156 1007 146 989 q 164 1024 163 1022 q 167 1025 165 1025 q 182 1026 168 1026 q 196 1025 189 1025 q 211 1025 203 1025 q 233 1024 225 1024 q 246 1024 242 1024 q 257 1019 254 1021 q 260 1017 258 1018 q 263 1013 261 1015 q 265 1004 264 1010 q 269 990 267 999 q 276 970 272 982 q 285 943 279 958 q 297 906 290 928 q 311 857 303 885 z "},"_":{"ha":651,"x_min":76,"x_max":543,"o":"m 539 14 q 538 6 543 11 q 529 3 538 6 q 519 3 526 3 q 500 1 511 3 q 472 1 489 1 q 435 0 456 1 l 324 0 q 282 0 303 0 q 242 -1 261 0 q 206 -1 222 -1 q 175 -3 189 -1 l 129 -3 l 111 -3 l 106 3 q 105 7 106 6 q 104 10 104 8 q 103 11 103 10 q 89 50 103 21 q 76 88 79 78 q 81 101 76 100 q 136 104 86 104 q 205 104 163 104 q 307 103 247 104 l 529 101 l 533 96 q 538 85 538 92 q 539 54 539 81 q 538 40 539 47 q 539 28 538 33 l 539 14 z "},"a":{"ha":626,"x_min":-44,"x_max":639,"o":"m 346 132 q 293 72 324 97 q 228 35 263 47 q 163 23 197 24 q 96 33 128 22 q 7 97 43 50 q -42 208 -29 143 q -44 258 -44 228 q -40 308 -44 289 q 18 433 -26 379 q 124 506 63 486 q 217 514 171 522 q 292 484 257 507 q 346 426 326 461 q 354 419 353 415 q 360 455 357 438 q 365 490 363 472 q 371 522 368 515 q 398 540 376 533 q 447 543 419 546 q 497 528 486 539 q 514 503 507 519 q 524 472 521 488 q 515 336 526 456 q 511 238 511 283 q 514 136 511 192 q 525 53 518 67 q 544 54 529 44 q 571 96 560 65 q 577 113 575 106 q 581 129 579 119 q 583 153 582 139 q 583 192 583 168 q 585 237 583 221 q 589 260 586 253 q 598 269 592 268 q 614 271 604 271 q 629 269 626 272 q 635 247 632 265 q 637 226 636 235 q 638 210 638 218 q 638 192 639 201 q 638 168 638 182 q 622 70 635 107 q 582 10 608 33 q 571 1 576 6 q 561 -6 565 -3 q 523 -17 546 -14 q 485 -14 500 -19 l 485 -14 q 445 8 464 -8 q 410 47 426 25 q 383 92 394 68 q 365 135 371 115 q 360 150 360 150 q 356 145 360 151 q 346 132 351 139 m 204 106 q 234 132 218 113 q 261 174 250 151 q 285 242 274 199 q 303 342 296 286 q 305 360 304 353 q 307 371 306 368 q 308 376 308 374 q 300 388 307 379 q 251 428 278 418 q 201 425 225 438 q 176 392 186 417 q 158 319 165 368 q 154 272 156 299 q 153 218 153 244 q 153 169 153 192 q 157 136 154 147 q 174 101 164 108 q 204 106 185 94 z "},"b":{"ha":633,"x_min":-61,"x_max":651,"o":"m 633 176 q 647 165 642 176 q 649 135 651 154 q 641 107 647 125 q 629 78 635 89 q 581 28 614 51 q 517 6 549 6 q 503 6 510 6 q 490 8 497 7 q 459 17 472 11 q 426 35 446 22 q 411 42 415 42 q 406 38 410 42 q 394 31 401 35 q 334 0 367 11 q 274 -11 301 -11 q 243 -8 260 -11 q 214 3 226 -4 l 203 8 l 193 4 q 181 1 186 1 q 158 1 175 1 q 97 12 121 1 q 47 53 74 22 q -38 221 -15 128 q -61 408 -61 314 q -56 492 -61 442 q -39 595 -51 543 q -5 692 -26 647 q 49 757 17 736 q 67 767 60 764 q 83 769 75 769 q 117 760 103 769 q 142 738 132 751 q 156 706 151 724 q 163 672 161 689 q 161 647 163 667 q 158 603 160 628 q 153 551 156 578 q 149 501 151 524 q 138 381 140 426 q 138 300 135 335 q 141 253 139 278 q 146 204 143 228 q 151 161 149 181 q 156 131 154 142 l 158 121 l 164 143 q 188 221 174 178 q 219 306 201 264 q 260 384 238 347 q 310 444 282 421 q 414 483 357 483 q 487 461 457 483 q 535 399 517 439 q 549 361 546 375 q 553 317 553 347 q 552 283 553 293 q 549 261 551 274 q 515 171 536 207 q 458 92 494 135 q 449 80 453 85 q 444 74 444 75 q 450 69 444 72 q 464 63 456 67 q 481 55 472 58 q 493 50 489 51 q 604 138 568 31 q 617 167 613 161 q 633 176 622 174 m 411 194 q 412 226 414 207 q 407 258 410 246 q 398 287 404 269 q 386 313 392 304 q 364 339 376 328 q 344 350 351 350 q 317 322 335 347 q 281 267 299 297 q 251 213 264 238 q 239 183 239 188 q 242 183 240 183 q 247 182 243 182 q 299 168 271 182 q 349 142 328 154 q 365 129 360 136 q 374 125 369 128 q 386 138 376 125 q 411 194 410 169 m 307 63 q 328 77 318 69 q 338 88 338 85 q 326 99 338 92 q 299 113 314 106 q 270 124 285 119 q 250 129 256 129 q 215 106 226 129 q 228 72 207 86 q 286 56 249 57 q 297 56 293 56 q 307 63 300 57 z "},"c":{"ha":379,"x_min":-75,"x_max":335,"o":"m 192 506 q 149 465 171 506 q 117 365 126 424 q 114 334 115 353 q 113 295 113 315 q 113 256 113 275 q 115 224 114 236 q 164 108 128 135 q 211 88 189 88 q 242 93 231 85 q 269 125 254 101 q 283 150 279 139 q 296 189 288 161 q 301 208 299 200 q 306 218 304 217 q 315 222 308 221 q 325 219 321 222 q 335 196 335 215 q 332 180 335 192 q 326 154 329 168 q 318 127 322 140 q 311 106 314 114 q 226 7 285 42 l 219 4 q 177 -10 200 -7 q 132 -8 154 -14 q 57 24 93 0 q 1 85 25 46 q -40 169 -24 124 q -66 260 -57 214 q -75 343 -75 306 q -67 416 -75 381 q -45 482 -60 451 q -11 535 -31 513 q 31 568 8 557 q 117 586 67 586 q 204 568 167 586 q 268 517 244 549 q 304 432 292 485 q 310 394 308 413 q 308 369 311 376 q 292 357 303 353 q 282 367 285 360 q 274 397 279 375 q 239 474 263 444 q 192 506 215 504 z "},"d":{"ha":567,"x_min":-60,"x_max":572,"o":"m 547 217 q 569 190 572 221 q 559 147 568 179 q 542 89 550 115 q 516 31 528 49 q 489 4 504 13 q 431 -3 464 -10 l 431 -3 q 394 15 413 1 q 362 47 376 29 q 336 85 347 65 q 318 122 325 106 q 315 123 317 125 q 303 108 313 121 q 149 22 242 29 q 17 67 72 19 q -57 200 -39 115 q -59 221 -58 208 q -60 247 -60 233 q -59 274 -60 261 q -57 296 -58 288 q 6 426 -42 374 q 121 490 54 478 q 161 492 138 493 q 200 488 185 492 q 282 439 246 475 l 297 426 l 297 432 q 299 443 299 435 q 300 460 299 451 q 303 505 301 476 q 308 563 306 533 q 315 620 311 593 q 319 663 318 647 q 325 698 322 678 q 331 737 328 718 q 338 770 335 756 q 343 789 342 785 q 351 805 347 801 q 364 807 354 808 q 377 808 368 807 q 393 810 386 808 q 410 811 401 811 q 422 811 419 811 q 486 767 468 804 q 495 738 493 751 q 497 696 497 725 q 497 669 497 681 q 494 643 496 657 q 490 609 493 629 q 483 557 488 589 q 472 478 476 508 q 465 423 468 449 q 458 370 461 397 q 451 301 456 343 q 443 207 446 244 q 440 146 440 169 q 443 108 440 122 q 451 82 446 93 q 469 65 458 67 q 483 72 475 64 q 497 94 490 79 q 513 144 503 110 q 524 183 519 169 q 532 205 529 197 q 538 215 535 213 q 547 217 542 217 m 296 200 q 299 219 299 211 q 297 246 299 228 q 295 274 296 257 q 294 301 294 290 q 292 327 293 321 q 288 343 292 333 q 261 386 278 367 q 217 406 244 406 q 194 400 201 406 q 152 358 169 388 q 126 286 135 328 q 124 240 124 268 q 126 194 124 211 q 153 122 135 150 q 197 86 172 93 q 228 90 210 83 l 228 90 q 270 129 251 99 q 296 200 289 160 z "},"e":{"ha":443,"x_min":-50,"x_max":426,"o":"m 421 208 q 415 166 426 199 q 382 97 404 133 q 263 -8 329 13 q 221 -13 249 -12 q 179 -11 193 -14 l 179 -11 q 88 27 129 -1 q 18 94 47 56 q -28 181 -11 133 q -47 276 -46 228 q -28 413 -50 347 q 35 518 -6 479 q 82 549 57 540 q 138 561 107 557 q 194 564 161 564 q 242 561 226 564 q 279 550 263 558 q 311 528 296 542 q 342 489 328 513 q 363 444 357 465 q 361 374 372 408 q 322 317 350 340 q 172 265 279 282 l 139 260 l 139 254 q 140 244 139 251 q 142 228 140 236 q 160 147 149 179 q 190 86 171 115 q 207 67 199 75 q 219 58 215 58 q 249 74 225 58 q 293 106 272 89 q 319 129 306 115 q 344 158 333 143 q 364 186 356 172 q 375 210 372 200 q 385 222 378 218 q 389 222 388 222 q 393 219 390 221 q 401 217 396 218 q 408 215 406 215 q 417 213 415 214 q 421 208 418 211 m 138 296 l 138 292 q 147 292 140 292 q 160 294 153 293 q 181 299 174 296 q 207 314 189 303 q 238 342 222 324 q 261 371 254 360 q 271 407 268 386 q 268 444 274 428 q 258 469 265 456 q 242 494 253 481 q 228 508 231 507 q 215 496 225 508 q 193 468 204 483 q 170 426 182 450 q 153 386 158 401 q 142 339 146 367 q 138 296 138 311 z "},"f":{"ha":339,"x_min":-118,"x_max":342,"o":"m 314 383 q 268 342 297 360 q 204 321 239 325 l 186 318 l 197 311 q 241 271 221 296 q 269 218 261 246 q 273 160 276 192 q 256 96 269 128 q 214 38 240 64 q 156 0 188 11 q 88 -4 122 -14 q -10 44 36 10 q -81 122 -57 79 q -101 181 -93 144 q -114 262 -110 218 q -118 352 -118 306 q -112 440 -118 399 q -87 576 -104 507 q -32 701 -69 646 q -6 734 -22 717 q 21 758 11 751 q 27 763 24 761 q 31 767 31 765 q 53 776 33 772 q 97 782 74 781 q 136 780 115 782 q 178 773 157 778 q 218 762 199 768 q 251 747 238 756 q 274 730 264 740 q 290 710 285 719 q 246 536 319 649 q 217 495 233 518 q 180 449 200 472 q 140 407 160 426 q 100 375 119 388 q 83 361 82 363 q 94 359 86 360 q 112 357 101 358 q 133 355 122 356 q 151 354 143 354 q 173 355 167 354 q 194 361 179 356 q 258 393 235 375 q 304 447 282 411 q 315 463 311 458 q 326 467 319 467 q 342 450 342 467 q 333 419 342 440 q 314 383 325 399 m 57 422 q 52 390 54 403 q 50 375 50 376 q 56 376 50 372 q 76 389 61 379 q 154 459 117 417 q 219 542 192 501 q 235 567 229 557 q 243 585 240 576 q 247 601 246 593 q 247 622 247 610 q 178 724 247 707 q 157 726 163 726 q 144 718 151 725 q 122 688 132 707 q 101 638 113 669 q 57 422 78 561 m 185 167 q 188 181 188 176 q 185 196 188 186 q 181 210 183 203 q 176 221 179 217 q 157 249 172 231 q 122 285 142 267 q 100 306 113 296 q 76 323 88 315 q 57 335 65 331 q 47 336 49 339 q 45 326 46 335 q 43 303 44 317 q 41 273 42 289 q 40 243 40 257 q 47 158 40 189 q 74 99 54 128 q 89 78 85 83 q 101 69 93 74 q 132 69 117 61 q 165 107 150 79 q 185 167 181 135 z "},"g":{"ha":432,"x_min":-85,"x_max":364,"o":"m 217 106 q 231 167 229 132 q 231 199 232 181 q 228 221 231 218 q 213 215 226 225 q 179 197 197 206 q 149 186 161 189 q 111 182 133 182 q 74 186 89 182 q 23 208 49 193 q -22 242 -3 224 q -82 385 -78 297 q -58 485 -85 447 q -20 520 -43 508 q 44 538 3 532 q 204 504 140 550 l 217 496 l 219 501 q 231 507 222 506 q 258 510 239 508 q 281 510 269 511 q 307 508 292 510 q 328 506 321 507 q 339 501 335 504 q 344 494 343 499 q 346 479 344 489 q 353 409 350 453 q 360 319 357 365 q 363 233 363 274 q 363 172 364 192 q 331 65 357 104 q 243 1 306 26 l 238 -1 q 138 -8 192 -17 l 138 -8 q 25 67 29 8 q 71 118 22 114 q 97 113 89 119 q 113 79 104 106 q 140 44 119 54 q 217 106 185 24 m 194 300 q 206 333 204 319 q 206 371 208 347 q 192 408 203 386 q 169 440 181 429 q 148 456 158 450 q 131 463 138 463 q 99 446 118 463 q 78 346 61 411 q 101 297 85 319 q 132 268 117 274 q 152 265 142 265 q 168 268 163 265 q 194 300 181 274 z "},"h":{"ha":635,"x_min":-54,"x_max":650,"o":"m 647 224 q 650 187 650 213 q 647 143 650 161 q 568 7 638 53 q 499 -8 539 -12 l 499 -8 q 447 7 467 -4 q 404 46 426 18 q 367 110 381 78 q 350 181 353 143 q 349 233 347 200 q 357 303 351 267 q 362 348 360 326 q 367 418 364 369 q 365 471 371 465 q 355 462 363 472 q 338 435 347 451 q 318 397 328 418 q 300 356 308 376 q 274 269 288 319 q 247 160 260 218 q 236 106 240 121 q 226 76 232 90 q 222 65 224 69 q 221 58 221 60 q 216 51 221 57 q 203 38 211 44 q 188 25 196 31 q 176 17 181 19 q 108 18 146 3 q 82 33 94 24 q 54 58 69 43 q 3 126 25 89 q -35 210 -18 164 q -51 271 -47 246 q -51 333 -54 296 q -42 431 -49 379 q -24 531 -35 482 q -1 626 -14 581 q 25 707 11 672 q 38 740 36 735 q 46 744 40 744 q 53 747 50 744 q 65 754 54 749 q 131 750 93 764 q 170 733 157 742 q 190 708 183 724 q 201 658 201 685 q 185 583 200 632 q 173 536 178 556 q 164 494 168 517 q 154 434 158 468 q 147 365 150 400 q 143 299 144 331 q 143 244 142 267 q 156 156 146 194 q 178 108 167 117 q 181 109 181 107 q 185 122 182 111 q 190 153 186 131 q 199 201 194 175 q 210 250 204 226 q 218 286 215 274 q 247 381 229 335 q 283 456 265 428 q 317 493 299 476 q 360 519 336 510 q 399 524 379 526 q 447 508 419 522 q 512 455 493 486 q 538 375 531 424 q 540 330 540 358 q 537 268 539 301 q 530 201 535 235 q 519 142 525 168 q 515 122 517 133 q 513 103 514 111 q 510 85 510 90 q 513 74 511 81 q 517 65 515 69 q 521 58 518 61 q 544 54 532 50 q 572 88 557 60 q 590 143 586 117 q 593 165 592 151 q 596 192 594 178 q 598 218 597 206 q 599 238 599 231 l 599 251 l 606 256 q 613 258 611 258 q 637 247 629 258 q 647 224 644 236 z "},"i":{"ha":276,"x_min":-53,"x_max":296,"o":"m 3 569 q -42 631 -42 583 q -35 661 -42 646 q -12 683 -28 676 q -6 687 -10 685 q 4 692 -1 689 q 16 697 13 696 q 25 696 19 697 q 65 674 50 693 q 79 631 79 654 q 63 585 79 603 q 35 569 51 574 q 3 569 18 564 m 292 218 q 295 207 294 211 q 294 179 296 203 q 288 125 293 154 q 272 69 283 96 q 243 20 261 42 q 199 -8 225 -1 q 163 -8 181 -12 q 113 14 140 -3 q 65 51 86 31 q -17 173 11 106 q -51 317 -44 240 q -53 364 -53 338 q -51 417 -53 390 q -45 468 -49 444 q -37 507 -42 492 l -35 517 l -22 519 q -6 523 -14 522 q 25 524 1 524 l 60 522 l 76 513 q 104 494 96 501 q 117 481 113 488 q 122 469 121 475 q 124 455 124 464 q 125 430 125 446 q 124 386 125 414 q 126 242 121 303 q 147 118 132 181 q 161 79 154 92 q 179 60 168 67 q 190 56 186 56 q 210 81 201 56 q 220 115 217 99 q 228 160 224 131 q 238 222 233 197 q 244 253 242 247 q 254 258 249 260 q 272 243 260 256 q 283 229 278 236 q 292 218 289 222 z "},"j":{"ha":417,"x_min":19,"x_max":344,"o":"m 219 542 q 166 579 192 553 q 139 638 140 606 q 142 678 138 657 q 154 707 147 700 q 163 708 158 711 q 172 710 165 707 q 193 713 178 713 q 222 710 208 713 q 273 685 250 703 q 296 636 296 668 q 285 589 294 614 q 263 551 276 564 q 219 542 243 535 m 340 347 q 344 299 343 331 q 344 232 344 267 q 342 167 343 197 q 338 122 340 138 q 313 42 331 76 q 275 -8 296 7 q 238 -22 260 -18 q 197 -22 215 -25 q 151 -12 175 -18 q 103 3 126 -7 q 61 29 81 14 q 31 67 42 44 q 25 121 19 90 q 30 143 28 138 q 38 151 32 149 q 51 156 46 156 q 65 153 56 156 q 96 136 86 146 q 118 101 106 126 q 135 70 129 79 q 144 61 142 61 q 156 78 151 63 q 164 122 161 94 q 167 165 167 142 q 168 217 168 188 q 166 283 168 246 q 161 369 164 321 q 157 422 158 396 q 156 458 156 447 q 156 482 156 478 q 160 489 157 486 q 176 494 164 492 q 197 494 183 494 q 224 493 210 494 q 252 490 239 492 q 269 488 265 489 q 290 471 275 486 q 310 447 304 456 q 329 401 321 428 q 340 347 338 375 z "},"k":{"ha":572,"x_min":-57,"x_max":525,"o":"m 500 168 q 520 158 515 163 q 524 140 525 153 q 494 76 521 108 q 426 24 467 43 q 385 10 404 13 q 347 11 367 7 q 299 35 324 18 q 235 92 274 53 q 200 124 203 124 q 194 104 197 124 q 190 19 188 54 q 192 -3 193 1 q 185 -11 192 -8 q 165 -11 179 -14 q 135 -1 151 -8 l 128 3 q 100 19 115 8 q 70 42 85 29 q 42 68 56 54 q 22 94 29 82 q 14 106 15 106 q -22 197 -8 160 q -44 267 -36 233 q -54 337 -51 300 q -56 428 -57 374 l -56 436 q -45 557 -53 513 q -22 635 -37 601 q 68 733 8 697 q 194 769 128 769 q 244 764 224 769 q 286 738 265 758 q 326 649 318 703 q 315 539 335 594 q 303 510 310 524 q 287 480 297 496 q 261 446 276 464 q 225 404 246 428 q 196 372 213 390 q 163 333 179 353 q 133 297 147 314 q 113 269 119 281 l 99 251 l 100 242 q 111 178 104 203 q 132 122 118 153 q 152 88 140 107 q 167 69 164 69 q 168 76 168 69 q 169 90 168 82 q 181 174 172 128 q 207 265 190 221 q 248 348 224 310 q 303 408 272 386 q 341 428 319 421 q 378 436 363 436 q 454 390 431 436 q 464 360 461 375 q 467 319 467 346 q 440 211 467 251 q 356 140 414 171 q 333 129 343 133 q 322 125 324 125 q 325 119 321 124 q 335 108 329 114 q 349 95 342 101 q 360 86 356 89 q 370 83 367 83 q 385 83 374 82 q 424 102 408 83 q 450 139 439 121 q 469 165 463 158 q 482 172 475 172 q 500 168 488 172 m 94 356 q 119 381 106 364 q 148 416 133 397 q 174 453 163 435 q 193 483 186 472 q 220 538 213 517 q 229 588 228 560 q 228 621 231 608 q 222 643 226 633 q 208 654 215 654 q 188 642 200 654 q 165 613 176 629 q 144 581 153 596 q 132 558 135 565 q 90 368 101 496 l 89 351 l 94 356 m 319 331 q 318 363 319 363 q 304 349 315 361 q 286 325 293 336 q 247 258 265 297 q 221 182 228 218 q 238 186 221 178 q 286 228 267 201 q 314 285 306 254 q 317 302 317 293 q 319 331 318 311 z "},"l":{"ha":313,"x_min":-60,"x_max":318,"o":"m 306 254 q 318 235 318 253 q 314 198 318 221 q 303 151 310 175 q 289 104 296 126 q 275 71 282 82 q 237 30 263 49 q 181 1 211 11 l 174 0 q 157 -3 164 -3 q 136 -4 150 -4 q 117 -3 126 -4 q 101 -3 107 -3 q 69 8 90 0 q 36 22 47 15 q 13 42 25 29 q -9 69 1 54 q -28 99 -19 83 q -40 126 -36 114 q -44 139 -43 135 q -46 143 -44 140 q -58 351 -57 243 q -39 560 -60 460 q -24 612 -35 585 q 2 662 -14 639 q 41 699 18 685 q 94 714 64 714 q 144 707 114 714 q 194 690 175 700 q 272 618 251 661 q 288 528 293 575 q 256 433 282 481 q 192 349 229 386 q 170 328 181 339 q 153 313 160 318 q 138 301 143 304 q 129 293 132 297 q 125 283 126 289 q 121 265 124 276 q 110 215 113 238 q 108 174 107 193 q 113 139 110 157 q 118 115 115 121 q 130 99 122 107 q 142 88 138 90 q 149 83 144 86 q 157 78 154 81 q 185 67 171 67 q 215 79 201 67 q 236 104 229 92 q 241 117 238 108 q 247 138 244 126 q 253 159 250 149 q 257 176 256 169 q 260 194 260 182 q 263 217 261 206 q 266 237 265 228 q 268 249 267 246 q 279 260 271 257 q 294 258 288 263 q 300 256 297 257 q 306 254 303 256 m 147 532 q 142 501 144 518 q 137 470 139 485 q 133 447 135 456 q 133 438 132 438 l 133 438 q 182 467 163 446 q 206 512 201 489 q 200 553 211 535 q 156 569 189 571 l 153 558 q 151 546 151 553 q 147 532 150 539 z "},"m":{"ha":813,"x_min":-72,"x_max":817,"o":"m 808 243 q 817 217 817 233 q 807 161 817 201 q 717 0 775 17 q 691 -4 707 -3 q 668 -4 675 -6 l 668 -4 q 645 7 658 -1 q 619 26 632 15 q 597 49 607 38 q 579 68 586 60 q 552 115 558 93 q 546 179 546 136 q 551 258 546 219 q 567 342 556 296 q 572 371 569 357 q 575 389 575 385 l 576 397 l 567 378 q 558 360 563 371 q 549 342 553 349 q 519 296 538 318 q 488 268 501 274 q 465 261 476 263 q 442 263 453 260 q 372 301 396 272 q 331 371 347 329 q 322 396 326 379 q 315 431 318 413 q 308 469 311 450 q 304 501 306 488 q 302 515 303 513 q 297 519 301 517 q 286 517 290 521 q 276 494 282 513 q 266 453 271 475 q 258 410 261 431 q 254 383 254 390 q 253 369 254 378 q 249 350 251 360 q 242 299 244 332 q 238 214 240 265 q 234 149 235 167 q 231 125 233 132 q 229 114 231 121 q 228 100 228 107 q 215 65 225 81 q 190 43 206 50 q 159 35 179 36 q 119 38 139 35 q 18 109 64 49 q -49 257 -28 169 q -49 443 -72 357 q -37 479 -44 461 q -22 504 -29 497 q -3 515 -17 511 q 26 519 11 519 q 77 510 58 519 q 113 478 96 501 q 124 457 121 465 q 132 432 128 449 q 135 410 135 421 q 136 367 136 400 q 135 322 136 339 q 133 292 135 304 q 131 263 132 279 q 131 231 131 247 q 131 201 131 215 q 132 181 131 188 q 140 155 135 168 q 157 126 146 142 q 169 109 167 111 q 174 114 171 107 q 178 145 176 122 q 182 208 179 168 q 188 299 185 264 q 193 354 190 335 q 197 375 196 364 q 200 393 199 386 q 207 433 203 410 q 217 477 211 456 q 227 517 222 499 q 235 540 232 535 q 250 561 240 551 q 291 587 267 579 q 342 591 315 594 q 394 575 368 588 q 438 540 419 563 q 453 516 447 528 q 467 481 460 504 q 476 437 472 461 q 486 375 481 413 q 490 359 489 365 q 492 351 490 353 q 497 360 492 349 q 524 415 511 389 q 543 451 536 440 q 558 468 549 458 q 575 481 568 478 q 594 486 582 483 q 613 488 607 489 q 623 484 615 488 q 639 478 631 481 q 688 433 672 461 q 713 369 704 404 q 716 344 715 354 q 717 314 717 335 q 716 288 717 301 q 714 267 715 274 q 709 199 710 226 q 714 147 708 171 q 724 113 717 128 q 733 101 731 97 q 740 120 736 106 q 749 152 744 135 q 757 188 753 169 q 763 218 761 206 q 767 240 764 233 q 776 251 769 247 q 808 243 796 260 z "},"n":{"ha":564,"x_min":-44,"x_max":574,"o":"m 571 174 q 572 124 574 149 q 568 86 571 100 l 567 83 q 544 39 558 58 q 513 6 531 19 q 474 -14 494 -8 q 435 -15 454 -19 l 435 -15 q 411 -7 421 -12 q 383 10 401 -1 q 328 60 346 35 q 303 125 310 85 q 295 188 297 153 q 294 285 293 224 q 295 331 294 313 q 297 365 296 350 q 300 391 299 379 q 303 417 301 403 q 303 432 303 432 q 297 422 301 432 q 288 398 293 413 q 276 365 282 383 q 264 328 269 346 q 251 275 258 310 q 240 206 244 240 q 237 181 239 194 q 233 161 235 168 q 231 144 232 154 q 228 126 229 135 q 222 94 225 110 q 213 68 218 79 q 165 28 197 38 q 88 35 132 19 q 37 64 58 44 q -1 109 15 83 q -26 163 -17 135 q -40 221 -36 192 q -44 251 -43 232 q -44 290 -44 269 q -44 331 -44 311 q -40 363 -43 350 q -33 401 -37 381 q -22 441 -28 422 q -12 474 -17 460 q -3 493 -7 489 q 15 507 0 499 q 39 517 31 515 q 67 515 50 519 q 97 503 85 510 q 116 483 107 496 q 131 454 125 469 q 135 431 133 446 q 139 397 138 415 q 142 358 140 378 q 143 321 143 338 q 144 299 143 310 q 144 282 144 288 q 147 258 146 275 q 149 221 147 240 q 151 168 150 185 q 157 135 153 151 q 163 112 160 122 q 169 104 167 101 l 171 111 q 172 117 171 114 q 172 125 172 121 q 175 148 174 133 q 179 174 176 163 q 185 203 182 186 q 189 232 188 219 q 202 307 196 276 q 219 374 208 338 q 227 397 224 385 q 232 413 231 408 q 238 427 235 418 q 246 446 242 436 q 307 500 271 496 q 351 497 324 503 q 393 481 378 490 q 426 453 408 472 q 454 418 444 435 q 476 367 465 397 q 489 313 486 336 q 491 287 490 304 q 492 249 492 269 q 491 208 492 228 q 489 174 490 188 q 483 81 483 107 q 489 57 482 54 q 501 73 492 58 q 514 96 511 88 q 517 113 517 106 q 517 147 518 119 q 516 192 515 183 q 518 207 517 201 q 535 221 524 218 q 558 217 547 224 q 567 204 565 211 q 571 174 568 197 z "},"o":{"ha":464,"x_min":-49,"x_max":501,"o":"m 494 310 q 496 283 501 294 q 475 268 490 271 q 442 288 460 264 q 425 304 432 301 q 419 306 422 307 q 408 299 417 306 q 364 254 381 279 q 353 241 360 249 q 343 229 347 233 q 333 217 335 221 q 331 201 332 214 q 286 75 319 129 q 204 -1 253 21 l 199 -4 q 172 -11 186 -8 q 143 -14 157 -14 q 83 3 111 -14 q 33 42 54 19 q -18 122 3 74 q -46 232 -39 171 q -48 256 -47 242 q -49 284 -49 269 q -48 313 -49 299 q -46 338 -47 328 q -35 391 -42 365 q -17 439 -28 417 l -12 447 q 54 530 15 501 q 136 558 93 558 q 213 535 179 558 q 272 478 247 513 q 310 402 296 443 q 331 325 325 361 q 333 307 333 307 q 338 311 335 308 q 342 315 340 313 q 347 319 344 317 q 380 346 360 331 q 418 361 400 361 q 456 351 433 361 q 476 332 463 346 q 494 310 489 318 m 278 246 q 281 253 281 249 q 279 275 281 257 q 260 381 276 328 q 206 474 244 435 q 190 478 199 479 q 172 474 174 475 q 165 463 169 474 q 142 344 149 418 q 141 318 142 336 q 140 283 140 300 q 141 251 140 265 q 142 236 142 238 q 163 231 144 235 q 190 225 181 226 q 218 222 204 222 q 250 229 232 222 q 278 246 268 236 m 238 100 q 247 118 242 106 q 258 143 253 131 q 267 166 264 156 q 268 178 269 176 l 265 176 q 258 174 264 176 q 245 170 251 171 q 222 169 239 169 q 200 170 211 169 q 182 174 189 171 q 167 175 167 176 q 168 169 167 175 q 172 154 169 163 q 178 138 175 146 q 183 125 182 129 q 211 97 194 101 q 217 97 214 97 q 221 96 219 96 q 238 100 232 94 z "},"p":{"ha":542,"x_min":-56,"x_max":558,"o":"m 551 297 q 554 276 558 288 q 532 247 550 265 q 393 179 472 183 q 376 179 386 179 q 363 181 367 179 q 351 181 354 182 q 343 178 349 181 q 275 151 317 160 q 225 151 249 147 q 201 159 218 153 q 172 172 183 165 q 161 176 164 176 q 163 162 160 175 q 169 131 165 149 q 178 96 174 114 q 188 67 183 78 q 195 44 193 53 q 197 29 197 35 q 194 20 197 24 q 186 11 192 17 q 174 -1 179 3 q 160 -4 168 -4 q 136 0 153 -4 q 65 30 96 8 q 12 82 33 51 q -24 149 -10 113 q -46 222 -39 185 q -51 249 -49 238 q -54 274 -53 261 q -56 304 -56 288 q -56 346 -56 321 q -55 388 -56 371 q -53 420 -54 404 q -50 453 -53 436 q -43 493 -47 469 q -35 535 -40 513 q -26 578 -31 558 q -18 613 -22 597 q -11 632 -14 628 q 17 655 -4 644 q 51 665 38 665 q 93 653 68 665 q 133 622 122 639 q 150 561 144 604 q 152 545 151 553 q 153 527 153 538 q 153 502 154 517 q 153 463 153 488 q 153 414 153 433 q 154 397 153 394 q 170 453 163 429 q 186 494 178 476 q 204 526 194 513 q 226 553 214 540 q 278 588 247 572 q 331 603 310 603 q 355 599 342 603 q 381 591 368 596 q 406 580 394 586 q 422 567 417 574 q 440 535 432 556 q 455 492 449 515 q 464 444 461 468 q 464 400 467 419 q 448 324 460 360 q 413 251 436 289 q 406 236 406 236 l 408 236 q 457 255 432 236 q 497 289 482 274 q 517 308 513 306 q 551 297 539 318 m 296 461 q 297 490 297 482 q 294 511 297 499 q 292 524 294 518 q 290 529 292 526 q 278 524 288 532 q 258 507 268 517 q 233 468 243 492 q 214 407 224 444 q 208 383 210 394 q 206 369 206 372 q 214 351 206 365 q 233 323 222 338 q 255 297 244 308 q 269 285 265 285 q 278 313 272 285 q 284 343 282 329 q 288 374 286 357 q 292 411 290 390 q 296 461 294 432 m 251 226 l 246 232 q 221 253 238 238 q 196 281 204 269 l 186 293 l 182 281 q 178 267 179 275 q 175 253 176 260 l 171 239 l 179 232 q 192 224 183 229 q 209 215 200 219 q 226 208 218 211 q 238 204 235 204 q 246 215 238 204 l 251 226 z "},"q":{"ha":497,"x_min":-83,"x_max":532,"o":"m 528 408 q 531 401 531 404 q 532 386 532 397 q 505 305 532 342 q 442 244 478 268 q 428 235 435 239 q 422 229 422 231 q 424 222 422 228 q 432 207 426 215 q 447 51 471 128 q 435 26 443 39 q 417 1 428 13 q 394 -17 407 -10 q 367 -24 382 -24 q 298 -1 328 -24 q 247 56 268 22 q 215 128 226 89 q 199 200 203 167 q 196 214 199 214 q 182 211 196 214 q 155 205 172 208 q 126 201 138 201 q 6 244 60 201 q -69 347 -47 286 l -72 353 q -82 413 -81 381 q -76 474 -83 446 q -27 561 -62 525 q 57 610 8 597 q 77 615 69 614 q 104 615 85 615 q 176 602 144 615 q 240 563 208 589 l 253 550 l 257 567 q 283 606 267 599 q 322 614 299 614 q 376 604 354 614 q 403 558 397 594 q 406 514 406 544 q 404 458 407 483 q 397 349 400 396 q 390 282 393 301 q 386 254 386 264 l 388 254 l 389 254 q 400 262 392 254 q 421 282 408 269 q 456 322 446 306 q 474 364 467 339 q 484 397 481 388 q 490 411 488 407 q 509 417 497 418 q 528 408 521 417 m 208 413 q 215 447 215 440 q 208 465 215 454 q 193 489 203 478 q 175 504 183 500 q 158 508 168 508 q 140 506 147 508 q 113 479 125 499 q 96 435 101 460 q 94 392 93 415 q 100 350 94 368 q 150 285 115 296 q 176 289 165 282 q 189 296 185 292 q 194 303 193 299 q 196 324 194 307 q 208 413 200 374 m 406 63 q 409 75 408 69 q 410 100 410 81 q 407 136 410 124 q 396 167 404 149 q 385 188 390 179 q 379 196 381 197 q 378 185 379 196 q 374 158 376 174 q 371 127 372 143 q 368 100 369 111 q 365 75 365 83 q 368 60 365 67 q 389 42 372 31 q 397 49 392 43 q 406 63 403 56 z "},"r":{"ha":407,"x_min":-40,"x_max":411,"o":"m 408 286 q 411 276 411 282 q 411 254 411 271 q 408 192 411 228 q 397 122 406 157 q 373 57 389 86 q 332 15 357 28 q 268 8 300 -1 q 199 45 232 18 q 151 107 167 72 q 128 249 128 160 q 128 293 128 274 q 131 332 129 313 q 137 372 133 351 q 146 419 140 393 q 153 458 151 447 q 154 486 154 469 q 154 506 154 497 q 153 514 154 514 q 139 514 153 514 q 107 513 125 514 q 71 512 89 513 q 43 510 53 511 q 33 508 35 510 q 31 503 32 507 q 27 456 31 500 q 18 343 24 411 l 11 271 q 2 157 6 201 q -3 87 -1 113 q -7 51 -6 61 q -10 38 -8 40 q -24 28 -14 29 q -37 36 -33 28 q -40 42 -39 39 q -40 54 -40 44 q -40 81 -40 64 q -36 128 -39 99 q -35 163 -36 140 q -32 212 -33 185 q -28 269 -31 239 q -25 329 -26 300 q -17 455 -19 411 q -12 519 -14 499 q -10 544 -11 540 q -6 550 -8 549 q 4 553 -3 553 q 44 554 11 554 q 128 553 89 556 q 181 549 167 551 q 247 517 218 542 q 288 456 276 492 q 286 321 296 421 q 279 224 282 269 q 278 160 276 179 q 290 107 281 124 q 301 92 293 100 q 311 85 308 85 q 319 91 314 85 q 329 104 325 97 q 347 163 338 121 q 361 244 357 204 q 367 276 364 268 q 376 288 369 285 q 382 289 379 288 q 388 292 385 290 q 408 286 403 297 z "},"s":{"ha":393,"x_min":-33,"x_max":313,"o":"m 267 207 q 295 171 288 186 q 308 128 303 156 q 311 103 311 108 q 308 85 311 97 q 297 53 306 71 q 279 24 288 35 q 258 6 272 15 q 235 -6 244 -3 q 197 -10 215 -12 l 197 -10 q 159 3 182 -7 q 125 24 136 14 q 117 26 119 26 l 111 26 q 88 28 104 25 q 65 33 72 31 q 35 63 42 44 q 26 104 29 81 q 26 135 25 128 q 33 147 28 143 q 42 152 38 151 q 58 151 47 153 q 91 140 82 147 q 111 113 100 133 q 153 69 126 83 q 185 72 176 58 q 188 102 192 82 q 175 143 185 122 q 158 167 168 156 q 124 197 147 178 q 106 212 117 203 q 85 229 94 221 q 65 246 75 238 q 51 257 56 254 q -15 343 13 289 q -30 390 -26 367 q -31 432 -33 414 q -26 449 -29 439 q -19 471 -22 460 q -12 492 -15 482 q -6 506 -8 501 q 38 542 10 533 q 93 558 65 551 q 113 561 103 561 q 146 561 124 561 q 180 560 171 561 q 201 557 189 560 q 271 520 243 546 q 308 458 299 494 q 313 415 313 440 q 306 378 313 389 q 296 366 303 371 q 283 361 289 361 q 269 379 274 361 q 252 419 264 400 q 225 449 240 438 q 205 458 218 453 q 185 463 192 463 q 172 457 178 463 q 154 436 165 451 q 144 420 149 428 q 139 410 140 413 q 142 371 135 397 q 164 321 149 344 q 180 299 171 310 q 210 265 189 288 q 241 233 225 250 q 267 207 257 215 z "},"t":{"ha":542,"x_min":-94,"x_max":521,"o":"m 518 465 q 518 450 521 460 q 513 436 518 439 q 504 433 510 433 q 481 436 499 433 q 449 439 461 439 q 419 435 436 439 q 378 421 394 428 q 335 396 361 414 q 314 383 324 389 q 300 374 304 376 q 295 372 297 372 q 292 369 293 371 q 288 367 289 368 l 285 342 q 275 210 274 275 q 288 110 276 146 q 297 88 293 96 q 333 85 311 64 q 351 107 343 94 q 371 142 360 119 q 392 172 385 168 q 411 165 399 176 q 417 160 414 163 q 422 156 419 157 q 426 146 426 151 q 416 120 426 140 q 393 81 406 100 q 362 42 382 63 q 331 15 342 22 q 246 0 286 -11 l 246 0 q 180 42 207 8 q 134 117 153 75 q 106 205 115 160 q 93 283 96 250 q 90 308 90 306 q 82 313 89 311 q 56 319 71 315 q 31 328 42 324 l 25 331 q -39 374 -11 346 q -81 433 -67 401 q -92 467 -89 453 q -94 506 -94 481 q -93 540 -94 532 q -87 556 -92 549 q -65 557 -76 568 q -54 551 -62 554 q -37 547 -46 549 q -19 544 -28 544 q -6 543 -10 543 l 0 543 q 36 535 28 543 q 40 526 39 532 q 42 499 40 521 q 47 450 43 467 q 63 418 51 433 q 74 408 67 413 q 85 403 82 403 q 87 410 86 403 q 88 428 88 417 q 117 622 93 532 q 182 771 142 711 q 214 804 199 796 q 239 806 218 807 q 271 803 260 806 q 306 787 292 797 q 331 757 321 776 q 342 727 340 739 q 344 688 344 715 q 344 656 344 672 q 342 633 343 640 q 338 610 340 626 q 331 576 335 594 q 324 538 328 557 q 317 506 319 519 q 309 469 313 490 q 307 447 306 449 q 315 450 310 447 q 331 457 319 453 q 356 467 343 461 q 382 476 369 472 q 400 482 394 481 q 451 488 422 488 q 494 483 479 489 q 518 465 511 478 z "},"u":{"ha":507,"x_min":-46,"x_max":490,"o":"m 490 235 l 489 204 q 481 133 488 167 q 463 76 474 100 q 447 55 458 69 q 429 33 436 40 q 353 17 400 4 l 353 17 q 261 88 297 31 q 255 99 258 94 q 251 106 251 104 q 246 101 249 104 l 235 90 q 125 36 182 39 q 22 81 68 33 q -18 142 -3 106 q -40 222 -33 179 q -42 310 -46 264 q -22 400 -37 356 q 0 455 -14 428 q 25 493 14 482 q 33 501 31 500 q 46 501 35 501 q 106 497 74 501 q 158 471 138 492 q 173 451 169 460 q 176 422 176 442 q 160 307 176 374 q 152 273 156 293 q 146 231 149 253 q 141 188 143 208 q 139 151 139 167 q 140 130 139 133 q 144 119 140 126 q 176 101 157 100 q 215 121 196 101 q 225 133 221 126 q 232 142 229 139 q 237 152 236 149 q 235 171 238 156 q 240 265 232 203 q 264 392 247 326 q 271 416 265 399 q 283 451 276 433 q 299 482 290 468 q 317 496 308 496 q 332 494 319 496 q 358 489 344 492 q 383 483 371 486 q 397 479 394 481 q 419 449 413 472 q 424 427 424 439 q 424 397 425 415 q 418 353 422 379 q 406 288 414 328 q 397 228 399 254 q 392 161 394 201 q 390 108 389 125 q 399 75 392 92 q 408 60 406 60 q 419 74 410 60 q 448 137 442 101 q 457 207 454 172 q 459 235 458 231 q 463 242 460 239 q 485 240 476 253 l 490 235 z "},"v":{"ha":375,"x_min":-54,"x_max":382,"o":"m 371 364 q 381 351 379 360 q 375 338 382 343 q 357 331 372 335 q 319 324 342 326 q 306 322 313 322 q 297 319 300 321 l 292 319 l 293 299 q 293 280 293 288 q 290 261 293 272 q 285 239 288 254 q 281 210 283 224 q 258 119 272 160 q 207 43 243 79 q 140 -1 168 4 q 112 -4 131 -4 q 83 -1 93 -4 q 53 12 72 1 q 24 29 33 22 q -8 62 4 43 q -33 117 -21 81 q -50 180 -46 154 q -54 246 -54 206 q -53 278 -54 269 q -49 304 -53 286 q -19 376 -37 354 q 26 394 -1 397 q 53 388 35 393 q 83 375 72 382 q 102 361 92 371 q 121 339 113 351 q 127 328 124 333 q 133 321 131 324 q 138 315 136 318 q 141 301 140 313 q 143 263 142 289 q 146 189 144 238 q 148 126 147 149 q 150 93 149 104 q 152 79 151 82 q 154 76 153 76 q 165 85 157 76 q 181 104 174 94 q 195 134 188 115 q 207 169 203 153 q 225 245 218 210 q 235 297 232 281 q 236 317 235 308 q 239 329 238 326 q 253 342 242 339 q 301 353 264 346 q 325 356 313 354 q 346 361 338 358 q 363 365 358 364 q 371 364 367 365 z "},"w":{"ha":657,"x_min":-47,"x_max":667,"o":"m 665 346 q 664 336 667 342 q 658 328 661 331 q 642 326 656 326 q 610 324 629 325 q 572 322 578 322 q 564 318 565 321 q 560 306 563 315 q 554 283 557 296 q 549 258 551 271 q 544 235 546 246 q 538 196 540 208 q 528 164 535 183 q 509 119 521 143 q 481 72 497 94 q 446 30 465 49 q 406 3 426 11 q 374 -4 394 -1 q 343 -4 354 -7 q 301 17 321 1 q 269 60 282 33 l 264 68 q 260 64 263 67 q 249 54 257 63 q 198 16 222 31 q 146 -6 174 1 q 119 -10 136 -8 q 92 -10 101 -11 q 13 31 46 -1 q -36 115 -21 63 q -45 155 -43 139 q -47 203 -47 171 q -42 272 -47 242 q -24 339 -36 303 q -6 378 -17 357 q 10 404 6 400 q 29 410 17 410 q 65 408 42 411 q 106 403 93 406 q 128 396 118 400 q 152 376 146 388 q 158 340 158 364 q 156 310 158 325 q 150 274 154 294 q 145 249 147 264 q 140 218 143 233 q 137 190 139 204 q 133 167 135 175 q 130 131 131 151 q 132 100 129 111 q 146 78 136 85 q 163 79 153 72 q 203 117 172 86 l 242 153 l 239 172 q 238 198 238 182 q 238 231 238 214 q 240 263 239 247 q 243 290 242 279 q 264 381 249 338 q 275 408 271 400 q 286 415 279 415 q 303 413 290 415 q 329 406 315 410 q 356 397 343 401 q 375 389 369 392 q 392 376 383 385 q 403 360 400 367 q 412 309 410 346 q 413 203 414 272 q 413 163 413 175 q 415 140 413 150 q 423 110 418 124 q 432 92 428 96 l 436 86 l 440 90 q 455 115 446 97 q 469 146 464 132 q 495 226 486 186 q 507 313 504 267 q 509 336 508 328 q 515 349 510 344 q 533 353 521 353 q 569 356 546 354 q 619 358 601 357 q 644 358 636 358 q 656 358 653 358 q 661 354 660 357 q 665 346 665 350 z "},"x":{"ha":493,"x_min":-35,"x_max":419,"o":"m 408 264 q 415 233 413 251 q 419 194 418 214 q 419 155 419 174 q 417 121 419 136 q 367 11 406 47 q 322 -13 347 -7 q 268 -12 296 -19 l 268 -12 q 193 33 231 -1 q 129 114 156 67 l 124 125 l 115 115 q 103 100 113 111 q 85 78 94 89 q 67 58 75 67 q 56 46 58 49 q 52 45 53 46 q 50 44 51 44 q 35 53 38 44 q 31 56 32 56 q 24 61 28 57 q 19 68 21 65 q 19 76 17 74 q 33 95 21 79 q 63 133 46 111 l 103 183 l 101 190 q 99 206 99 194 q 100 244 99 218 q 101 273 100 261 q 103 298 101 285 q 106 330 104 311 q 113 378 108 349 q 112 402 115 397 q 97 404 108 407 q 70 390 82 400 q 49 368 58 381 q 33 341 40 356 q 21 314 26 326 q 10 290 14 299 q 3 278 6 282 q 0 273 1 274 q -3 271 -1 272 q -9 269 -7 268 q -18 272 -11 269 q -32 283 -29 278 q -33 304 -35 289 q 28 439 -29 382 q 83 478 54 468 q 110 484 99 483 q 133 482 121 485 q 196 440 175 472 q 228 369 217 408 q 231 362 231 365 q 233 356 232 358 q 235 349 233 351 l 250 368 q 267 388 257 376 q 288 414 276 400 q 325 460 308 440 q 344 483 342 481 q 365 483 356 493 q 369 478 369 479 q 378 474 372 476 q 389 465 386 472 q 392 458 392 461 q 382 442 392 456 q 348 399 372 428 q 276 313 324 369 q 258 290 264 297 q 249 275 251 282 q 249 257 247 268 q 253 224 250 246 q 262 151 257 175 q 278 106 267 126 q 306 76 293 76 q 328 87 315 76 q 349 110 342 97 q 358 141 354 122 q 365 181 363 160 q 368 222 368 201 q 365 256 368 242 q 374 272 364 263 q 390 281 383 281 q 408 264 403 281 z "},"y":{"ha":458,"x_min":-72,"x_max":379,"o":"m 375 407 q 377 392 376 399 q 378 376 378 386 q 379 352 379 367 q 379 313 379 338 q 378 262 379 282 q 377 225 378 242 q 374 192 376 208 q 367 150 371 175 q 356 93 363 124 q 340 33 350 63 q 315 -24 329 3 q 279 -71 300 -51 q 252 -90 271 -78 q 222 -104 233 -101 q 203 -108 215 -107 q 182 -107 192 -110 l 182 -108 q 162 -102 174 -106 q 131 -90 150 -99 q 107 -81 114 -85 q 90 -71 100 -81 q 54 -31 71 -56 q 35 14 38 -6 l 33 18 q 38 42 32 36 q 64 49 44 49 q 92 45 83 50 q 103 26 100 40 q 123 -4 106 11 q 157 -22 140 -19 q 172 -17 165 -24 q 190 12 181 -10 q 207 58 200 33 q 213 93 211 74 q 217 149 214 113 l 218 172 l 210 167 q 139 139 175 146 q 69 140 103 132 q 8 169 36 147 q -40 224 -21 190 q -70 349 -72 278 q -33 492 -68 421 q 4 536 -11 536 q 13 533 10 536 q 33 519 17 529 q 87 490 68 500 q 115 474 106 479 q 126 466 124 468 q 131 460 129 464 q 128 414 139 447 q 111 343 117 378 q 108 285 106 308 q 113 256 111 265 q 122 238 115 246 q 132 227 129 229 q 139 228 135 225 q 146 232 142 229 q 157 238 150 235 q 169 245 163 240 q 179 254 176 250 q 199 279 186 261 q 217 308 211 297 q 219 314 218 311 q 222 326 221 317 q 224 355 222 336 q 228 408 225 374 q 233 458 231 443 q 238 481 235 472 q 260 492 243 494 q 275 490 264 490 q 293 488 282 490 q 305 485 299 486 q 315 482 311 483 q 358 456 346 476 q 375 407 369 435 z "},"z":{"ha":468,"x_min":-15,"x_max":563,"o":"m 525 465 q 540 471 533 471 q 553 469 547 472 q 560 454 558 465 q 561 453 560 451 q 562 454 563 454 q 559 449 561 454 q 551 426 557 443 q 487 301 529 361 q 392 199 444 242 q 379 189 385 193 q 371 182 374 185 l 364 176 l 372 164 q 406 81 399 125 q 415 -8 414 36 q 414 -66 417 -44 q 403 -111 411 -87 q 395 -126 401 -117 q 382 -143 389 -135 q 367 -159 375 -151 q 356 -169 360 -167 q 322 -183 344 -176 q 290 -190 300 -190 q 263 -185 279 -189 q 238 -178 246 -182 q 209 -159 228 -172 q 183 -139 190 -146 q 150 -88 163 -117 q 139 -29 138 -60 q 151 31 139 -6 q 182 94 164 68 q 192 108 186 100 q 206 124 199 117 q 219 136 213 131 q 228 142 225 142 q 226 154 235 144 q 205 170 219 164 q 174 180 190 176 q 142 185 158 183 q 115 186 126 186 q 85 189 92 186 q 69 203 78 192 q 62 213 67 207 q 53 224 57 219 q 43 253 38 243 q 65 269 46 264 q 85 279 76 274 q 103 295 94 285 q 119 323 111 306 q 140 368 128 340 q 168 500 168 432 q 163 554 168 536 q 143 579 157 572 q 117 583 128 586 q 90 563 106 579 q 72 535 82 553 q 54 498 63 518 q 38 459 46 478 q 26 428 31 440 q 15 390 18 397 q 8 381 11 383 q -11 383 -4 374 q -15 390 -14 386 q -12 407 -15 393 q -6 453 -10 433 q 7 503 -1 472 q 36 584 22 556 q 71 635 50 613 q 108 656 86 650 q 151 661 129 661 q 198 653 179 661 q 236 626 217 646 q 281 544 271 592 q 290 450 290 497 q 285 364 290 403 q 265 275 279 325 q 260 255 263 264 q 257 244 257 246 q 282 232 257 243 q 303 223 293 228 q 318 215 314 218 q 332 210 332 210 q 344 219 335 211 q 367 239 354 228 q 390 260 379 250 q 406 275 401 271 q 441 317 422 294 q 476 365 460 340 q 506 416 493 390 q 525 465 519 442 m 94 608 l 97 611 q 93 610 94 611 l 94 608 m 281 -37 q 283 10 285 -21 q 278 64 282 40 q 268 100 274 85 q 260 118 263 115 q 244 113 257 121 q 224 94 232 104 q 204 69 214 85 q 188 35 194 53 q 176 -1 181 17 q 171 -31 171 -18 q 185 -83 172 -56 q 219 -126 199 -111 q 235 -133 231 -133 q 247 -124 240 -133 q 267 -86 257 -111 q 281 -37 276 -61 z "},"{":{"ha":442,"x_min":25,"x_max":414,"o":"m 233 796 q 225 752 229 772 q 218 717 221 732 q 210 685 214 700 q 203 657 207 671 q 194 633 199 644 q 185 610 189 621 q 173 587 179 599 q 160 563 167 575 l 144 536 l 151 528 q 219 410 200 467 q 222 399 221 406 q 226 381 224 392 q 231 358 229 369 q 235 335 232 347 q 240 303 238 318 q 244 278 242 289 q 250 254 247 265 q 256 233 253 243 q 262 213 258 222 q 268 193 265 204 q 276 173 272 183 q 288 150 281 163 q 306 115 294 133 q 332 74 317 96 q 362 35 347 53 q 392 1 376 17 q 404 -12 399 -3 l 410 -18 q 400 -29 410 -29 q 389 -25 394 -26 q 369 -19 383 -22 q 358 -15 363 -17 q 346 -11 353 -14 q 328 -3 338 -6 q 293 19 313 6 q 275 34 283 26 q 257 50 267 42 q 225 83 238 67 q 212 100 218 92 q 200 115 206 108 q 179 151 189 132 q 169 171 174 161 q 160 192 165 181 q 143 240 153 210 q 134 271 139 256 q 124 306 129 286 q 111 351 117 331 q 100 388 106 371 q 88 417 93 403 q 76 444 83 432 q 69 460 72 454 q 63 471 65 467 q 56 478 60 474 q 44 489 51 483 q 26 510 29 504 q 35 519 25 515 q 41 525 38 522 q 47 535 44 528 q 55 548 51 542 q 63 561 58 554 q 75 600 71 581 q 81 628 78 611 q 88 669 83 646 q 93 706 90 689 q 99 738 96 722 q 111 794 103 767 q 126 842 117 818 q 136 864 132 853 q 147 886 140 875 q 285 1031 196 989 q 371 1054 328 1054 q 390 1054 386 1057 q 403 1050 394 1054 q 414 1038 414 1043 q 411 1031 414 1033 q 403 1026 408 1029 q 386 1017 397 1024 q 340 990 354 1001 q 325 978 333 985 q 310 964 317 972 q 261 896 278 935 q 233 796 243 858 z "},"}":{"ha":442,"x_min":26,"x_max":415,"o":"m 207 796 q 190 869 200 836 q 162 927 179 901 q 119 975 144 953 q 54 1017 93 997 q 38 1026 43 1024 q 29 1031 32 1029 q 26 1035 26 1033 q 38 1050 26 1043 q 50 1054 46 1054 q 69 1054 54 1057 q 156 1031 113 1054 q 242 967 207 1007 q 299 878 276 926 q 333 775 321 829 q 353 669 346 721 q 360 628 357 646 q 365 600 363 611 q 371 581 367 593 q 381 556 375 568 q 393 533 386 543 q 406 519 400 522 q 414 510 415 515 q 396 489 411 504 q 377 469 383 478 q 364 444 371 461 q 338 377 349 413 q 317 306 326 342 q 285 208 303 256 q 240 115 268 160 q 183 49 217 82 q 113 -3 150 17 q 94 -11 103 -6 q 83 -15 88 -14 q 71 -19 78 -17 q 51 -25 57 -22 q 40 -29 46 -26 q 31 -18 31 -29 l 36 -12 q 41 -6 39 -8 q 46 0 43 -3 l 49 1 q 155 155 119 72 q 206 335 190 238 q 233 438 213 393 q 289 528 253 482 l 296 536 l 281 563 q 233 676 247 618 q 207 796 218 733 z "},"":{"ha":444,"x_min":51,"x_max":342,"o":"m 135 679 q 100 681 117 675 q 72 697 82 688 q 65 750 51 721 q 83 769 71 763 q 110 778 96 776 q 124 778 117 779 q 139 776 132 778 q 165 761 151 772 q 179 739 175 751 q 178 713 182 724 q 163 690 175 703 q 135 679 149 681 m 219 756 q 268 788 232 786 q 321 765 300 788 q 333 714 342 742 q 318 690 331 703 q 294 679 307 681 q 265 681 278 676 q 238 694 250 685 q 218 724 222 706 q 219 756 213 742 z "},"":{"ha":525,"x_min":39,"x_max":471,"o":"m 468 163 q 468 156 471 160 q 458 136 467 150 q 455 128 456 132 q 451 119 454 124 q 447 111 447 114 q 439 104 447 104 q 433 108 438 104 q 418 121 433 110 q 401 133 411 126 q 375 149 390 140 q 349 165 364 157 q 318 185 335 174 q 288 205 301 196 q 261 221 274 214 q 232 241 243 233 q 215 251 221 249 q 204 260 204 258 q 201 264 204 264 q 204 272 200 268 q 213 281 207 275 q 226 294 218 286 q 242 308 233 300 q 261 326 250 315 q 285 347 274 338 q 308 367 297 357 q 331 387 321 378 q 349 403 340 396 q 362 415 357 411 q 368 421 367 419 q 375 425 372 425 q 401 415 382 425 q 425 401 424 404 q 418 389 426 400 q 412 383 417 388 q 396 368 407 378 q 374 349 385 360 q 350 328 363 339 q 338 317 343 322 q 326 307 333 313 q 316 297 321 301 q 307 289 311 293 q 298 281 303 285 q 289 272 293 276 q 293 268 290 271 q 299 263 296 265 q 306 257 301 261 q 322 244 314 250 q 339 231 331 238 q 410 185 376 204 q 458 165 444 167 l 467 165 q 468 163 468 165 m 306 156 q 308 153 308 156 q 308 147 311 153 q 299 128 307 142 l 288 103 q 279 96 288 96 q 274 99 279 96 q 214 139 274 103 q 189 156 203 147 q 158 175 175 164 q 128 195 142 186 q 101 211 114 204 q 72 231 83 224 q 56 242 61 239 q 44 251 44 250 q 42 254 42 254 q 42 256 42 256 q 43 264 39 260 q 67 285 46 269 q 82 299 74 292 q 101 317 90 306 q 126 338 114 328 q 149 358 138 347 q 170 378 160 369 q 189 394 181 386 q 207 413 207 410 q 215 417 211 417 q 225 414 219 417 q 242 406 233 413 q 265 393 264 397 q 258 381 267 392 q 252 374 257 379 q 236 360 247 369 q 190 318 215 343 q 178 308 183 313 q 167 297 174 303 q 156 289 161 293 q 147 281 151 285 q 138 272 143 276 q 129 264 133 268 q 133 260 131 263 q 139 255 136 257 q 146 249 142 253 q 163 235 154 242 q 178 222 171 229 q 249 176 215 196 q 299 157 283 158 l 303 157 q 304 156 304 156 l 306 156 z "},"":{"ha":651,"x_min":100,"x_max":567,"o":"m 564 986 q 563 978 567 982 q 554 975 560 975 q 542 974 550 975 q 524 974 535 974 q 497 973 513 974 q 460 972 481 972 l 349 972 q 306 972 326 972 q 267 971 286 971 q 231 970 247 971 q 199 969 214 969 l 153 969 l 136 969 q 135 971 135 969 l 131 975 q 129 979 129 978 q 128 982 129 981 q 128 983 128 982 q 124 996 128 986 q 114 1022 121 1006 q 101 1060 101 1047 q 106 1074 100 1069 q 160 1076 108 1076 q 228 1076 186 1076 q 332 1075 271 1075 l 554 1074 l 558 1068 q 563 1057 560 1065 q 563 1047 563 1054 q 564 1026 564 1039 q 563 1012 563 1018 q 563 1000 563 1006 q 563 990 563 993 q 564 986 564 988 z "},"":{"ha":549,"x_min":53,"x_max":540,"o":"m 515 53 l 515 26 q 517 13 515 15 q 514 4 517 7 q 510 3 513 4 q 506 3 508 3 q 495 2 503 3 q 476 1 488 1 q 449 1 465 1 q 411 0 432 0 q 363 -1 390 0 q 300 -1 335 -1 l 219 -1 q 183 -2 200 -1 q 151 -3 167 -3 l 89 -3 q 83 3 86 -3 q 81 11 81 11 q 76 24 81 14 q 72 35 74 29 q 67 49 69 42 q 54 86 57 76 q 57 101 53 99 q 113 103 58 103 q 181 103 139 103 q 283 101 224 103 l 506 100 l 511 94 q 515 85 514 89 l 515 53 m 367 424 l 367 388 q 365 370 365 379 q 365 353 365 361 l 365 321 q 363 264 364 289 q 363 218 363 239 q 361 187 361 197 q 361 175 361 176 l 360 174 q 358 172 358 172 q 356 171 357 172 q 347 168 347 168 q 335 165 342 168 q 322 160 329 163 q 308 156 315 158 q 285 149 294 151 q 271 144 276 146 q 256 149 260 142 q 256 190 254 151 q 260 319 258 232 q 261 333 261 326 q 261 346 261 339 q 261 360 261 353 q 263 374 261 367 l 264 424 l 271 596 l 276 601 q 288 606 281 606 q 299 606 290 606 q 319 604 307 606 q 333 603 326 604 q 346 603 340 603 q 355 603 351 603 q 360 604 358 604 q 368 601 364 604 q 369 594 369 601 l 369 569 l 369 515 q 368 476 368 499 q 367 424 368 453 m 538 335 q 536 326 540 331 q 533 326 535 326 q 529 325 532 325 q 520 324 526 325 q 506 324 514 324 q 483 323 496 324 q 454 322 471 322 q 415 322 438 322 q 365 321 393 321 l 365 353 q 365 370 365 361 q 367 388 365 379 l 367 424 l 526 422 l 532 417 q 536 407 535 411 q 536 375 539 400 q 536 362 536 368 q 538 349 536 356 l 538 335 m 263 374 q 261 360 261 367 q 261 346 261 353 q 261 333 261 339 q 260 319 261 326 l 110 319 q 104 325 110 319 q 103 328 104 328 q 103 331 103 329 l 101 332 q 88 371 101 342 q 75 408 78 399 q 79 422 74 421 q 125 425 81 425 q 181 425 147 425 q 264 424 215 425 l 263 374 z "},"":{"ha":869,"x_min":43,"x_max":781,"o":"m 781 283 q 780 187 781 217 q 778 147 779 157 q 735 85 769 85 q 697 105 718 85 q 636 178 675 125 q 582 248 608 214 q 535 306 556 282 q 509 335 522 319 q 485 363 496 350 q 466 383 474 375 q 458 392 458 392 q 457 383 457 388 q 455 374 456 379 q 453 361 454 368 q 414 200 438 272 q 358 79 390 128 q 317 31 339 49 q 257 13 294 13 q 186 41 215 13 q 138 110 157 69 q 109 194 119 150 q 96 269 99 239 q 99 313 93 300 q 129 329 106 325 q 160 331 140 332 q 189 328 181 331 q 224 310 207 324 q 249 279 240 297 q 256 265 253 272 q 260 247 258 257 q 265 223 263 238 q 271 186 268 208 q 296 103 282 107 q 309 113 301 103 q 328 146 317 122 q 367 242 349 189 q 397 351 386 294 q 403 378 400 364 q 408 407 406 393 q 411 431 410 421 q 413 443 413 442 q 404 453 413 444 q 385 472 396 461 q 362 493 374 482 q 340 513 350 504 q 312 533 331 519 q 271 558 293 546 q 228 581 249 571 q 194 590 207 590 q 180 581 188 588 q 168 567 172 575 q 163 546 164 557 q 164 501 161 535 q 165 478 165 482 q 161 467 164 474 q 133 451 153 451 q 82 472 110 451 q 46 537 49 500 q 75 603 43 574 q 153 628 101 628 q 215 617 181 628 q 285 592 250 607 q 351 558 319 576 q 406 524 383 539 q 422 515 421 514 q 424 521 424 518 q 426 533 426 526 q 431 558 428 542 q 439 592 435 574 q 447 630 443 611 q 456 663 451 649 q 474 722 464 692 q 499 775 483 751 q 540 813 515 799 q 600 828 564 828 q 667 812 632 828 q 721 767 703 796 q 744 706 735 743 q 760 625 754 669 q 771 533 767 581 q 777 439 775 485 q 780 353 779 393 q 781 283 781 313 m 615 356 q 609 462 615 408 q 588 599 603 515 q 580 640 583 615 q 574 683 576 665 q 556 753 564 751 q 538 738 549 753 q 522 707 528 724 q 501 624 513 681 q 478 504 489 568 l 472 472 l 496 451 q 521 426 506 442 q 549 396 536 410 q 590 355 568 375 q 614 335 611 335 q 615 341 615 335 q 615 356 615 347 z "},"":{"ha":869,"x_min":43,"x_max":781,"o":"m 781 283 q 780 187 781 217 q 778 147 779 157 q 735 85 769 85 q 697 105 718 85 q 636 178 675 125 q 582 248 608 214 q 535 306 556 282 q 509 335 522 319 q 485 363 496 350 q 466 383 474 375 q 458 392 458 392 q 457 383 457 388 q 455 374 456 379 q 453 361 454 368 q 414 200 438 272 q 358 79 390 128 q 317 31 339 49 q 257 13 294 13 q 186 41 215 13 q 138 110 157 69 q 109 194 119 150 q 96 269 99 239 q 99 313 93 300 q 129 329 106 325 q 160 331 140 332 q 189 328 181 331 q 224 310 207 324 q 249 279 240 297 q 256 265 253 272 q 260 247 258 257 q 265 223 263 238 q 271 186 268 208 q 296 103 282 107 q 309 113 301 103 q 328 146 317 122 q 367 242 349 189 q 397 351 386 294 q 403 378 400 364 q 408 407 406 393 q 411 431 410 421 q 413 443 413 442 q 404 453 413 444 q 385 472 396 461 q 362 493 374 482 q 340 513 350 504 q 312 533 331 519 q 271 558 293 546 q 228 581 249 571 q 194 590 207 590 q 180 581 188 588 q 168 567 172 575 q 163 546 164 557 q 164 501 161 535 q 165 478 165 482 q 161 467 164 474 q 133 451 153 451 q 82 472 110 451 q 46 537 49 500 q 75 603 43 574 q 153 628 101 628 q 215 617 181 628 q 285 592 250 607 q 351 558 319 576 q 406 524 383 539 q 422 515 421 514 q 424 521 424 518 q 426 533 426 526 q 431 558 428 542 q 439 592 435 574 q 447 630 443 611 q 456 663 451 649 q 474 722 464 692 q 499 775 483 751 q 540 813 515 799 q 600 828 564 828 q 667 812 632 828 q 721 767 703 796 q 744 706 735 743 q 760 625 754 669 q 771 533 767 581 q 777 439 775 485 q 780 353 779 393 q 781 283 781 313 m 615 356 q 609 462 615 408 q 588 599 603 515 q 580 640 583 615 q 574 683 576 665 q 556 753 564 751 q 538 738 549 753 q 522 707 528 724 q 501 624 513 681 q 478 504 489 568 l 472 472 l 496 451 q 521 426 506 442 q 549 396 536 410 q 590 355 568 375 q 614 335 611 335 q 615 341 615 335 q 615 356 615 347 z "},"":{"ha":869,"x_min":43,"x_max":781,"o":"m 781 283 q 780 187 781 217 q 778 147 779 157 q 735 85 769 85 q 697 105 718 85 q 636 178 675 125 q 582 248 608 214 q 535 306 556 282 q 509 335 522 319 q 485 363 496 350 q 466 383 474 375 q 458 392 458 392 q 457 383 457 388 q 455 374 456 379 q 453 361 454 368 q 414 200 438 272 q 358 79 390 128 q 317 31 339 49 q 257 13 294 13 q 186 41 215 13 q 138 110 157 69 q 109 194 119 150 q 96 269 99 239 q 99 313 93 300 q 129 329 106 325 q 160 331 140 332 q 189 328 181 331 q 224 310 207 324 q 249 279 240 297 q 256 265 253 272 q 260 247 258 257 q 265 223 263 238 q 271 186 268 208 q 296 103 282 107 q 309 113 301 103 q 328 146 317 122 q 367 242 349 189 q 397 351 386 294 q 403 378 400 364 q 408 407 406 393 q 411 431 410 421 q 413 443 413 442 q 404 453 413 444 q 385 472 396 461 q 362 493 374 482 q 340 513 350 504 q 312 533 331 519 q 271 558 293 546 q 228 581 249 571 q 194 590 207 590 q 180 581 188 588 q 168 567 172 575 q 163 546 164 557 q 164 501 161 535 q 165 478 165 482 q 161 467 164 474 q 133 451 153 451 q 82 472 110 451 q 46 537 49 500 q 75 603 43 574 q 153 628 101 628 q 215 617 181 628 q 285 592 250 607 q 351 558 319 576 q 406 524 383 539 q 422 515 421 514 q 424 521 424 518 q 426 533 426 526 q 431 558 428 542 q 439 592 435 574 q 447 630 443 611 q 456 663 451 649 q 474 722 464 692 q 499 775 483 751 q 540 813 515 799 q 600 828 564 828 q 667 812 632 828 q 721 767 703 796 q 744 706 735 743 q 760 625 754 669 q 771 533 767 581 q 777 439 775 485 q 780 353 779 393 q 781 283 781 313 m 615 356 q 609 462 615 408 q 588 599 603 515 q 580 640 583 615 q 574 683 576 665 q 556 753 564 751 q 538 738 549 753 q 522 707 528 724 q 501 624 513 681 q 478 504 489 568 l 472 472 l 496 451 q 521 426 506 442 q 549 396 536 410 q 590 355 568 375 q 614 335 611 335 q 615 341 615 335 q 615 356 615 347 z "},"":{"ha":869,"x_min":43,"x_max":781,"o":"m 781 283 q 780 187 781 217 q 778 147 779 157 q 735 85 769 85 q 697 105 718 85 q 636 178 675 125 q 582 248 608 214 q 535 306 556 282 q 509 335 522 319 q 485 363 496 350 q 466 383 474 375 q 458 392 458 392 q 457 383 457 388 q 455 374 456 379 q 453 361 454 368 q 414 200 438 272 q 358 79 390 128 q 317 31 339 49 q 257 13 294 13 q 186 41 215 13 q 138 110 157 69 q 109 194 119 150 q 96 269 99 239 q 99 313 93 300 q 129 329 106 325 q 160 331 140 332 q 189 328 181 331 q 224 310 207 324 q 249 279 240 297 q 256 265 253 272 q 260 247 258 257 q 265 223 263 238 q 271 186 268 208 q 296 103 282 107 q 309 113 301 103 q 328 146 317 122 q 367 242 349 189 q 397 351 386 294 q 403 378 400 364 q 408 407 406 393 q 411 431 410 421 q 413 443 413 442 q 404 453 413 444 q 385 472 396 461 q 362 493 374 482 q 340 513 350 504 q 312 533 331 519 q 271 558 293 546 q 228 581 249 571 q 194 590 207 590 q 180 581 188 588 q 168 567 172 575 q 163 546 164 557 q 164 501 161 535 q 165 478 165 482 q 161 467 164 474 q 133 451 153 451 q 82 472 110 451 q 46 537 49 500 q 75 603 43 574 q 153 628 101 628 q 215 617 181 628 q 285 592 250 607 q 351 558 319 576 q 406 524 383 539 q 422 515 421 514 q 424 521 424 518 q 426 533 426 526 q 431 558 428 542 q 439 592 435 574 q 447 630 443 611 q 456 663 451 649 q 474 722 464 692 q 499 775 483 751 q 540 813 515 799 q 600 828 564 828 q 667 812 632 828 q 721 767 703 796 q 744 706 735 743 q 760 625 754 669 q 771 533 767 581 q 777 439 775 485 q 780 353 779 393 q 781 283 781 313 m 615 356 q 609 462 615 408 q 588 599 603 515 q 580 640 583 615 q 574 683 576 665 q 556 753 564 751 q 538 738 549 753 q 522 707 528 724 q 501 624 513 681 q 478 504 489 568 l 472 472 l 496 451 q 521 426 506 442 q 549 396 536 410 q 590 355 568 375 q 614 335 611 335 q 615 341 615 335 q 615 356 615 347 m 372 957 q 338 958 354 953 q 310 975 319 965 q 303 1028 289 999 q 321 1047 308 1040 q 347 1056 333 1054 q 362 1056 354 1057 q 376 1054 369 1056 q 403 1039 389 1050 q 417 1017 413 1029 q 415 990 419 1001 q 400 968 413 981 q 372 957 386 958 m 457 1033 q 506 1065 469 1064 q 558 1043 538 1065 q 571 992 579 1019 q 556 968 568 981 q 532 957 544 958 q 503 958 515 954 q 475 972 488 963 q 456 1001 460 983 q 457 1033 450 1019 z "},"":{"ha":869,"x_min":43,"x_max":781,"o":"m 781 283 q 780 187 781 217 q 778 147 779 157 q 735 85 769 85 q 697 105 718 85 q 636 178 675 125 q 582 248 608 214 q 535 306 556 282 q 509 335 522 319 q 485 363 496 350 q 466 383 474 375 q 458 392 458 392 q 457 383 457 388 q 455 374 456 379 q 453 361 454 368 q 414 200 438 272 q 358 79 390 128 q 317 31 339 49 q 257 13 294 13 q 186 41 215 13 q 138 110 157 69 q 109 194 119 150 q 96 269 99 239 q 99 313 93 300 q 129 329 106 325 q 160 331 140 332 q 189 328 181 331 q 224 310 207 324 q 249 279 240 297 q 256 265 253 272 q 260 247 258 257 q 265 223 263 238 q 271 186 268 208 q 296 103 282 107 q 309 113 301 103 q 328 146 317 122 q 367 242 349 189 q 397 351 386 294 q 403 378 400 364 q 408 407 406 393 q 411 431 410 421 q 413 443 413 442 q 404 453 413 444 q 385 472 396 461 q 362 493 374 482 q 340 513 350 504 q 312 533 331 519 q 271 558 293 546 q 228 581 249 571 q 194 590 207 590 q 180 581 188 588 q 168 567 172 575 q 163 546 164 557 q 164 501 161 535 q 165 478 165 482 q 161 467 164 474 q 133 451 153 451 q 82 472 110 451 q 46 537 49 500 q 75 603 43 574 q 153 628 101 628 q 215 617 181 628 q 285 592 250 607 q 351 558 319 576 q 406 524 383 539 q 422 515 421 514 q 424 521 424 518 q 426 533 426 526 q 431 558 428 542 q 439 592 435 574 q 447 630 443 611 q 456 663 451 649 q 474 722 464 692 q 499 775 483 751 q 540 813 515 799 q 600 828 564 828 q 667 812 632 828 q 721 767 703 796 q 744 706 735 743 q 760 625 754 669 q 771 533 767 581 q 777 439 775 485 q 780 353 779 393 q 781 283 781 313 m 615 356 q 609 462 615 408 q 588 599 603 515 q 580 640 583 615 q 574 683 576 665 q 556 753 564 751 q 538 738 549 753 q 522 707 528 724 q 501 624 513 681 q 478 504 489 568 l 472 472 l 496 451 q 521 426 506 442 q 549 396 536 410 q 590 355 568 375 q 614 335 611 335 q 615 341 615 335 q 615 356 615 347 z "},"":{"ha":1514,"x_min":43,"x_max":1426,"o":"m 781 283 q 780 187 781 217 q 778 147 779 157 q 735 85 769 85 q 697 105 718 85 q 636 178 675 125 q 582 248 608 214 q 535 306 556 282 q 509 335 522 319 q 485 363 496 350 q 466 383 474 375 q 458 392 458 392 q 457 383 457 388 q 455 374 456 379 q 453 361 454 368 q 414 200 438 272 q 358 79 390 128 q 317 31 339 49 q 257 13 294 13 q 186 41 215 13 q 138 110 157 69 q 109 194 119 150 q 96 269 99 239 q 99 313 93 300 q 129 329 106 325 q 160 331 140 332 q 189 328 181 331 q 224 310 207 324 q 249 279 240 297 q 256 265 253 272 q 260 247 258 257 q 265 223 263 238 q 271 186 268 208 q 296 103 282 107 q 309 113 301 103 q 328 146 317 122 q 367 242 349 189 q 397 351 386 294 q 403 378 400 364 q 408 407 406 393 q 411 431 410 421 q 413 443 413 442 q 404 453 413 444 q 385 472 396 461 q 362 493 374 482 q 340 513 350 504 q 312 533 331 519 q 271 558 293 546 q 228 581 249 571 q 194 590 207 590 q 180 581 188 588 q 168 567 172 575 q 163 546 164 557 q 164 501 161 535 q 165 478 165 482 q 161 467 164 474 q 133 451 153 451 q 82 472 110 451 q 46 537 49 500 q 75 603 43 574 q 153 628 101 628 q 215 617 181 628 q 285 592 250 607 q 351 558 319 576 q 406 524 383 539 q 422 515 421 514 q 424 521 424 518 q 426 533 426 526 q 431 558 428 542 q 439 592 435 574 q 447 630 443 611 q 456 663 451 649 q 474 722 464 692 q 499 775 483 751 q 540 813 515 799 q 600 828 564 828 q 667 812 632 828 q 721 767 703 796 q 744 706 735 743 q 760 625 754 669 q 771 533 767 581 q 777 439 775 485 q 780 353 779 393 q 781 283 781 313 m 615 356 q 609 462 615 408 q 588 599 603 515 q 580 640 583 615 q 574 683 576 665 q 556 753 564 751 q 538 738 549 753 q 522 707 528 724 q 501 624 513 681 q 478 504 489 568 l 472 472 l 496 451 q 521 426 506 442 q 549 396 536 410 q 590 355 568 375 q 614 335 611 335 q 615 341 615 335 q 615 356 615 347 m 1407 299 q 1422 283 1417 301 q 1426 232 1426 264 q 1381 97 1426 153 q 1258 24 1336 42 q 1208 17 1238 18 q 1157 21 1178 17 l 1157 21 q 1073 51 1111 29 q 1006 103 1035 72 q 961 172 978 133 q 942 253 944 210 q 983 385 939 329 q 1015 417 996 401 q 1049 440 1033 433 q 1057 444 1056 443 q 1054 449 1058 444 q 1043 460 1050 453 q 975 601 979 521 q 1004 714 972 661 q 1094 794 1036 767 q 1188 819 1139 817 q 1286 806 1238 822 q 1363 760 1329 792 q 1387 726 1375 746 q 1399 697 1399 707 q 1386 678 1399 683 q 1358 679 1374 672 q 1343 688 1356 681 q 1317 706 1331 696 q 1273 733 1288 725 q 1247 742 1258 740 q 1231 739 1238 742 q 1215 728 1224 736 q 1187 672 1196 706 q 1178 610 1178 638 q 1198 530 1178 565 q 1254 471 1218 494 q 1272 460 1261 467 q 1292 449 1282 454 q 1313 438 1303 443 q 1326 432 1322 433 q 1342 417 1342 426 q 1337 408 1342 413 q 1328 401 1332 403 q 1310 404 1324 401 q 1171 365 1228 426 q 1131 286 1139 332 q 1128 246 1128 271 q 1133 206 1129 221 q 1194 126 1150 151 q 1286 115 1238 100 q 1349 160 1322 128 q 1383 238 1375 193 q 1385 251 1385 242 q 1385 268 1386 260 q 1387 289 1385 285 q 1397 296 1389 293 q 1407 299 1401 296 z "},"":{"ha":644,"x_min":69,"x_max":557,"o":"m 538 299 q 552 283 547 301 q 557 232 557 264 q 512 97 557 153 q 389 24 467 42 q 338 17 368 18 q 288 21 308 17 l 288 21 q 203 51 242 29 q 137 103 165 72 q 92 172 108 133 q 72 253 75 210 q 114 385 69 329 q 145 417 126 401 q 179 440 164 433 q 188 444 186 443 q 185 449 189 444 q 174 460 181 453 q 106 601 110 521 q 135 714 103 661 q 225 794 167 767 q 319 819 269 817 q 417 806 368 822 q 493 760 460 792 q 517 726 506 746 q 529 697 529 707 q 517 678 529 683 q 489 679 504 672 q 474 688 486 681 q 447 706 461 696 q 403 733 418 725 q 378 742 389 740 q 361 739 368 742 q 346 728 354 736 q 317 672 326 706 q 308 610 308 638 q 328 530 308 565 q 385 471 349 494 q 402 460 392 467 q 423 449 413 454 q 443 438 433 443 q 457 432 453 433 q 472 417 472 426 q 467 408 472 413 q 458 401 463 403 q 440 404 454 401 q 301 365 358 426 q 261 286 269 332 q 259 246 258 271 q 264 206 260 221 q 324 126 281 151 q 417 115 368 100 q 479 160 453 128 q 514 238 506 193 q 516 251 515 242 q 515 268 517 260 q 517 289 515 285 q 528 296 519 293 q 538 299 532 296 z "},"":{"ha":644,"x_min":69,"x_max":557,"o":"m 538 299 q 552 283 547 301 q 557 232 557 264 q 512 97 557 153 q 389 24 467 42 q 338 17 368 18 q 288 21 308 17 l 288 21 q 203 51 242 29 q 137 103 165 72 q 92 172 108 133 q 72 253 75 210 q 114 385 69 329 q 145 417 126 401 q 179 440 164 433 q 188 444 186 443 q 185 449 189 444 q 174 460 181 453 q 106 601 110 521 q 135 714 103 661 q 225 794 167 767 q 319 819 269 817 q 417 806 368 822 q 493 760 460 792 q 517 726 506 746 q 529 697 529 707 q 517 678 529 683 q 489 679 504 672 q 474 688 486 681 q 447 706 461 696 q 403 733 418 725 q 378 742 389 740 q 361 739 368 742 q 346 728 354 736 q 317 672 326 706 q 308 610 308 638 q 328 530 308 565 q 385 471 349 494 q 402 460 392 467 q 423 449 413 454 q 443 438 433 443 q 457 432 453 433 q 472 417 472 426 q 467 408 472 413 q 458 401 463 403 q 440 404 454 401 q 301 365 358 426 q 261 286 269 332 q 259 246 258 271 q 264 206 260 221 q 324 126 281 151 q 417 115 368 100 q 479 160 453 128 q 514 238 506 193 q 516 251 515 242 q 515 268 517 260 q 517 289 515 285 q 528 296 519 293 q 538 299 532 296 z "},"":{"ha":644,"x_min":69,"x_max":557,"o":"m 538 299 q 552 283 547 301 q 557 232 557 264 q 512 97 557 153 q 389 24 467 42 q 338 17 368 18 q 288 21 308 17 l 288 21 q 203 51 242 29 q 137 103 165 72 q 92 172 108 133 q 72 253 75 210 q 114 385 69 329 q 145 417 126 401 q 179 440 164 433 q 188 444 186 443 q 185 449 189 444 q 174 460 181 453 q 106 601 110 521 q 135 714 103 661 q 225 794 167 767 q 319 819 269 817 q 417 806 368 822 q 493 760 460 792 q 517 726 506 746 q 529 697 529 707 q 517 678 529 683 q 489 679 504 672 q 474 688 486 681 q 447 706 461 696 q 403 733 418 725 q 378 742 389 740 q 361 739 368 742 q 346 728 354 736 q 317 672 326 706 q 308 610 308 638 q 328 530 308 565 q 385 471 349 494 q 402 460 392 467 q 423 449 413 454 q 443 438 433 443 q 457 432 453 433 q 472 417 472 426 q 467 408 472 413 q 458 401 463 403 q 440 404 454 401 q 301 365 358 426 q 261 286 269 332 q 259 246 258 271 q 264 206 260 221 q 324 126 281 151 q 417 115 368 100 q 479 160 453 128 q 514 238 506 193 q 516 251 515 242 q 515 268 517 260 q 517 289 515 285 q 528 296 519 293 q 538 299 532 296 z "},"":{"ha":606,"x_min":40,"x_max":572,"o":"m 214 6 q 119 31 160 13 q 54 101 79 49 q 44 130 47 118 q 42 154 40 142 q 67 203 44 186 q 119 224 89 219 q 174 217 143 226 q 224 190 206 207 l 233 182 l 233 194 q 232 225 233 200 q 228 281 231 250 q 220 387 224 340 q 215 473 217 433 q 213 550 214 513 q 213 629 213 588 q 218 764 213 749 q 229 778 221 768 q 243 790 238 788 q 289 798 260 799 q 338 788 318 797 q 376 749 365 774 q 390 696 388 724 q 391 643 390 688 q 393 534 392 599 q 395 395 394 469 q 396 253 396 321 q 396 199 396 219 q 394 166 396 179 q 391 144 393 153 q 385 122 389 135 q 379 106 379 111 q 403 97 379 104 q 465 93 442 85 q 494 116 485 99 q 506 172 503 133 q 510 206 508 192 q 515 222 513 219 q 522 225 518 225 q 533 224 526 225 q 547 220 540 222 q 560 216 554 218 q 567 213 565 214 q 572 194 572 208 q 563 128 571 181 q 551 90 558 104 q 525 61 544 76 q 499 44 513 51 q 475 35 486 38 q 450 33 467 33 q 415 34 433 33 q 380 37 397 35 q 354 42 363 39 q 339 46 343 44 q 326 39 336 46 q 294 18 310 25 q 256 7 279 11 q 233 3 243 4 q 214 6 224 3 m 147 147 q 147 124 142 140 q 168 83 153 107 q 199 57 188 57 q 222 76 214 57 q 231 108 231 96 q 222 114 226 111 q 215 120 219 117 q 203 128 210 124 q 165 151 176 147 q 147 147 154 154 z "},"":{"ha":606,"x_min":40,"x_max":572,"o":"m 214 6 q 119 31 160 13 q 54 101 79 49 q 44 130 47 118 q 42 154 40 142 q 67 203 44 186 q 119 224 89 219 q 174 217 143 226 q 224 190 206 207 l 233 182 l 233 194 q 232 225 233 200 q 228 281 231 250 q 220 387 224 340 q 215 473 217 433 q 213 550 214 513 q 213 629 213 588 q 218 764 213 749 q 229 778 221 768 q 243 790 238 788 q 289 798 260 799 q 338 788 318 797 q 376 749 365 774 q 390 696 388 724 q 391 643 390 688 q 393 534 392 599 q 395 395 394 469 q 396 253 396 321 q 396 199 396 219 q 394 166 396 179 q 391 144 393 153 q 385 122 389 135 q 379 106 379 111 q 403 97 379 104 q 465 93 442 85 q 494 116 485 99 q 506 172 503 133 q 510 206 508 192 q 515 222 513 219 q 522 225 518 225 q 533 224 526 225 q 547 220 540 222 q 560 216 554 218 q 567 213 565 214 q 572 194 572 208 q 563 128 571 181 q 551 90 558 104 q 525 61 544 76 q 499 44 513 51 q 475 35 486 38 q 450 33 467 33 q 415 34 433 33 q 380 37 397 35 q 354 42 363 39 q 339 46 343 44 q 326 39 336 46 q 294 18 310 25 q 256 7 279 11 q 233 3 243 4 q 214 6 224 3 m 147 147 q 147 124 142 140 q 168 83 153 107 q 199 57 188 57 q 222 76 214 57 q 231 108 231 96 q 222 114 226 111 q 215 120 219 117 q 203 128 210 124 q 165 151 176 147 q 147 147 154 154 z "},"":{"ha":606,"x_min":40,"x_max":572,"o":"m 214 6 q 119 31 160 13 q 54 101 79 49 q 44 130 47 118 q 42 154 40 142 q 67 203 44 186 q 119 224 89 219 q 174 217 143 226 q 224 190 206 207 l 233 182 l 233 194 q 232 225 233 200 q 228 281 231 250 q 220 387 224 340 q 215 473 217 433 q 213 550 214 513 q 213 629 213 588 q 218 764 213 749 q 229 778 221 768 q 243 790 238 788 q 289 798 260 799 q 338 788 318 797 q 376 749 365 774 q 390 696 388 724 q 391 643 390 688 q 393 534 392 599 q 395 395 394 469 q 396 253 396 321 q 396 199 396 219 q 394 166 396 179 q 391 144 393 153 q 385 122 389 135 q 379 106 379 111 q 403 97 379 104 q 465 93 442 85 q 494 116 485 99 q 506 172 503 133 q 510 206 508 192 q 515 222 513 219 q 522 225 518 225 q 533 224 526 225 q 547 220 540 222 q 560 216 554 218 q 567 213 565 214 q 572 194 572 208 q 563 128 571 181 q 551 90 558 104 q 525 61 544 76 q 499 44 513 51 q 475 35 486 38 q 450 33 467 33 q 415 34 433 33 q 380 37 397 35 q 354 42 363 39 q 339 46 343 44 q 326 39 336 46 q 294 18 310 25 q 256 7 279 11 q 233 3 243 4 q 214 6 224 3 m 147 147 q 147 124 142 140 q 168 83 153 107 q 199 57 188 57 q 222 76 214 57 q 231 108 231 96 q 222 114 226 111 q 215 120 219 117 q 203 128 210 124 q 165 151 176 147 q 147 147 154 154 z "},"":{"ha":606,"x_min":40,"x_max":572,"o":"m 214 6 q 119 31 160 13 q 54 101 79 49 q 44 130 47 118 q 42 154 40 142 q 67 203 44 186 q 119 224 89 219 q 174 217 143 226 q 224 190 206 207 l 233 182 l 233 194 q 232 225 233 200 q 228 281 231 250 q 220 387 224 340 q 215 473 217 433 q 213 550 214 513 q 213 629 213 588 q 218 764 213 749 q 229 778 221 768 q 243 790 238 788 q 289 798 260 799 q 338 788 318 797 q 376 749 365 774 q 390 696 388 724 q 391 643 390 688 q 393 534 392 599 q 395 395 394 469 q 396 253 396 321 q 396 199 396 219 q 394 166 396 179 q 391 144 393 153 q 385 122 389 135 q 379 106 379 111 q 403 97 379 104 q 465 93 442 85 q 494 116 485 99 q 506 172 503 133 q 510 206 508 192 q 515 222 513 219 q 522 225 518 225 q 533 224 526 225 q 547 220 540 222 q 560 216 554 218 q 567 213 565 214 q 572 194 572 208 q 563 128 571 181 q 551 90 558 104 q 525 61 544 76 q 499 44 513 51 q 475 35 486 38 q 450 33 467 33 q 415 34 433 33 q 380 37 397 35 q 354 42 363 39 q 339 46 343 44 q 326 39 336 46 q 294 18 310 25 q 256 7 279 11 q 233 3 243 4 q 214 6 224 3 m 147 147 q 147 124 142 140 q 168 83 153 107 q 199 57 188 57 q 222 76 214 57 q 231 108 231 96 q 222 114 226 111 q 215 120 219 117 q 203 128 210 124 q 165 151 176 147 q 147 147 154 154 m 240 957 q 206 958 222 953 q 178 975 188 965 q 171 1028 157 999 q 189 1047 176 1040 q 215 1056 201 1054 q 230 1056 222 1057 q 244 1054 238 1056 q 271 1039 257 1050 q 285 1017 281 1029 q 283 990 288 1001 q 268 968 281 981 q 240 957 254 958 m 325 1033 q 374 1065 338 1064 q 426 1043 406 1065 q 439 992 447 1019 q 424 968 436 981 q 400 957 413 958 q 371 958 383 954 q 343 972 356 963 q 324 1001 328 983 q 325 1033 318 1019 z "},"":{"ha":522,"x_min":75,"x_max":456,"o":"m 456 144 l 456 138 q 450 126 454 132 q 443 118 447 124 q 431 103 439 113 q 419 92 424 97 q 411 83 415 88 q 403 74 403 75 q 396 68 399 68 q 389 71 394 68 q 382 77 386 74 q 371 88 378 81 q 332 122 356 101 q 303 148 319 133 q 267 182 288 163 q 259 188 263 185 q 251 194 256 192 q 236 210 243 201 l 211 231 q 199 241 204 236 q 189 251 194 246 q 144 292 164 274 q 110 324 125 310 q 79 353 79 350 q 79 360 75 353 q 82 368 79 367 q 83 372 82 369 q 88 379 85 374 q 92 391 90 385 q 97 404 94 397 q 114 440 108 433 q 126 450 118 450 q 135 442 128 449 q 158 422 143 436 q 197 387 174 408 q 253 335 219 365 q 262 326 257 331 q 272 317 267 322 q 281 308 276 313 q 293 297 286 303 l 328 264 l 456 144 m 189 251 q 199 241 194 246 q 211 231 204 236 l 236 210 q 251 194 243 201 q 259 188 256 192 q 267 182 263 185 q 232 138 247 158 q 206 101 217 117 q 194 88 199 94 q 188 78 190 82 q 181 69 183 72 q 174 68 181 68 q 168 69 171 69 q 165 71 165 69 q 153 75 164 74 q 140 79 146 78 q 126 83 133 81 q 89 96 97 90 q 81 108 79 103 q 106 144 81 111 q 139 188 118 161 q 189 251 160 215 m 293 297 q 281 308 286 303 q 272 317 276 313 q 262 326 267 322 q 253 335 257 331 l 353 464 l 361 464 q 371 460 367 464 q 379 453 374 458 q 396 442 385 449 q 408 433 403 438 q 417 426 413 429 q 429 418 425 421 q 435 411 435 415 q 432 404 435 413 q 426 396 429 401 q 417 382 424 390 q 403 364 410 375 q 385 339 396 353 q 360 306 374 325 q 328 264 346 288 l 293 297 z "},"":{"ha":626,"x_min":-44,"x_max":639,"o":"m 346 132 q 293 72 324 97 q 228 35 263 47 q 163 23 197 24 q 96 33 128 22 q 7 97 43 50 q -42 208 -29 143 q -44 258 -44 228 q -40 308 -44 289 q 18 433 -26 379 q 124 506 63 486 q 217 514 171 522 q 292 484 257 507 q 346 426 326 461 q 354 419 353 415 q 360 455 357 438 q 365 490 363 472 q 371 522 368 515 q 398 540 376 533 q 447 543 419 546 q 497 528 486 539 q 514 503 507 519 q 524 472 521 488 q 515 336 526 456 q 511 238 511 283 q 514 136 511 192 q 525 53 518 67 q 544 54 529 44 q 571 96 560 65 q 577 113 575 106 q 581 129 579 119 q 583 153 582 139 q 583 192 583 168 q 585 237 583 221 q 589 260 586 253 q 598 269 592 268 q 614 271 604 271 q 629 269 626 272 q 635 247 632 265 q 637 226 636 235 q 638 210 638 218 q 638 192 639 201 q 638 168 638 182 q 622 70 635 107 q 582 10 608 33 q 571 1 576 6 q 561 -6 565 -3 q 523 -17 546 -14 q 485 -14 500 -19 l 485 -14 q 445 8 464 -8 q 410 47 426 25 q 383 92 394 68 q 365 135 371 115 q 360 150 360 150 q 356 145 360 151 q 346 132 351 139 m 204 106 q 234 132 218 113 q 261 174 250 151 q 285 242 274 199 q 303 342 296 286 q 305 360 304 353 q 307 371 306 368 q 308 376 308 374 q 300 388 307 379 q 251 428 278 418 q 201 425 225 438 q 176 392 186 417 q 158 319 165 368 q 154 272 156 299 q 153 218 153 244 q 153 169 153 192 q 157 136 154 147 q 174 101 164 108 q 204 106 185 94 z "},"":{"ha":626,"x_min":-44,"x_max":639,"o":"m 346 132 q 293 72 324 97 q 228 35 263 47 q 163 23 197 24 q 96 33 128 22 q 7 97 43 50 q -42 208 -29 143 q -44 258 -44 228 q -40 308 -44 289 q 18 433 -26 379 q 124 506 63 486 q 217 514 171 522 q 292 484 257 507 q 346 426 326 461 q 354 419 353 415 q 360 455 357 438 q 365 490 363 472 q 371 522 368 515 q 398 540 376 533 q 447 543 419 546 q 497 528 486 539 q 514 503 507 519 q 524 472 521 488 q 515 336 526 456 q 511 238 511 283 q 514 136 511 192 q 525 53 518 67 q 544 54 529 44 q 571 96 560 65 q 577 113 575 106 q 581 129 579 119 q 583 153 582 139 q 583 192 583 168 q 585 237 583 221 q 589 260 586 253 q 598 269 592 268 q 614 271 604 271 q 629 269 626 272 q 635 247 632 265 q 637 226 636 235 q 638 210 638 218 q 638 192 639 201 q 638 168 638 182 q 622 70 635 107 q 582 10 608 33 q 571 1 576 6 q 561 -6 565 -3 q 523 -17 546 -14 q 485 -14 500 -19 l 485 -14 q 445 8 464 -8 q 410 47 426 25 q 383 92 394 68 q 365 135 371 115 q 360 150 360 150 q 356 145 360 151 q 346 132 351 139 m 204 106 q 234 132 218 113 q 261 174 250 151 q 285 242 274 199 q 303 342 296 286 q 305 360 304 353 q 307 371 306 368 q 308 376 308 374 q 300 388 307 379 q 251 428 278 418 q 201 425 225 438 q 176 392 186 417 q 158 319 165 368 q 154 272 156 299 q 153 218 153 244 q 153 169 153 192 q 157 136 154 147 q 174 101 164 108 q 204 106 185 94 z "},"":{"ha":626,"x_min":-44,"x_max":639,"o":"m 346 132 q 293 72 324 97 q 228 35 263 47 q 163 23 197 24 q 96 33 128 22 q 7 97 43 50 q -42 208 -29 143 q -44 258 -44 228 q -40 308 -44 289 q 18 433 -26 379 q 124 506 63 486 q 217 514 171 522 q 292 484 257 507 q 346 426 326 461 q 354 419 353 415 q 360 455 357 438 q 365 490 363 472 q 371 522 368 515 q 398 540 376 533 q 447 543 419 546 q 497 528 486 539 q 514 503 507 519 q 524 472 521 488 q 515 336 526 456 q 511 238 511 283 q 514 136 511 192 q 525 53 518 67 q 544 54 529 44 q 571 96 560 65 q 577 113 575 106 q 581 129 579 119 q 583 153 582 139 q 583 192 583 168 q 585 237 583 221 q 589 260 586 253 q 598 269 592 268 q 614 271 604 271 q 629 269 626 272 q 635 247 632 265 q 637 226 636 235 q 638 210 638 218 q 638 192 639 201 q 638 168 638 182 q 622 70 635 107 q 582 10 608 33 q 571 1 576 6 q 561 -6 565 -3 q 523 -17 546 -14 q 485 -14 500 -19 l 485 -14 q 445 8 464 -8 q 410 47 426 25 q 383 92 394 68 q 365 135 371 115 q 360 150 360 150 q 356 145 360 151 q 346 132 351 139 m 204 106 q 234 132 218 113 q 261 174 250 151 q 285 242 274 199 q 303 342 296 286 q 305 360 304 353 q 307 371 306 368 q 308 376 308 374 q 300 388 307 379 q 251 428 278 418 q 201 425 225 438 q 176 392 186 417 q 158 319 165 368 q 154 272 156 299 q 153 218 153 244 q 153 169 153 192 q 157 136 154 147 q 174 101 164 108 q 204 106 185 94 z "},"":{"ha":626,"x_min":-44,"x_max":639,"o":"m 346 132 q 293 72 324 97 q 228 35 263 47 q 163 23 197 24 q 96 33 128 22 q 7 97 43 50 q -42 208 -29 143 q -44 258 -44 228 q -40 308 -44 289 q 18 433 -26 379 q 124 506 63 486 q 217 514 171 522 q 292 484 257 507 q 346 426 326 461 q 354 419 353 415 q 360 455 357 438 q 365 490 363 472 q 371 522 368 515 q 398 540 376 533 q 447 543 419 546 q 497 528 486 539 q 514 503 507 519 q 524 472 521 488 q 515 336 526 456 q 511 238 511 283 q 514 136 511 192 q 525 53 518 67 q 544 54 529 44 q 571 96 560 65 q 577 113 575 106 q 581 129 579 119 q 583 153 582 139 q 583 192 583 168 q 585 237 583 221 q 589 260 586 253 q 598 269 592 268 q 614 271 604 271 q 629 269 626 272 q 635 247 632 265 q 637 226 636 235 q 638 210 638 218 q 638 192 639 201 q 638 168 638 182 q 622 70 635 107 q 582 10 608 33 q 571 1 576 6 q 561 -6 565 -3 q 523 -17 546 -14 q 485 -14 500 -19 l 485 -14 q 445 8 464 -8 q 410 47 426 25 q 383 92 394 68 q 365 135 371 115 q 360 150 360 150 q 356 145 360 151 q 346 132 351 139 m 204 106 q 234 132 218 113 q 261 174 250 151 q 285 242 274 199 q 303 342 296 286 q 305 360 304 353 q 307 371 306 368 q 308 376 308 374 q 300 388 307 379 q 251 428 278 418 q 201 425 225 438 q 176 392 186 417 q 158 319 165 368 q 154 272 156 299 q 153 218 153 244 q 153 169 153 192 q 157 136 154 147 q 174 101 164 108 q 204 106 185 94 z "},"":{"ha":626,"x_min":-44,"x_max":639,"o":"m 346 132 q 293 72 324 97 q 228 35 263 47 q 163 23 197 24 q 96 33 128 22 q 7 97 43 50 q -42 208 -29 143 q -44 258 -44 228 q -40 308 -44 289 q 18 433 -26 379 q 124 506 63 486 q 217 514 171 522 q 292 484 257 507 q 346 426 326 461 q 354 419 353 415 q 360 455 357 438 q 365 490 363 472 q 371 522 368 515 q 398 540 376 533 q 447 543 419 546 q 497 528 486 539 q 514 503 507 519 q 524 472 521 488 q 515 336 526 456 q 511 238 511 283 q 514 136 511 192 q 525 53 518 67 q 544 54 529 44 q 571 96 560 65 q 577 113 575 106 q 581 129 579 119 q 583 153 582 139 q 583 192 583 168 q 585 237 583 221 q 589 260 586 253 q 598 269 592 268 q 614 271 604 271 q 629 269 626 272 q 635 247 632 265 q 637 226 636 235 q 638 210 638 218 q 638 192 639 201 q 638 168 638 182 q 622 70 635 107 q 582 10 608 33 q 571 1 576 6 q 561 -6 565 -3 q 523 -17 546 -14 q 485 -14 500 -19 l 485 -14 q 445 8 464 -8 q 410 47 426 25 q 383 92 394 68 q 365 135 371 115 q 360 150 360 150 q 356 145 360 151 q 346 132 351 139 m 204 106 q 234 132 218 113 q 261 174 250 151 q 285 242 274 199 q 303 342 296 286 q 305 360 304 353 q 307 371 306 368 q 308 376 308 374 q 300 388 307 379 q 251 428 278 418 q 201 425 225 438 q 176 392 186 417 q 158 319 165 368 q 154 272 156 299 q 153 218 153 244 q 153 169 153 192 q 157 136 154 147 q 174 101 164 108 q 204 106 185 94 m 250 679 q 215 681 232 675 q 188 697 197 688 q 181 750 167 721 q 199 769 186 763 q 225 778 211 776 q 240 778 232 779 q 254 776 247 778 q 281 761 267 772 q 294 739 290 751 q 293 713 297 724 q 278 690 290 703 q 250 679 264 681 m 335 756 q 383 788 347 786 q 436 765 415 788 q 449 714 457 742 q 433 690 446 703 q 410 679 422 681 q 381 681 393 676 q 353 694 365 685 q 333 724 338 706 q 335 756 328 742 z "},"":{"ha":626,"x_min":-44,"x_max":639,"o":"m 346 132 q 293 72 324 97 q 228 35 263 47 q 163 23 197 24 q 96 33 128 22 q 7 97 43 50 q -42 208 -29 143 q -44 258 -44 228 q -40 308 -44 289 q 18 433 -26 379 q 124 506 63 486 q 217 514 171 522 q 292 484 257 507 q 346 426 326 461 q 354 419 353 415 q 360 455 357 438 q 365 490 363 472 q 371 522 368 515 q 398 540 376 533 q 447 543 419 546 q 497 528 486 539 q 514 503 507 519 q 524 472 521 488 q 515 336 526 456 q 511 238 511 283 q 514 136 511 192 q 525 53 518 67 q 544 54 529 44 q 571 96 560 65 q 577 113 575 106 q 581 129 579 119 q 583 153 582 139 q 583 192 583 168 q 585 237 583 221 q 589 260 586 253 q 598 269 592 268 q 614 271 604 271 q 629 269 626 272 q 635 247 632 265 q 637 226 636 235 q 638 210 638 218 q 638 192 639 201 q 638 168 638 182 q 622 70 635 107 q 582 10 608 33 q 571 1 576 6 q 561 -6 565 -3 q 523 -17 546 -14 q 485 -14 500 -19 l 485 -14 q 445 8 464 -8 q 410 47 426 25 q 383 92 394 68 q 365 135 371 115 q 360 150 360 150 q 356 145 360 151 q 346 132 351 139 m 204 106 q 234 132 218 113 q 261 174 250 151 q 285 242 274 199 q 303 342 296 286 q 305 360 304 353 q 307 371 306 368 q 308 376 308 374 q 300 388 307 379 q 251 428 278 418 q 201 425 225 438 q 176 392 186 417 q 158 319 165 368 q 154 272 156 299 q 153 218 153 244 q 153 169 153 192 q 157 136 154 147 q 174 101 164 108 q 204 106 185 94 z "},"":{"ha":483,"x_min":-50,"x_max":426,"o":"m 421 208 q 415 166 426 199 q 382 97 404 133 q 263 -8 329 13 q 221 -13 249 -12 q 179 -11 193 -14 l 179 -11 q 88 27 129 -1 q 18 94 47 56 q -28 181 -11 133 q -47 276 -46 228 q -28 413 -50 347 q 35 518 -6 479 q 82 549 57 540 q 138 561 107 557 q 194 564 161 564 q 242 561 226 564 q 279 550 263 558 q 311 528 296 542 q 342 489 328 513 q 363 444 357 465 q 361 374 372 408 q 322 317 350 340 q 172 265 279 282 l 139 260 l 139 254 q 140 244 139 251 q 142 228 140 236 q 160 147 149 179 q 190 86 171 115 q 207 67 199 75 q 219 58 215 58 q 249 74 225 58 q 293 106 272 89 q 319 129 306 115 q 344 158 333 143 q 364 186 356 172 q 375 210 372 200 q 385 222 378 218 q 389 222 388 222 q 393 219 390 221 q 401 217 396 218 q 408 215 406 215 q 417 213 415 214 q 421 208 418 211 m 138 296 l 138 292 q 147 292 140 292 q 160 294 153 293 q 181 299 174 296 q 207 314 189 303 q 238 342 222 324 q 261 371 254 360 q 271 407 268 386 q 268 444 274 428 q 258 469 265 456 q 242 494 253 481 q 228 508 231 507 q 215 496 225 508 q 193 468 204 483 q 170 426 182 450 q 153 386 158 401 q 142 339 146 367 q 138 296 138 311 z "},"":{"ha":483,"x_min":-50,"x_max":426,"o":"m 421 208 q 415 166 426 199 q 382 97 404 133 q 263 -8 329 13 q 221 -13 249 -12 q 179 -11 193 -14 l 179 -11 q 88 27 129 -1 q 18 94 47 56 q -28 181 -11 133 q -47 276 -46 228 q -28 413 -50 347 q 35 518 -6 479 q 82 549 57 540 q 138 561 107 557 q 194 564 161 564 q 242 561 226 564 q 279 550 263 558 q 311 528 296 542 q 342 489 328 513 q 363 444 357 465 q 361 374 372 408 q 322 317 350 340 q 172 265 279 282 l 139 260 l 139 254 q 140 244 139 251 q 142 228 140 236 q 160 147 149 179 q 190 86 171 115 q 207 67 199 75 q 219 58 215 58 q 249 74 225 58 q 293 106 272 89 q 319 129 306 115 q 344 158 333 143 q 364 186 356 172 q 375 210 372 200 q 385 222 378 218 q 389 222 388 222 q 393 219 390 221 q 401 217 396 218 q 408 215 406 215 q 417 213 415 214 q 421 208 418 211 m 138 296 l 138 292 q 147 292 140 292 q 160 294 153 293 q 181 299 174 296 q 207 314 189 303 q 238 342 222 324 q 261 371 254 360 q 271 407 268 386 q 268 444 274 428 q 258 469 265 456 q 242 494 253 481 q 228 508 231 507 q 215 496 225 508 q 193 468 204 483 q 170 426 182 450 q 153 386 158 401 q 142 339 146 367 q 138 296 138 311 z "},"":{"ha":483,"x_min":-50,"x_max":426,"o":"m 421 208 q 415 166 426 199 q 382 97 404 133 q 263 -8 329 13 q 221 -13 249 -12 q 179 -11 193 -14 l 179 -11 q 88 27 129 -1 q 18 94 47 56 q -28 181 -11 133 q -47 276 -46 228 q -28 413 -50 347 q 35 518 -6 479 q 82 549 57 540 q 138 561 107 557 q 194 564 161 564 q 242 561 226 564 q 279 550 263 558 q 311 528 296 542 q 342 489 328 513 q 363 444 357 465 q 361 374 372 408 q 322 317 350 340 q 172 265 279 282 l 139 260 l 139 254 q 140 244 139 251 q 142 228 140 236 q 160 147 149 179 q 190 86 171 115 q 207 67 199 75 q 219 58 215 58 q 249 74 225 58 q 293 106 272 89 q 319 129 306 115 q 344 158 333 143 q 364 186 356 172 q 375 210 372 200 q 385 222 378 218 q 389 222 388 222 q 393 219 390 221 q 401 217 396 218 q 408 215 406 215 q 417 213 415 214 q 421 208 418 211 m 138 296 l 138 292 q 147 292 140 292 q 160 294 153 293 q 181 299 174 296 q 207 314 189 303 q 238 342 222 324 q 261 371 254 360 q 271 407 268 386 q 268 444 274 428 q 258 469 265 456 q 242 494 253 481 q 228 508 231 507 q 215 496 225 508 q 193 468 204 483 q 170 426 182 450 q 153 386 158 401 q 142 339 146 367 q 138 296 138 311 z "},"":{"ha":464,"x_min":-49,"x_max":501,"o":"m 494 310 q 496 283 501 294 q 475 268 490 271 q 442 288 460 264 q 425 304 432 301 q 419 306 422 307 q 408 299 417 306 q 364 254 381 279 q 353 241 360 249 q 343 229 347 233 q 333 217 335 221 q 331 201 332 214 q 286 75 319 129 q 204 -1 253 21 l 199 -4 q 172 -11 186 -8 q 143 -14 157 -14 q 83 3 111 -14 q 33 42 54 19 q -18 122 3 74 q -46 232 -39 171 q -48 256 -47 242 q -49 284 -49 269 q -48 313 -49 299 q -46 338 -47 328 q -35 391 -42 365 q -17 439 -28 417 l -12 447 q 54 530 15 501 q 136 558 93 558 q 213 535 179 558 q 272 478 247 513 q 310 402 296 443 q 331 325 325 361 q 333 307 333 307 q 338 311 335 308 q 342 315 340 313 q 347 319 344 317 q 380 346 360 331 q 418 361 400 361 q 456 351 433 361 q 476 332 463 346 q 494 310 489 318 m 278 246 q 281 253 281 249 q 279 275 281 257 q 260 381 276 328 q 206 474 244 435 q 190 478 199 479 q 172 474 174 475 q 165 463 169 474 q 142 344 149 418 q 141 318 142 336 q 140 283 140 300 q 141 251 140 265 q 142 236 142 238 q 163 231 144 235 q 190 225 181 226 q 218 222 204 222 q 250 229 232 222 q 278 246 268 236 m 238 100 q 247 118 242 106 q 258 143 253 131 q 267 166 264 156 q 268 178 269 176 l 265 176 q 258 174 264 176 q 245 170 251 171 q 222 169 239 169 q 200 170 211 169 q 182 174 189 171 q 167 175 167 176 q 168 169 167 175 q 172 154 169 163 q 178 138 175 146 q 183 125 182 129 q 211 97 194 101 q 217 97 214 97 q 221 96 219 96 q 238 100 232 94 z "},"":{"ha":464,"x_min":-49,"x_max":501,"o":"m 494 310 q 496 283 501 294 q 475 268 490 271 q 442 288 460 264 q 425 304 432 301 q 419 306 422 307 q 408 299 417 306 q 364 254 381 279 q 353 241 360 249 q 343 229 347 233 q 333 217 335 221 q 331 201 332 214 q 286 75 319 129 q 204 -1 253 21 l 199 -4 q 172 -11 186 -8 q 143 -14 157 -14 q 83 3 111 -14 q 33 42 54 19 q -18 122 3 74 q -46 232 -39 171 q -48 256 -47 242 q -49 284 -49 269 q -48 313 -49 299 q -46 338 -47 328 q -35 391 -42 365 q -17 439 -28 417 l -12 447 q 54 530 15 501 q 136 558 93 558 q 213 535 179 558 q 272 478 247 513 q 310 402 296 443 q 331 325 325 361 q 333 307 333 307 q 338 311 335 308 q 342 315 340 313 q 347 319 344 317 q 380 346 360 331 q 418 361 400 361 q 456 351 433 361 q 476 332 463 346 q 494 310 489 318 m 278 246 q 281 253 281 249 q 279 275 281 257 q 260 381 276 328 q 206 474 244 435 q 190 478 199 479 q 172 474 174 475 q 165 463 169 474 q 142 344 149 418 q 141 318 142 336 q 140 283 140 300 q 141 251 140 265 q 142 236 142 238 q 163 231 144 235 q 190 225 181 226 q 218 222 204 222 q 250 229 232 222 q 278 246 268 236 m 238 100 q 247 118 242 106 q 258 143 253 131 q 267 166 264 156 q 268 178 269 176 l 265 176 q 258 174 264 176 q 245 170 251 171 q 222 169 239 169 q 200 170 211 169 q 182 174 189 171 q 167 175 167 176 q 168 169 167 175 q 172 154 169 163 q 178 138 175 146 q 183 125 182 129 q 211 97 194 101 q 217 97 214 97 q 221 96 219 96 q 238 100 232 94 z "},"":{"ha":464,"x_min":-49,"x_max":501,"o":"m 494 310 q 496 283 501 294 q 475 268 490 271 q 442 288 460 264 q 425 304 432 301 q 419 306 422 307 q 408 299 417 306 q 364 254 381 279 q 353 241 360 249 q 343 229 347 233 q 333 217 335 221 q 331 201 332 214 q 286 75 319 129 q 204 -1 253 21 l 199 -4 q 172 -11 186 -8 q 143 -14 157 -14 q 83 3 111 -14 q 33 42 54 19 q -18 122 3 74 q -46 232 -39 171 q -48 256 -47 242 q -49 284 -49 269 q -48 313 -49 299 q -46 338 -47 328 q -35 391 -42 365 q -17 439 -28 417 l -12 447 q 54 530 15 501 q 136 558 93 558 q 213 535 179 558 q 272 478 247 513 q 310 402 296 443 q 331 325 325 361 q 333 307 333 307 q 338 311 335 308 q 342 315 340 313 q 347 319 344 317 q 380 346 360 331 q 418 361 400 361 q 456 351 433 361 q 476 332 463 346 q 494 310 489 318 m 278 246 q 281 253 281 249 q 279 275 281 257 q 260 381 276 328 q 206 474 244 435 q 190 478 199 479 q 172 474 174 475 q 165 463 169 474 q 142 344 149 418 q 141 318 142 336 q 140 283 140 300 q 141 251 140 265 q 142 236 142 238 q 163 231 144 235 q 190 225 181 226 q 218 222 204 222 q 250 229 232 222 q 278 246 268 236 m 238 100 q 247 118 242 106 q 258 143 253 131 q 267 166 264 156 q 268 178 269 176 l 265 176 q 258 174 264 176 q 245 170 251 171 q 222 169 239 169 q 200 170 211 169 q 182 174 189 171 q 167 175 167 176 q 168 169 167 175 q 172 154 169 163 q 178 138 175 146 q 183 125 182 129 q 211 97 194 101 q 217 97 214 97 q 221 96 219 96 q 238 100 232 94 z "},"":{"ha":503,"x_min":14,"x_max":478,"o":"m 478 236 q 475 226 478 229 q 467 224 475 226 l 438 224 q 410 224 426 224 q 372 222 393 224 q 324 222 351 222 q 261 221 297 221 l 181 221 q 144 221 161 221 q 113 219 128 221 l 67 219 l 49 219 l 47 221 l 46 222 q 44 225 46 224 q 42 233 40 229 l 38 246 q 33 258 35 251 q 28 271 31 264 q 15 310 17 299 q 18 324 14 319 q 74 326 24 326 q 144 326 101 326 q 244 325 186 325 l 467 324 l 472 318 q 475 313 475 315 q 476 307 475 310 l 476 276 l 476 249 q 478 240 476 242 q 478 236 478 238 m 208 182 q 233 199 222 196 q 260 199 247 203 q 285 183 274 194 q 299 154 294 172 q 299 115 303 133 q 282 86 292 94 q 225 75 257 61 q 203 94 211 82 q 193 122 196 106 q 194 154 190 140 q 208 182 196 168 m 222 346 q 186 399 190 358 q 210 456 186 432 q 263 472 233 479 q 288 457 279 468 q 301 431 297 446 q 303 416 303 424 q 301 400 304 408 q 288 369 299 381 q 257 347 278 353 q 222 346 239 339 z "},"":{"ha":507,"x_min":-46,"x_max":490,"o":"m 490 235 l 489 204 q 481 133 488 167 q 463 76 474 100 q 447 55 458 69 q 429 33 436 40 q 353 17 400 4 l 353 17 q 261 88 297 31 q 255 99 258 94 q 251 106 251 104 q 246 101 249 104 l 235 90 q 125 36 182 39 q 22 81 68 33 q -18 142 -3 106 q -40 222 -33 179 q -42 310 -46 264 q -22 400 -37 356 q 0 455 -14 428 q 25 493 14 482 q 33 501 31 500 q 46 501 35 501 q 106 497 74 501 q 158 471 138 492 q 173 451 169 460 q 176 422 176 442 q 160 307 176 374 q 152 273 156 293 q 146 231 149 253 q 141 188 143 208 q 139 151 139 167 q 140 130 139 133 q 144 119 140 126 q 176 101 157 100 q 215 121 196 101 q 225 133 221 126 q 232 142 229 139 q 237 152 236 149 q 235 171 238 156 q 240 265 232 203 q 264 392 247 326 q 271 416 265 399 q 283 451 276 433 q 299 482 290 468 q 317 496 308 496 q 332 494 319 496 q 358 489 344 492 q 383 483 371 486 q 397 479 394 481 q 419 449 413 472 q 424 427 424 439 q 424 397 425 415 q 418 353 422 379 q 406 288 414 328 q 397 228 399 254 q 392 161 394 201 q 390 108 389 125 q 399 75 392 92 q 408 60 406 60 q 419 74 410 60 q 448 137 442 101 q 457 207 454 172 q 459 235 458 231 q 463 242 460 239 q 485 240 476 253 l 490 235 z "},"":{"ha":507,"x_min":-46,"x_max":490,"o":"m 490 235 l 489 204 q 481 133 488 167 q 463 76 474 100 q 447 55 458 69 q 429 33 436 40 q 353 17 400 4 l 353 17 q 261 88 297 31 q 255 99 258 94 q 251 106 251 104 q 246 101 249 104 l 235 90 q 125 36 182 39 q 22 81 68 33 q -18 142 -3 106 q -40 222 -33 179 q -42 310 -46 264 q -22 400 -37 356 q 0 455 -14 428 q 25 493 14 482 q 33 501 31 500 q 46 501 35 501 q 106 497 74 501 q 158 471 138 492 q 173 451 169 460 q 176 422 176 442 q 160 307 176 374 q 152 273 156 293 q 146 231 149 253 q 141 188 143 208 q 139 151 139 167 q 140 130 139 133 q 144 119 140 126 q 176 101 157 100 q 215 121 196 101 q 225 133 221 126 q 232 142 229 139 q 237 152 236 149 q 235 171 238 156 q 240 265 232 203 q 264 392 247 326 q 271 416 265 399 q 283 451 276 433 q 299 482 290 468 q 317 496 308 496 q 332 494 319 496 q 358 489 344 492 q 383 483 371 486 q 397 479 394 481 q 419 449 413 472 q 424 427 424 439 q 424 397 425 415 q 418 353 422 379 q 406 288 414 328 q 397 228 399 254 q 392 161 394 201 q 390 108 389 125 q 399 75 392 92 q 408 60 406 60 q 419 74 410 60 q 448 137 442 101 q 457 207 454 172 q 459 235 458 231 q 463 242 460 239 q 485 240 476 253 l 490 235 z "},"":{"ha":507,"x_min":-46,"x_max":490,"o":"m 490 235 l 489 204 q 481 133 488 167 q 463 76 474 100 q 447 55 458 69 q 429 33 436 40 q 353 17 400 4 l 353 17 q 261 88 297 31 q 255 99 258 94 q 251 106 251 104 q 246 101 249 104 l 235 90 q 125 36 182 39 q 22 81 68 33 q -18 142 -3 106 q -40 222 -33 179 q -42 310 -46 264 q -22 400 -37 356 q 0 455 -14 428 q 25 493 14 482 q 33 501 31 500 q 46 501 35 501 q 106 497 74 501 q 158 471 138 492 q 173 451 169 460 q 176 422 176 442 q 160 307 176 374 q 152 273 156 293 q 146 231 149 253 q 141 188 143 208 q 139 151 139 167 q 140 130 139 133 q 144 119 140 126 q 176 101 157 100 q 215 121 196 101 q 225 133 221 126 q 232 142 229 139 q 237 152 236 149 q 235 171 238 156 q 240 265 232 203 q 264 392 247 326 q 271 416 265 399 q 283 451 276 433 q 299 482 290 468 q 317 496 308 496 q 332 494 319 496 q 358 489 344 492 q 383 483 371 486 q 397 479 394 481 q 419 449 413 472 q 424 427 424 439 q 424 397 425 415 q 418 353 422 379 q 406 288 414 328 q 397 228 399 254 q 392 161 394 201 q 390 108 389 125 q 399 75 392 92 q 408 60 406 60 q 419 74 410 60 q 448 137 442 101 q 457 207 454 172 q 459 235 458 231 q 463 242 460 239 q 485 240 476 253 l 490 235 z "},"":{"ha":507,"x_min":-46,"x_max":490,"o":"m 490 235 l 489 204 q 481 133 488 167 q 463 76 474 100 q 447 55 458 69 q 429 33 436 40 q 353 17 400 4 l 353 17 q 261 88 297 31 q 255 99 258 94 q 251 106 251 104 q 246 101 249 104 l 235 90 q 125 36 182 39 q 22 81 68 33 q -18 142 -3 106 q -40 222 -33 179 q -42 310 -46 264 q -22 400 -37 356 q 0 455 -14 428 q 25 493 14 482 q 33 501 31 500 q 46 501 35 501 q 106 497 74 501 q 158 471 138 492 q 173 451 169 460 q 176 422 176 442 q 160 307 176 374 q 152 273 156 293 q 146 231 149 253 q 141 188 143 208 q 139 151 139 167 q 140 130 139 133 q 144 119 140 126 q 176 101 157 100 q 215 121 196 101 q 225 133 221 126 q 232 142 229 139 q 237 152 236 149 q 235 171 238 156 q 240 265 232 203 q 264 392 247 326 q 271 416 265 399 q 283 451 276 433 q 299 482 290 468 q 317 496 308 496 q 332 494 319 496 q 358 489 344 492 q 383 483 371 486 q 397 479 394 481 q 419 449 413 472 q 424 427 424 439 q 424 397 425 415 q 418 353 422 379 q 406 288 414 328 q 397 228 399 254 q 392 161 394 201 q 390 108 389 125 q 399 75 392 92 q 408 60 406 60 q 419 74 410 60 q 448 137 442 101 q 457 207 454 172 q 459 235 458 231 q 463 242 460 239 q 485 240 476 253 l 490 235 m 190 679 q 156 681 172 675 q 128 697 138 688 q 121 750 107 721 q 139 769 126 763 q 165 778 151 776 q 180 778 172 779 q 194 776 188 778 q 221 761 207 772 q 235 739 231 751 q 233 713 238 724 q 218 690 231 703 q 190 679 204 681 m 275 756 q 324 788 288 786 q 376 765 356 788 q 389 714 397 742 q 374 690 386 703 q 350 679 363 681 q 321 681 333 676 q 293 694 306 685 q 274 724 278 706 q 275 756 268 742 z "},"":{"ha":458,"x_min":-72,"x_max":379,"o":"m 375 407 q 377 392 376 399 q 378 376 378 386 q 379 352 379 367 q 379 313 379 338 q 378 262 379 282 q 377 225 378 242 q 374 192 376 208 q 367 150 371 175 q 356 93 363 124 q 340 33 350 63 q 315 -24 329 3 q 279 -71 300 -51 q 252 -90 271 -78 q 222 -104 233 -101 q 203 -108 215 -107 q 182 -107 192 -110 l 182 -108 q 162 -102 174 -106 q 131 -90 150 -99 q 107 -81 114 -85 q 90 -71 100 -81 q 54 -31 71 -56 q 35 14 38 -6 l 33 18 q 38 42 32 36 q 64 49 44 49 q 92 45 83 50 q 103 26 100 40 q 123 -4 106 11 q 157 -22 140 -19 q 172 -17 165 -24 q 190 12 181 -10 q 207 58 200 33 q 213 93 211 74 q 217 149 214 113 l 218 172 l 210 167 q 139 139 175 146 q 69 140 103 132 q 8 169 36 147 q -40 224 -21 190 q -70 349 -72 278 q -33 492 -68 421 q 4 536 -11 536 q 13 533 10 536 q 33 519 17 529 q 87 490 68 500 q 115 474 106 479 q 126 466 124 468 q 131 460 129 464 q 128 414 139 447 q 111 343 117 378 q 108 285 106 308 q 113 256 111 265 q 122 238 115 246 q 132 227 129 229 q 139 228 135 225 q 146 232 142 229 q 157 238 150 235 q 169 245 163 240 q 179 254 176 250 q 199 279 186 261 q 217 308 211 297 q 219 314 218 311 q 222 326 221 317 q 224 355 222 336 q 228 408 225 374 q 233 458 231 443 q 238 481 235 472 q 260 492 243 494 q 275 490 264 490 q 293 488 282 490 q 305 485 299 486 q 315 482 311 483 q 358 456 346 476 q 375 407 369 435 z "},"":{"ha":458,"x_min":-72,"x_max":379,"o":"m 375 407 q 377 392 376 399 q 378 376 378 386 q 379 352 379 367 q 379 313 379 338 q 378 262 379 282 q 377 225 378 242 q 374 192 376 208 q 367 150 371 175 q 356 93 363 124 q 340 33 350 63 q 315 -24 329 3 q 279 -71 300 -51 q 252 -90 271 -78 q 222 -104 233 -101 q 203 -108 215 -107 q 182 -107 192 -110 l 182 -108 q 162 -102 174 -106 q 131 -90 150 -99 q 107 -81 114 -85 q 90 -71 100 -81 q 54 -31 71 -56 q 35 14 38 -6 l 33 18 q 38 42 32 36 q 64 49 44 49 q 92 45 83 50 q 103 26 100 40 q 123 -4 106 11 q 157 -22 140 -19 q 172 -17 165 -24 q 190 12 181 -10 q 207 58 200 33 q 213 93 211 74 q 217 149 214 113 l 218 172 l 210 167 q 139 139 175 146 q 69 140 103 132 q 8 169 36 147 q -40 224 -21 190 q -70 349 -72 278 q -33 492 -68 421 q 4 536 -11 536 q 13 533 10 536 q 33 519 17 529 q 87 490 68 500 q 115 474 106 479 q 126 466 124 468 q 131 460 129 464 q 128 414 139 447 q 111 343 117 378 q 108 285 106 308 q 113 256 111 265 q 122 238 115 246 q 132 227 129 229 q 139 228 135 225 q 146 232 142 229 q 157 238 150 235 q 169 245 163 240 q 179 254 176 250 q 199 279 186 261 q 217 308 211 297 q 219 314 218 311 q 222 326 221 317 q 224 355 222 336 q 228 408 225 374 q 233 458 231 443 q 238 481 235 472 q 260 492 243 494 q 275 490 264 490 q 293 488 282 490 q 305 485 299 486 q 315 482 311 483 q 358 456 346 476 q 375 407 369 435 m 167 679 q 132 681 149 675 q 104 697 114 688 q 97 750 83 721 q 115 769 103 763 q 142 778 128 776 q 156 778 149 779 q 171 776 164 778 q 197 761 183 772 q 211 739 207 751 q 210 713 214 724 q 194 690 207 703 q 167 679 181 681 m 251 756 q 300 788 264 786 q 353 765 332 788 q 365 714 374 742 q 350 690 363 703 q 326 679 339 681 q 297 681 310 676 q 269 694 282 685 q 250 724 254 706 q 251 756 244 742 z "},"":{"ha":651,"x_min":94,"x_max":561,"o":"m 557 476 q 556 468 561 474 q 547 467 556 467 q 518 465 543 465 q 490 464 507 464 q 453 464 474 464 q 405 463 432 463 q 342 463 378 463 l 260 463 q 224 461 240 461 q 193 461 207 461 q 167 460 178 460 q 147 460 156 460 l 129 460 l 124 465 q 123 469 124 468 q 122 472 122 471 q 121 474 121 472 q 107 513 121 483 q 94 550 97 540 q 99 564 94 563 q 154 567 104 567 q 223 567 181 567 q 325 565 265 567 l 547 564 l 551 558 q 556 549 556 554 q 557 517 557 544 q 556 503 557 510 q 557 490 556 496 l 557 476 z "},"":{"ha":203,"x_min":21,"x_max":154,"o":"m 35 824 q 56 829 42 829 l 69 829 q 77 830 74 829 q 83 831 81 831 q 103 831 99 835 q 104 813 108 828 q 113 754 103 786 q 138 713 124 725 q 143 692 154 703 q 135 689 140 689 q 114 697 131 689 q 60 735 89 711 q 25 788 32 758 q 35 824 21 813 z "},"":{"ha":203,"x_min":58,"x_max":192,"o":"m 176 829 q 186 793 192 815 q 158 746 182 769 q 97 703 133 721 q 76 694 83 694 q 68 697 72 693 q 74 718 58 707 q 99 760 89 729 q 107 818 110 792 q 108 836 104 835 q 128 836 113 839 q 142 835 132 835 l 156 835 q 176 829 171 835 z "},"":{"ha":203,"x_min":7,"x_max":140,"o":"m 126 36 q 136 0 140 24 q 108 -47 132 -24 q 47 -90 83 -72 q 26 -100 28 -100 q 18 -96 22 -100 q 24 -75 7 -87 q 49 -33 39 -65 q 57 25 60 -4 q 58 43 53 38 q 78 43 63 44 q 92 42 81 42 l 106 42 q 126 36 115 42 z "},"":{"ha":338,"x_min":36,"x_max":267,"o":"m 63 835 q 81 839 67 839 q 93 838 88 839 q 106 836 99 838 q 118 836 114 835 q 126 838 122 838 q 129 832 129 835 q 130 826 131 829 q 129 818 129 824 q 128 794 126 806 q 133 769 131 782 q 157 725 142 744 l 165 708 q 167 697 167 703 q 156 694 164 694 q 138 700 149 694 q 89 732 111 711 q 54 779 67 753 q 63 835 36 817 m 194 843 q 203 842 200 843 q 210 842 207 842 q 218 839 213 842 q 222 835 221 836 q 224 832 222 833 l 224 819 q 229 769 219 801 q 240 742 235 754 q 254 722 246 731 q 258 694 267 703 q 196 718 246 682 q 142 797 142 756 q 194 843 142 839 z "},"":{"ha":338,"x_min":40,"x_max":271,"o":"m 244 829 q 253 774 271 811 q 218 726 240 747 q 169 694 197 706 q 160 691 165 692 q 151 689 156 690 q 140 692 146 689 q 142 703 140 697 q 150 719 146 714 q 164 742 158 731 q 174 765 169 753 q 178 813 182 789 l 178 828 q 181 832 178 829 q 189 831 182 833 q 201 831 193 829 q 214 833 208 832 q 226 833 219 833 q 244 829 240 833 m 113 838 q 165 792 165 833 q 111 713 165 750 q 49 689 63 678 q 53 717 40 697 q 78 764 69 736 q 83 814 88 796 l 83 828 l 89 833 l 97 838 l 113 838 z "},"":{"ha":651,"x_min":94,"x_max":561,"o":"m 557 476 q 556 468 561 474 q 547 467 556 467 q 518 465 543 465 q 490 464 507 464 q 453 464 474 464 q 405 463 432 463 q 342 463 378 463 l 260 463 q 224 461 240 461 q 193 461 207 461 q 167 460 178 460 q 147 460 156 460 l 129 460 l 124 465 q 123 469 124 468 q 122 472 122 471 q 121 474 121 472 q 107 513 121 483 q 94 550 97 540 q 99 564 94 563 q 154 567 104 567 q 223 567 181 567 q 325 565 265 567 l 547 564 l 551 558 q 556 549 556 554 q 557 517 557 544 q 556 503 557 510 q 557 490 556 496 l 557 476 z "},"":{"ha":615,"x_min":-118,"x_max":635,"o":"m 314 383 q 268 342 297 360 q 204 321 239 325 l 186 318 l 197 311 q 241 271 221 296 q 269 218 261 246 q 273 160 276 192 q 256 96 269 128 q 214 38 240 64 q 156 0 188 11 q 88 -4 122 -14 q -10 44 36 10 q -81 122 -57 79 q -101 181 -93 144 q -114 262 -110 218 q -118 352 -118 306 q -112 440 -118 399 q -87 576 -104 507 q -32 701 -69 646 q -6 734 -22 717 q 21 758 11 751 q 27 763 24 761 q 31 767 31 765 q 53 776 33 772 q 97 782 74 781 q 136 780 115 782 q 178 773 157 778 q 218 762 199 768 q 251 747 238 756 q 274 730 264 740 q 290 710 285 719 q 246 536 319 649 q 217 495 233 518 q 180 449 200 472 q 140 407 160 426 q 100 375 119 388 q 83 361 82 363 q 94 359 86 360 q 112 357 101 358 q 133 355 122 356 q 151 354 143 354 q 173 355 167 354 q 194 361 179 356 q 258 393 235 375 q 304 447 282 411 q 315 463 311 458 q 326 467 319 467 q 342 450 342 467 q 333 419 342 440 q 314 383 325 399 m 57 422 q 52 390 54 403 q 50 375 50 376 q 56 376 50 372 q 76 389 61 379 q 154 459 117 417 q 219 542 192 501 q 235 567 229 557 q 243 585 240 576 q 247 601 246 593 q 247 622 247 610 q 178 724 247 707 q 157 726 163 726 q 144 718 151 725 q 122 688 132 707 q 101 638 113 669 q 57 422 78 561 m 185 167 q 188 181 188 176 q 185 196 188 186 q 181 210 183 203 q 176 221 179 217 q 157 249 172 231 q 122 285 142 267 q 100 306 113 296 q 76 323 88 315 q 57 335 65 331 q 47 336 49 339 q 45 326 46 335 q 43 303 44 317 q 41 273 42 289 q 40 243 40 257 q 47 158 40 189 q 74 99 54 128 q 89 78 85 83 q 101 69 93 74 q 132 69 117 61 q 165 107 150 79 q 185 167 181 135 m 342 569 q 297 631 297 583 q 304 661 297 646 q 326 683 311 676 q 333 687 329 685 q 343 692 338 689 q 355 697 351 696 q 364 696 358 697 q 403 674 389 693 q 418 631 418 654 q 401 585 418 603 q 374 569 390 574 q 342 569 357 564 m 631 218 q 634 207 633 211 q 633 179 635 203 q 627 125 632 154 q 611 69 622 96 q 582 20 600 42 q 538 -8 564 -1 q 501 -8 519 -12 q 452 14 479 -3 q 404 51 425 31 q 322 173 350 106 q 288 317 294 240 q 286 364 286 338 q 288 417 286 390 q 294 468 290 444 q 301 507 297 492 l 304 517 l 317 519 q 333 523 325 522 q 364 524 340 524 l 399 522 l 415 513 q 443 494 435 501 q 456 481 451 488 q 461 469 460 475 q 463 455 463 464 q 464 430 464 446 q 463 386 464 414 q 465 242 460 303 q 486 118 471 181 q 500 79 493 92 q 518 60 507 67 q 529 56 525 56 q 549 81 540 56 q 559 115 556 99 q 567 160 563 131 q 576 222 572 197 q 583 253 581 247 q 593 258 588 260 q 611 243 599 256 q 622 229 617 236 q 631 218 628 222 z "},"":{"ha":667,"x_min":-118,"x_max":672,"o":"m 314 383 q 268 342 297 360 q 204 321 239 325 l 186 318 l 197 311 q 241 271 221 296 q 269 218 261 246 q 273 160 276 192 q 256 96 269 128 q 214 38 240 64 q 156 0 188 11 q 88 -4 122 -14 q -10 44 36 10 q -81 122 -57 79 q -101 181 -93 144 q -114 262 -110 218 q -118 352 -118 306 q -112 440 -118 399 q -87 576 -104 507 q -32 701 -69 646 q -6 734 -22 717 q 21 758 11 751 q 27 763 24 761 q 31 767 31 765 q 53 776 33 772 q 97 782 74 781 q 136 780 115 782 q 178 773 157 778 q 218 762 199 768 q 251 747 238 756 q 274 730 264 740 q 290 710 285 719 q 246 536 319 649 q 217 495 233 518 q 180 449 200 472 q 140 407 160 426 q 100 375 119 388 q 83 361 82 363 q 94 359 86 360 q 112 357 101 358 q 133 355 122 356 q 151 354 143 354 q 173 355 167 354 q 194 361 179 356 q 258 393 235 375 q 304 447 282 411 q 315 463 311 458 q 326 467 319 467 q 342 450 342 467 q 333 419 342 440 q 314 383 325 399 m 57 422 q 52 390 54 403 q 50 375 50 376 q 56 376 50 372 q 76 389 61 379 q 154 459 117 417 q 219 542 192 501 q 235 567 229 557 q 243 585 240 576 q 247 601 246 593 q 247 622 247 610 q 178 724 247 707 q 157 726 163 726 q 144 718 151 725 q 122 688 132 707 q 101 638 113 669 q 57 422 78 561 m 185 167 q 188 181 188 176 q 185 196 188 186 q 181 210 183 203 q 176 221 179 217 q 157 249 172 231 q 122 285 142 267 q 100 306 113 296 q 76 323 88 315 q 57 335 65 331 q 47 336 49 339 q 45 326 46 335 q 43 303 44 317 q 41 273 42 289 q 40 243 40 257 q 47 158 40 189 q 74 99 54 128 q 89 78 85 83 q 101 69 93 74 q 132 69 117 61 q 165 107 150 79 q 185 167 181 135 m 660 254 q 672 235 672 253 q 668 198 672 221 q 657 151 664 175 q 643 104 650 126 q 629 71 636 82 q 591 30 617 49 q 535 1 565 11 l 528 0 q 511 -3 518 -3 q 490 -4 504 -4 q 471 -3 481 -4 q 456 -3 461 -3 q 423 8 444 0 q 390 22 401 15 q 367 42 379 29 q 345 69 356 54 q 326 99 335 83 q 314 126 318 114 q 310 139 311 135 q 308 143 310 140 q 296 351 297 243 q 315 560 294 460 q 330 612 319 585 q 356 662 340 639 q 395 699 372 685 q 449 714 418 714 q 499 707 468 714 q 549 690 529 700 q 626 618 606 661 q 642 528 647 575 q 610 433 636 481 q 546 349 583 386 q 524 328 535 339 q 507 313 514 318 q 492 301 497 304 q 483 293 486 297 q 479 283 481 289 q 475 265 478 276 q 464 215 467 238 q 463 174 461 193 q 467 139 464 157 q 472 115 469 121 q 484 99 476 107 q 496 88 492 90 q 503 83 499 86 q 511 78 508 81 q 539 67 525 67 q 569 79 556 67 q 590 104 583 92 q 595 117 592 108 q 601 138 599 126 q 607 159 604 149 q 611 176 610 169 q 615 194 614 182 q 617 217 615 206 q 620 237 619 228 q 622 249 621 246 q 633 260 625 257 q 649 258 642 263 q 654 256 651 257 q 660 254 657 256 m 501 532 q 496 501 499 518 q 491 470 493 485 q 488 447 489 456 q 488 438 486 438 l 488 438 q 536 467 517 446 q 560 512 556 489 q 554 553 565 535 q 510 569 543 571 l 507 558 q 505 546 506 553 q 501 532 504 539 z "}}}
